<svg id="svg" xmlns="http://www.w3.org/2000/svg" xmlns:xlink="http://www.w3.org/1999/xlink" viewBox="0, 0, 400,302.092050209205"><g id="svgg"><path id="path0" d="M198.326 54.812 L 198.326 63.598 188.703 63.598 L 179.079 63.598 179.079 65.690 L 179.079 67.782 188.722 67.782 L 198.364 67.782 198.136 101.256 L 197.908 134.729 200.000 134.729 L 202.092 134.729 201.864 101.256 L 201.636 67.782 211.278 67.782 L 220.921 67.782 220.921 65.690 L 220.921 63.598 211.297 63.598 L 201.674 63.598 201.674 54.812 C 201.674 46.583,201.567 46.025,200.000 46.025 C 198.433 46.025,198.326 46.583,198.326 54.812 M162.134 94.301 C 161.328 94.511,160.671 94.750,160.673 94.831 C 160.717 96.462,166.483 126.594,166.815 126.926 C 167.900 128.012,171.388 126.343,171.052 124.899 C 170.486 122.459,165.690 95.223,165.690 94.447 C 165.690 93.694,164.623 93.650,162.134 94.301 M234.310 94.356 C 234.310 95.196,229.553 122.292,228.948 124.899 C 228.612 126.343,232.100 128.012,233.185 126.926 C 233.677 126.434,239.441 95.229,239.102 94.890 C 238.357 94.145,234.310 93.694,234.310 94.356 M139.958 108.178 C 138.923 108.654,138.075 109.383,138.075 109.799 C 138.075 111.652,148.583 135.565,149.398 135.565 C 153.667 135.565,151.994 129.062,142.478 108.678 C 141.973 107.596,141.451 107.493,139.958 108.178 M252.484 120.371 C 247.506 132.184,247.097 133.576,248.328 134.519 C 250.869 136.467,251.512 135.583,256.722 122.986 C 262.699 108.535,262.526 109.329,259.965 108.162 C 258.055 107.292,257.864 107.603,252.484 120.371 M120.973 127.139 C 119.511 128.754,119.647 128.982,126.473 136.352 C 134.273 144.772,133.914 144.546,135.933 142.315 C 137.348 140.751,137.167 140.453,130.475 133.319 C 122.385 124.696,122.888 125.023,120.973 127.139 M269.596 133.162 C 262.872 140.449,262.675 140.777,264.077 142.326 C 266.085 144.544,265.731 144.768,273.527 136.352 C 280.322 129.016,280.483 128.747,279.045 127.159 C 277.030 124.932,277.419 124.684,269.596 133.162 M177.555 141.835 C 174.184 143.007,169.491 144.947,167.124 146.147 C 155.109 152.235,142.982 154.349,136.076 151.558 C 134.747 151.020,133.565 150.685,133.450 150.813 C 132.558 151.807,90.377 230.272,90.377 230.939 C 90.377 235.123,126.481 229.337,141.004 222.825 C 154.159 216.927,156.980 215.942,163.270 215.050 C 174.894 213.401,185.615 216.673,193.726 224.344 L 198.326 228.695 198.326 185.992 L 198.326 143.289 196.025 141.765 C 192.287 139.290,184.788 139.319,177.555 141.835 M205.008 141.313 L 202.092 142.876 201.875 185.793 L 201.658 228.709 206.266 224.351 C 214.385 216.673,225.102 213.401,236.730 215.050 C 243.020 215.942,245.841 216.927,258.996 222.825 C 273.506 229.331,309.623 235.123,309.623 230.944 C 309.623 228.394,266.438 150.653,265.272 151.102 C 257.030 154.280,247.896 153.042,234.535 146.937 C 218.331 139.533,210.948 138.127,205.008 141.313 M192.848 144.067 L 194.979 145.039 194.979 182.500 L 194.979 219.962 190.167 217.064 C 176.677 208.941,162.104 209.123,144.047 217.640 C 132.949 222.875,124.252 225.624,115.368 226.706 C 105.478 227.910,96.234 228.220,96.234 227.346 C 96.234 226.818,134.235 156.104,135.050 155.114 C 135.103 155.050,137.351 155.402,140.044 155.897 C 147.231 157.217,154.575 155.690,165.901 150.520 C 181.580 143.363,187.953 141.837,192.848 144.067 M218.948 144.340 C 221.252 145.024,227.707 147.659,233.292 150.195 C 245.401 155.693,252.640 157.241,259.956 155.897 C 262.649 155.402,264.901 155.050,264.960 155.114 C 265.699 155.922,303.766 226.847,303.766 227.416 C 303.766 228.331,293.831 227.956,284.120 226.675 C 275.446 225.531,266.807 222.759,255.953 217.640 C 237.896 209.123,223.323 208.941,209.833 217.064 L 205.021 219.962 205.021 182.494 L 205.021 145.026 206.904 144.118 C 209.595 142.819,214.108 142.903,218.948 144.340 M119.982 163.007 C 115.537 167.151,73.934 240.417,72.155 247.234 C 71.994 247.849,91.105 248.051,135.125 247.898 L 198.326 247.678 198.326 241.556 C 198.326 221.438,171.262 211.751,147.939 223.521 C 132.658 231.234,119.989 234.214,99.498 234.917 C 90.131 235.238,85.428 235.104,85.059 234.507 C 84.627 233.808,110.631 184.699,123.160 162.552 C 124.527 160.136,125.524 158.175,125.375 158.195 C 125.226 158.215,122.799 160.381,119.982 163.007 M276.720 162.344 C 284.703 176.447,315.481 233.745,315.481 234.504 C 315.481 235.124,311.045 235.253,301.046 234.923 C 280.005 234.229,267.518 231.323,252.061 223.521 C 228.732 211.747,201.674 221.438,201.674 241.566 L 201.674 247.699 264.923 247.699 C 299.711 247.699,328.047 247.391,327.894 247.014 C 322.524 233.831,283.752 166.224,279.329 162.331 L 274.116 157.742 276.720 162.344 M111.054 160.042 C 109.346 161.318,61.098 250.086,61.092 251.962 C 61.079 256.310,52.834 256.067,200.215 256.067 C 347.077 256.067,338.923 256.304,338.907 252.032 C 338.900 250.099,290.702 161.343,288.953 160.042 C 287.297 158.810,282.008 158.632,282.008 159.808 C 282.008 160.254,283.137 161.454,284.516 162.473 C 286.603 164.016,330.802 243.365,333.520 250.449 C 334.038 251.799,326.236 251.883,200.000 251.883 C 72.659 251.883,65.958 251.809,66.489 250.418 C 69.599 242.268,112.895 164.801,115.810 162.170 L 119.247 159.067 115.850 159.031 C 113.982 159.012,111.824 159.467,111.054 160.042 " stroke="none" fill-rule="evenodd"></path></g></svg>
