<svg id="svg" xmlns="http://www.w3.org/2000/svg" xmlns:xlink="http://www.w3.org/1999/xlink" viewBox="0, 0, 400,400"><g id="svgg"><path id="path0" d="M192.000 43.000 L 192.000 64.000 200.000 64.000 L 208.000 64.000 208.000 43.000 L 208.000 22.000 200.000 22.000 L 192.000 22.000 192.000 43.000 M110.500 46.230 C 102.585 51.299,102.127 48.442,114.116 68.812 C 125.408 87.997,124.605 87.446,133.422 82.069 L 139.845 78.153 129.502 60.077 C 123.813 50.134,118.673 42.015,118.079 42.034 C 117.486 42.052,114.075 43.941,110.500 46.230 M270.498 60.077 L 260.155 78.153 266.578 82.069 C 270.110 84.223,273.623 85.988,274.384 85.993 C 275.553 85.999,296.000 52.876,296.000 50.975 C 296.000 50.207,282.910 42.000,281.685 42.000 C 281.221 42.000,276.187 50.134,270.498 60.077 M194.283 74.660 C 192.850 76.386,191.887 93.548,191.538 123.564 L 191.000 169.809 168.000 129.690 C 144.758 89.149,142.058 85.725,136.228 89.396 C 130.325 93.113,131.793 96.719,156.796 139.950 C 180.822 181.491,181.545 183.079,178.819 188.351 C 167.655 209.939,190.345 232.198,212.065 220.966 C 227.202 213.139,227.883 187.965,213.171 180.091 L 208.000 177.324 208.000 127.062 C 208.000 90.636,207.339 76.139,205.600 74.400 C 202.427 71.227,197.029 71.351,194.283 74.660 M45.935 111.105 C 43.520 115.013,41.871 118.530,42.272 118.920 C 42.672 119.310,50.903 124.188,60.563 129.760 L 78.126 139.890 82.055 133.445 C 87.448 124.601,88.003 125.411,68.812 114.116 C 48.389 102.096,51.269 102.475,45.935 111.105 M331.070 113.966 C 312.663 125.075,312.757 124.935,317.970 133.486 L 321.924 139.972 339.462 129.696 C 349.108 124.045,357.328 119.148,357.728 118.815 C 358.821 117.907,349.882 103.973,348.337 104.176 C 347.602 104.273,339.831 108.678,331.070 113.966 M22.000 200.000 L 22.000 208.000 43.000 208.000 L 64.000 208.000 64.000 200.000 L 64.000 192.000 43.000 192.000 L 22.000 192.000 22.000 200.000 M336.000 200.000 L 336.000 208.000 357.000 208.000 L 378.000 208.000 378.000 200.000 L 378.000 192.000 357.000 192.000 L 336.000 192.000 336.000 200.000 M62.000 269.256 C 53.750 274.140,45.734 278.895,44.186 279.823 C 41.725 281.299,47.895 296.000,50.975 296.000 C 52.876 296.000,85.999 275.553,85.993 274.384 C 85.984 272.772,78.315 259.909,77.529 260.189 C 77.238 260.292,70.250 264.373,62.000 269.256 M317.945 266.555 C 315.783 270.100,314.012 273.623,314.007 274.384 C 314.001 275.553,347.124 296.000,349.025 296.000 C 350.196 296.000,358.475 281.807,357.728 281.080 C 357.328 280.690,349.097 275.812,339.437 270.240 L 321.874 260.110 317.945 266.555 M114.116 331.188 C 108.552 340.641,104.000 348.668,104.000 349.025 C 104.000 350.196,118.193 358.475,118.920 357.728 C 119.310 357.328,124.188 349.097,129.760 339.437 L 139.890 321.874 133.445 317.945 C 124.601 312.552,125.411 311.997,114.116 331.188 M266.555 317.945 L 260.110 321.874 270.240 339.437 C 275.812 349.097,280.690 357.328,281.080 357.728 C 281.807 358.475,296.000 350.196,296.000 349.025 C 296.000 347.124,275.553 314.001,274.384 314.007 C 273.623 314.012,270.100 315.783,266.555 317.945 M192.000 357.000 L 192.000 378.000 200.000 378.000 L 208.000 378.000 208.000 357.000 L 208.000 336.000 200.000 336.000 L 192.000 336.000 192.000 357.000 " stroke="none" fill-rule="evenodd"></path></g></svg>
