<svg id="svg" xmlns="http://www.w3.org/2000/svg" xmlns:xlink="http://www.w3.org/1999/xlink" viewBox="0, 0, 400,400"><g id="svgg"><path id="path0" d="M103.093 50.455 C 77.349 63.189,68.715 92.370,78.910 132.190 C 79.692 135.245,80.657 139.269,81.055 141.131 L 81.777 144.517 79.205 146.888 C 74.289 151.421,55.082 171.868,50.685 177.249 C 35.235 196.157,32.103 218.999,41.718 242.647 C 52.411 268.946,70.839 280.071,102.500 279.340 C 108.696 279.197,109.481 279.237,109.627 279.704 C 109.718 279.993,110.084 281.920,110.442 283.987 C 110.800 286.054,111.317 288.995,111.592 290.523 C 114.484 306.623,113.344 320.485,108.539 327.633 C 100.440 339.681,89.298 342.266,78.664 334.563 L 77.099 333.430 79.499 332.555 C 89.032 329.078,94.081 319.235,91.197 309.746 C 88.881 302.123,76.951 296.622,70.059 299.999 C 55.861 306.957,58.345 333.202,73.945 341.058 C 105.134 356.764,127.361 331.500,118.783 290.094 C 118.335 287.934,117.815 285.271,117.627 284.178 C 117.439 283.084,117.100 281.322,116.875 280.263 L 116.465 278.336 118.935 277.033 C 136.654 267.687,145.937 253.658,145.904 236.275 C 145.858 211.153,130.884 195.712,105.392 194.499 L 100.817 194.281 100.397 191.176 C 100.167 189.469,99.625 185.866,99.195 183.170 C 98.764 180.474,98.006 175.729,97.511 172.627 L 96.610 166.985 103.475 160.045 C 119.785 143.555,127.607 128.471,129.442 109.967 C 131.348 90.739,123.495 66.971,109.899 50.825 C 107.502 47.979,108.038 48.009,103.093 50.455 M109.613 67.514 C 122.015 82.351,118.393 110.587,101.964 127.150 C 99.331 129.804,92.060 135.948,91.551 135.948 C 91.421 135.948,90.144 129.367,88.713 121.324 L 86.111 106.699 86.140 100.817 C 86.206 87.076,92.689 75.651,105.155 67.304 C 107.853 65.497,107.930 65.501,109.613 67.514 M162.092 87.391 L 162.092 92.756 158.415 93.975 C 156.393 94.646,154.555 95.262,154.330 95.344 C 154.013 95.461,153.922 94.202,153.922 89.720 L 153.922 83.946 152.859 84.048 L 151.797 84.150 151.709 90.220 L 151.620 96.290 149.830 96.855 L 148.039 97.419 148.039 101.324 C 148.039 103.472,148.094 105.229,148.162 105.229 C 148.229 105.229,148.909 105.008,149.673 104.739 C 150.437 104.469,151.191 104.248,151.348 104.248 C 151.505 104.248,151.634 106.664,151.634 109.617 L 151.634 114.986 149.837 115.509 L 148.039 116.031 148.039 119.944 C 148.039 122.096,148.094 123.856,148.162 123.856 C 148.229 123.856,148.909 123.636,149.673 123.366 C 150.437 123.096,151.187 122.876,151.339 122.876 C 151.492 122.876,151.657 124.971,151.707 127.533 L 151.797 132.190 152.859 132.292 L 153.922 132.394 153.922 127.172 L 153.922 121.949 156.618 121.080 C 158.100 120.601,159.957 120.004,160.743 119.752 L 162.172 119.293 162.050 124.761 L 161.928 130.229 162.873 130.337 C 164.245 130.493,164.297 130.237,164.123 124.218 L 163.965 118.741 165.724 118.109 L 167.484 117.477 167.576 113.640 C 167.627 111.498,167.537 109.804,167.372 109.804 C 167.209 109.804,166.450 110.025,165.686 110.294 C 164.922 110.564,164.273 110.784,164.245 110.784 C 164.216 110.784,164.198 108.334,164.204 105.339 L 164.216 99.894 165.850 99.348 L 167.484 98.801 167.576 94.989 C 167.678 90.737,167.737 90.828,165.401 91.652 L 164.052 92.128 164.052 87.077 L 164.052 82.026 163.072 82.026 L 162.092 82.026 162.092 87.391 M226.471 94.608 C 226.471 106.373,226.433 107.189,225.899 107.187 C 225.584 107.186,224.444 107.042,223.366 106.867 C 219.089 106.173,210.061 105.156,205.882 104.897 C 203.456 104.747,199.044 104.451,196.078 104.238 C 192.107 103.955,189.997 103.947,188.072 104.210 C 185.838 104.515,178.401 104.922,174.020 104.978 L 172.712 104.995 174.510 105.592 C 175.498 105.920,175.857 106.114,175.307 106.023 C 174.757 105.932,173.948 106.014,173.510 106.206 C 172.742 106.541,172.748 106.548,173.693 106.417 C 174.232 106.343,174.967 106.402,175.327 106.549 C 175.862 106.768,175.785 106.821,174.899 106.840 C 174.304 106.852,173.894 106.987,173.988 107.139 C 174.082 107.291,177.467 107.344,181.511 107.258 L 188.862 107.100 188.720 108.207 C 188.641 108.816,188.424 112.328,188.236 116.013 C 188.049 119.698,187.813 123.535,187.712 124.541 L 187.529 126.370 181.428 126.638 C 178.072 126.785,174.839 126.906,174.242 126.908 C 173.412 126.909,173.284 126.980,173.694 127.210 C 173.989 127.375,174.624 127.419,175.105 127.307 C 175.587 127.196,175.833 127.219,175.654 127.359 C 175.098 127.793,175.287 128.905,175.938 129.030 C 176.273 129.095,176.471 129.023,176.377 128.871 C 176.176 128.547,186.999 128.703,187.284 129.028 C 187.390 129.149,187.253 133.035,186.979 137.663 L 186.482 146.078 180.904 146.083 C 174.705 146.088,173.628 146.223,174.315 146.911 C 174.555 147.151,175.101 147.285,175.529 147.208 C 175.957 147.132,175.773 147.251,175.120 147.473 C 174.087 147.824,174.716 147.883,179.967 147.929 C 183.285 147.959,186.069 148.052,186.153 148.136 C 186.237 148.220,186.125 151.484,185.903 155.390 L 185.500 162.492 180.250 162.279 C 176.944 162.144,174.637 162.189,174.020 162.400 L 173.039 162.735 174.242 162.645 C 174.903 162.595,175.379 162.661,175.299 162.790 C 175.219 162.919,175.413 163.086,175.730 163.160 C 176.048 163.234,175.645 163.234,174.837 163.160 C 173.751 163.061,173.494 163.114,173.856 163.365 C 174.126 163.552,175.780 163.701,177.531 163.696 C 179.283 163.690,181.759 163.788,183.032 163.914 L 185.348 164.142 185.138 168.427 C 184.840 174.498,184.810 174.612,183.546 174.387 C 182.980 174.287,180.972 174.121,179.085 174.018 C 177.198 173.916,175.065 173.777,174.346 173.710 C 173.627 173.644,173.297 173.660,173.611 173.747 C 173.926 173.833,174.183 174.030,174.183 174.183 C 174.183 174.336,173.926 174.529,173.611 174.611 C 173.297 174.694,173.554 174.776,174.183 174.794 C 175.033 174.818,175.201 174.745,174.837 174.510 C 174.567 174.336,174.512 174.191,174.715 174.188 C 174.918 174.185,175.248 174.381,175.449 174.624 C 175.692 174.916,177.004 175.137,179.336 175.279 C 181.272 175.396,183.368 175.640,183.993 175.821 C 184.619 176.001,187.851 176.588,191.176 177.124 C 197.263 178.105,201.251 179.034,203.154 179.915 C 203.720 180.178,204.425 180.392,204.721 180.392 C 205.521 180.392,211.063 182.516,215.605 184.564 L 219.608 186.368 219.608 189.378 L 219.608 192.388 218.031 192.236 C 216.222 192.062,214.464 192.798,212.996 194.345 C 209.921 197.584,213.461 200.449,217.693 198.146 C 220.231 196.765,220.588 195.910,220.588 191.220 C 220.588 189.039,220.681 187.255,220.794 187.255 C 221.163 187.255,224.616 189.296,227.462 191.197 C 244.777 202.761,253.988 218.005,254.051 235.202 C 254.076 241.968,254.699 241.239,247.699 242.640 C 244.561 243.268,241.663 243.860,241.258 243.956 L 240.523 244.130 240.523 255.903 L 240.523 267.675 238.971 269.338 C 235.293 273.279,222.974 282.433,222.413 281.642 C 222.372 281.584,222.081 280.842,221.767 279.993 C 220.566 276.752,216.136 275.190,212.310 276.658 C 211.808 276.851,211.765 276.046,211.765 266.538 L 211.765 256.209 210.297 256.209 L 208.830 256.209 208.745 272.274 L 208.660 288.339 205.882 289.287 C 202.648 290.391,194.002 292.652,191.748 292.983 L 190.196 293.211 190.190 291.785 C 190.173 287.352,188.132 282.584,183.776 276.802 C 180.404 272.325,179.312 270.376,177.299 265.242 C 175.428 260.469,175.470 260.423,178.590 263.832 C 183.609 269.316,187.274 275.084,188.751 279.825 C 189.641 282.682,190.037 281.751,190.010 276.863 C 189.977 270.684,188.869 267.995,183.291 260.549 C 179.541 255.544,178.388 253.107,174.821 242.647 L 172.926 237.092 172.901 266.277 C 172.883 287.411,172.777 295.402,172.516 295.241 C 172.267 295.087,172.271 295.233,172.532 295.719 C 173.034 296.658,172.944 303.593,172.429 303.600 C 172.226 303.603,172.275 303.742,172.540 303.909 C 172.804 304.076,172.935 304.298,172.831 304.402 C 172.541 304.692,171.548 304.219,171.753 303.887 C 171.965 303.544,171.844 303.533,168.627 303.591 C 158.243 303.780,150.263 314.572,157.141 319.125 C 161.298 321.875,169.558 319.092,173.864 313.489 L 174.673 312.436 183.497 312.283 C 188.350 312.199,193.239 312.028,194.363 311.902 L 196.405 311.674 196.405 316.252 L 196.405 320.830 195.180 321.032 C 194.506 321.143,189.718 321.236,184.540 321.238 C 178.347 321.241,175.194 321.354,175.327 321.569 C 175.439 321.751,175.195 321.893,174.774 321.890 C 174.149 321.886,174.104 321.825,174.510 321.533 C 174.917 321.240,174.899 321.213,174.401 321.374 C 174.072 321.481,173.668 321.569,173.503 321.569 C 172.434 321.569,173.474 322.230,174.592 322.261 C 175.895 322.297,175.920 322.315,175.000 322.549 C 174.088 322.781,174.077 322.802,174.837 322.842 C 175.502 322.878,175.563 322.948,175.163 323.224 C 174.823 323.459,177.983 323.532,185.539 323.463 L 196.405 323.364 196.405 327.242 L 196.405 331.120 185.154 330.996 C 178.966 330.928,174.076 330.983,174.288 331.117 C 174.543 331.280,174.479 331.364,174.099 331.368 C 173.398 331.374,173.988 332.550,174.827 332.820 C 175.102 332.909,174.739 332.916,174.020 332.836 C 172.842 332.705,172.793 332.726,173.529 333.055 C 174.052 333.287,178.326 333.477,185.376 333.582 L 196.405 333.744 196.405 335.144 C 196.405 336.542,196.404 336.544,195.490 336.199 C 190.958 334.489,184.596 341.166,188.390 343.652 C 192.277 346.199,197.712 341.937,197.712 336.343 L 197.712 333.775 204.003 333.371 C 232.519 331.538,259.358 324.517,282.392 312.866 L 286.515 310.780 288.660 311.342 C 295.472 313.129,304.240 307.416,305.153 300.595 L 305.392 298.806 309.641 295.428 C 315.216 290.994,325.771 280.386,329.722 275.245 C 331.414 273.043,332.846 271.242,332.903 271.242 C 332.960 271.242,333.007 274.190,333.007 277.793 L 333.007 284.343 331.850 284.126 C 327.424 283.296,322.578 288.788,325.899 290.872 C 327.897 292.127,331.825 290.839,333.305 288.445 C 333.952 287.397,333.987 286.894,333.987 278.501 C 333.987 267.429,334.029 267.279,336.216 270.507 C 337.848 272.914,338.801 274.798,339.730 277.451 L 340.474 279.575 340.499 276.938 C 340.528 273.703,339.996 271.842,338.080 268.490 C 336.283 265.345,336.228 266.105,338.548 262.088 C 341.849 256.375,347.364 242.900,347.382 240.506 C 347.384 240.226,348.251 239.388,349.308 238.642 C 358.384 232.242,364.283 222.577,364.931 213.044 C 365.646 202.546,358.232 193.589,348.706 193.441 C 346.313 193.404,346.090 193.201,344.950 190.014 C 341.986 181.730,336.936 172.482,331.336 165.085 C 329.351 162.463,328.609 162.889,338.562 160.935 C 342.786 160.106,346.573 159.349,346.977 159.254 L 347.712 159.079 347.712 165.686 L 347.712 172.293 346.957 172.104 C 344.742 171.548,341.723 173.735,341.895 175.772 C 342.075 177.917,345.093 178.036,347.330 175.986 L 348.529 174.887 348.623 162.934 C 348.674 156.359,348.594 150.980,348.444 150.980 C 348.171 150.980,329.230 154.739,327.874 155.062 C 327.237 155.214,327.143 155.477,327.057 157.358 L 326.961 159.482 323.737 155.967 C 321.964 154.033,318.916 150.980,316.963 149.183 L 313.413 145.915 313.406 126.552 L 313.399 107.190 312.092 107.190 L 310.784 107.190 310.784 125.327 C 310.784 142.260,310.688 144.304,309.949 143.108 C 309.597 142.538,302.271 137.159,298.209 134.488 C 283.809 125.020,266.722 117.400,248.284 112.225 L 241.503 110.321 241.503 102.383 C 241.503 98.017,241.437 94.444,241.357 94.444 C 241.276 94.444,238.763 95.400,235.772 96.569 C 232.781 97.737,230.200 98.693,230.036 98.693 C 229.865 98.693,229.739 95.154,229.739 90.359 L 229.739 82.026 228.105 82.026 L 226.471 82.026 226.471 94.608 M291.196 103.268 L 291.177 118.137 289.421 118.028 C 285.131 117.760,281.171 122.365,283.868 124.486 C 285.625 125.869,289.091 125.038,291.098 122.752 L 292.157 121.546 292.157 111.550 C 292.157 100.287,292.026 100.686,294.519 104.359 C 296.009 106.553,297.844 110.389,298.217 112.092 L 298.468 113.235 298.752 112.255 C 299.443 109.873,298.381 105.760,296.051 101.797 C 294.340 98.886,293.665 97.176,292.309 92.320 L 291.215 88.399 291.196 103.268 M162.005 106.098 L 161.928 111.543 158.181 112.798 C 156.120 113.488,154.318 114.052,154.178 114.052 C 154.037 114.052,153.922 111.638,153.922 108.687 L 153.922 103.322 157.761 102.014 C 159.873 101.294,161.709 100.694,161.841 100.679 C 161.973 100.665,162.047 103.104,162.005 106.098 M238.105 109.390 C 238.020 109.475,236.139 109.183,233.926 108.741 C 229.907 107.940,229.902 107.937,229.804 106.965 C 229.706 106.001,229.748 105.974,233.889 104.374 L 238.072 102.756 238.165 105.996 C 238.217 107.778,238.190 109.305,238.105 109.390 M206.934 107.809 C 207.178 108.026,206.094 127.348,205.823 127.619 C 205.740 127.703,204.027 127.604,202.019 127.399 L 198.366 127.027 198.373 125.197 C 198.377 124.190,198.594 120.204,198.856 116.340 C 199.118 112.475,199.336 108.833,199.339 108.246 L 199.346 107.178 203.023 107.389 C 205.045 107.504,206.805 107.694,206.934 107.809 M218.622 109.001 C 222.123 109.457,225.322 109.913,225.730 110.016 L 226.471 110.202 226.471 118.173 C 226.471 122.557,226.581 126.143,226.716 126.142 C 226.850 126.141,229.381 125.185,232.339 124.018 C 235.297 122.850,237.834 121.895,237.976 121.895 C 238.119 121.895,238.235 124.707,238.235 128.143 L 238.235 134.390 237.500 134.169 C 237.096 134.048,233.456 133.133,229.412 132.136 C 225.368 131.139,221.166 130.044,220.075 129.704 C 218.984 129.364,217.481 129.085,216.735 129.085 C 215.339 129.085,208.434 128.140,208.205 127.918 C 208.053 127.771,209.128 108.849,209.321 108.256 C 209.470 107.801,209.287 107.787,218.622 109.001 M233.435 111.425 C 238.496 112.467,238.235 112.351,238.235 113.559 C 238.235 114.623,238.211 114.639,234.377 116.138 C 229.346 118.106,229.739 118.268,229.739 114.216 C 229.739 112.328,229.869 110.784,230.029 110.784 C 230.189 110.784,231.722 111.073,233.435 111.425 M244.686 114.079 C 248.589 115.126,257.907 117.985,258.564 118.337 C 259.192 118.673,259.510 142.157,258.887 142.157 C 258.742 142.157,256.794 141.371,254.557 140.410 C 252.320 139.449,248.470 137.941,246.000 137.060 L 241.510 135.458 241.506 124.428 C 241.504 117.374,241.620 113.399,241.826 113.399 C 242.004 113.399,243.291 113.705,244.686 114.079 M264.472 120.473 C 280.251 126.475,295.311 134.991,307.598 144.859 L 310.784 147.418 310.784 159.692 C 310.784 171.253,310.751 171.952,310.212 171.729 C 307.899 170.774,304.658 170.766,301.921 171.709 L 300.518 172.192 295.602 167.379 C 290.230 162.118,285.660 158.333,279.493 154.036 L 275.490 151.246 275.490 149.514 C 275.490 145.768,273.366 141.470,269.142 136.670 C 265.815 132.889,264.692 130.916,261.880 123.911 C 260.172 119.658,259.948 118.954,260.305 118.954 C 260.401 118.954,262.276 119.638,264.472 120.473 M204.845 129.955 C 205.926 130.146,205.931 130.156,205.753 131.659 C 205.654 132.490,205.402 136.405,205.193 140.359 C 204.983 144.314,204.711 147.663,204.588 147.801 C 204.390 148.026,197.399 147.167,197.104 146.882 C 196.987 146.769,197.531 136.846,197.925 131.903 L 198.131 129.329 200.944 129.546 C 202.492 129.665,204.247 129.850,204.845 129.955 M212.274 130.926 C 212.881 131.070,212.934 131.276,212.807 133.026 C 212.669 134.927,212.693 134.992,213.975 136.274 C 216.619 138.918,221.569 137.346,221.569 133.862 C 221.569 132.374,221.171 132.350,228.794 134.303 C 237.762 136.599,238.025 136.691,238.245 137.616 C 238.420 138.351,238.579 138.401,240.866 138.430 C 243.502 138.464,247.438 139.799,255.392 143.357 L 258.987 144.965 259.073 156.972 L 259.158 168.980 257.275 167.763 C 247.794 161.636,238.697 157.377,226.659 153.429 C 221.950 151.885,220.418 151.249,220.239 150.765 C 219.330 148.308,215.650 147.248,213.367 148.786 L 212.259 149.533 209.697 148.978 C 208.289 148.672,207.058 148.343,206.961 148.247 C 206.865 148.150,207.025 144.351,207.316 139.804 C 207.608 135.256,207.846 131.262,207.845 130.926 C 207.843 130.323,209.718 130.323,212.274 130.926 M266.871 141.748 C 269.854 145.047,272.728 148.949,272.410 149.268 C 271.583 150.095,266.961 145.925,265.249 142.807 C 262.211 137.274,262.597 137.022,266.871 141.748 M140.832 144.608 C 140.797 147.843,140.801 153.873,140.842 158.007 L 140.917 165.523 138.817 165.523 C 136.313 165.523,134.310 166.621,133.424 168.479 C 131.864 171.750,135.915 173.310,139.542 170.834 C 141.733 169.338,141.830 168.837,141.830 159.028 L 141.830 150.235 142.983 151.670 C 144.255 153.252,147.056 158.578,147.064 159.429 C 147.067 159.725,147.221 160.188,147.406 160.458 C 147.646 160.807,147.713 160.101,147.638 158.007 C 147.526 154.876,146.688 152.407,144.753 149.510 C 143.768 148.035,142.824 145.578,141.678 141.503 L 140.896 138.725 140.832 144.608 M201.424 149.492 C 203.016 149.750,204.386 150.028,204.467 150.110 C 204.640 150.283,203.756 164.987,203.562 165.160 C 203.490 165.225,201.777 164.972,199.755 164.599 L 196.078 163.921 196.074 162.761 C 196.072 162.123,196.244 158.770,196.456 155.310 L 196.841 149.020 197.685 149.021 C 198.149 149.022,199.832 149.234,201.424 149.492 M266.552 152.858 C 270.648 157.348,273.568 161.861,274.644 165.359 L 274.895 166.176 275.160 165.359 C 276.040 162.647,275.283 157.152,273.636 154.304 C 272.642 152.586,272.839 152.218,274.082 153.473 C 274.587 153.984,275.116 154.365,275.257 154.321 C 276.347 153.980,288.254 163.443,294.391 169.527 L 298.100 173.204 296.004 175.246 C 288.102 182.943,294.645 190.733,305.121 186.100 C 307.284 185.144,307.111 185.061,308.744 187.821 C 323.180 212.217,322.665 241.102,307.376 264.542 L 305.245 267.810 305.237 249.559 L 305.229 231.307 303.840 231.464 C 303.076 231.551,301.068 231.934,299.379 232.314 C 294.755 233.356,295.227 233.907,294.997 227.206 C 294.305 207.027,283.763 188.097,264.988 173.316 L 261.438 170.521 261.438 164.988 C 261.438 158.380,261.089 158.477,266.095 163.701 C 269.957 167.731,272.143 170.805,273.707 174.403 C 275.018 177.419,275.069 177.468,275.349 175.977 C 276.325 170.772,274.587 165.957,269.574 159.982 C 266.466 156.277,265.161 154.313,263.876 151.410 C 262.863 149.120,263.416 149.419,266.552 152.858 M318.665 154.831 C 321.251 157.488,324.212 160.703,325.245 161.975 L 327.124 164.288 327.124 170.386 L 327.124 176.483 326.293 176.274 C 324.292 175.772,321.242 177.880,321.242 179.764 C 321.242 181.568,323.035 182.132,325.383 181.066 C 327.777 179.979,327.919 179.511,328.105 172.101 L 328.268 165.575 330.750 169.144 C 335.266 175.637,339.830 184.161,341.933 190.033 C 342.384 191.291,342.850 192.564,342.968 192.862 C 343.142 193.299,342.818 193.510,341.299 193.952 C 332.287 196.572,327.551 205.400,331.102 212.956 C 333.389 217.821,341.307 218.505,343.632 214.038 C 345.936 209.611,343.709 204.940,338.909 204.131 C 335.194 203.505,334.747 201.736,337.776 199.652 C 341.139 197.338,344.219 197.024,344.761 198.938 C 347.316 207.961,347.966 222.340,346.256 232.026 C 345.673 235.326,340.816 239.651,333.925 243.003 C 331.027 244.413,330.007 247.059,332.361 247.059 C 333.500 247.059,337.873 245.331,341.422 243.479 C 342.725 242.799,343.791 242.360,343.791 242.505 C 343.791 244.579,335.741 262.648,335.102 262.008 C 335.029 261.936,334.539 260.270,334.013 258.307 L 333.056 254.739 333.031 260.219 C 333.003 266.567,333.350 265.659,328.483 272.109 C 323.086 279.262,316.316 286.258,308.987 292.256 L 305.392 295.197 305.306 283.703 L 305.220 272.209 308.157 267.777 C 325.149 242.130,326.183 212.637,310.993 186.828 L 309.167 183.724 310.342 182.467 C 310.989 181.775,311.904 180.400,312.377 179.412 L 313.235 177.614 313.327 163.807 C 313.378 156.213,313.542 150.000,313.691 150.000 C 313.841 150.000,316.079 152.174,318.665 154.831 M209.150 150.817 C 211.325 151.220,211.438 151.298,211.439 152.391 C 211.444 156.580,217.813 158.207,219.881 154.548 C 220.526 153.407,220.535 153.408,226.179 155.240 C 236.814 158.694,247.153 163.608,256.286 169.548 L 259.140 171.405 259.145 176.389 C 259.148 179.130,259.095 181.373,259.027 181.373 C 258.959 181.373,258.335 181.135,257.640 180.845 C 255.089 179.779,250.001 180.774,246.713 182.983 L 245.323 183.917 242.351 181.874 C 236.788 178.051,230.621 174.707,223.938 171.888 L 220.588 170.475 220.588 167.726 C 220.588 164.150,219.821 164.037,219.675 167.592 C 219.622 168.880,219.468 169.935,219.333 169.935 C 219.198 169.935,217.403 169.369,215.344 168.679 C 213.286 167.988,210.315 167.083,208.742 166.668 L 205.882 165.914 205.880 164.411 C 205.877 162.299,206.558 151.234,206.723 150.713 C 206.798 150.476,207.118 150.354,207.433 150.443 C 207.748 150.532,208.521 150.700,209.150 150.817 M347.712 155.189 C 347.712 155.725,330.877 159.477,328.469 159.477 C 324.599 159.477,342.162 154.897,347.141 154.608 C 347.494 154.588,347.712 154.810,347.712 155.189 M203.454 167.071 C 203.626 167.242,202.959 177.859,202.764 178.060 C 202.610 178.219,195.647 176.457,195.375 176.190 C 195.172 175.991,195.655 166.582,195.907 165.807 C 196.020 165.462,203.017 166.633,203.454 167.071 M210.962 168.933 C 213.306 169.641,216.174 170.575,217.334 171.009 L 219.444 171.797 219.533 178.363 L 219.621 184.929 216.592 183.514 C 214.925 182.736,211.604 181.385,209.211 180.511 L 204.860 178.922 205.040 176.307 C 205.657 167.347,205.618 167.647,206.170 167.647 C 206.461 167.647,208.618 168.226,210.962 168.933 M225.209 174.201 C 231.329 176.924,237.668 180.506,242.179 183.789 L 244.044 185.145 243.263 186.118 C 238.184 192.448,244.945 198.751,252.988 195.185 L 254.505 194.512 255.789 195.867 C 261.727 202.136,266.880 211.245,269.128 219.444 C 270.135 223.117,270.138 223.039,268.934 223.538 C 265.165 225.099,265.411 229.607,269.262 229.551 L 270.933 229.527 270.842 233.785 L 270.752 238.043 264.052 239.385 C 260.368 240.124,256.895 240.821,256.336 240.935 L 255.319 241.142 255.478 236.666 C 256.172 217.059,243.663 197.984,222.631 186.578 L 220.588 185.470 220.588 179.010 C 220.588 171.445,220.117 171.935,225.209 174.201 M266.855 177.492 C 281.464 189.964,290.473 205.517,292.632 221.994 C 293.193 226.279,293.309 233.188,292.825 233.488 C 292.547 233.660,273.405 237.582,272.844 237.582 C 272.017 237.582,272.655 228.567,273.549 227.614 C 275.143 225.917,275.163 225.695,275.163 210.085 C 275.163 196.253,275.129 195.383,274.592 195.487 C 274.059 195.589,274.014 196.547,273.934 209.270 C 273.858 221.541,273.796 222.923,273.336 222.746 C 273.053 222.638,272.569 222.549,272.259 222.549 C 271.831 222.549,271.562 221.996,271.144 220.254 C 269.302 212.579,264.673 203.769,258.707 196.588 L 256.279 193.665 258.167 191.807 C 261.129 188.891,261.438 187.745,261.438 179.688 L 261.438 173.125 262.663 174.042 C 263.337 174.547,265.224 176.099,266.855 177.492 M309.817 175.108 C 310.947 176.023,309.583 178.959,307.514 180.067 C 306.944 180.372,302.961 176.015,303.404 175.572 C 304.331 174.645,308.842 174.319,309.817 175.108 M89.225 179.575 C 91.298 189.420,92.800 196.848,92.728 196.899 C 92.684 196.931,91.447 197.589,89.980 198.362 C 76.338 205.553,67.927 220.987,69.274 236.357 C 70.560 251.032,78.268 259.366,92.320 261.276 L 93.954 261.498 91.474 258.935 C 80.722 247.827,79.167 236.192,87.019 225.608 C 89.048 222.874,96.436 217.896,97.253 218.713 C 97.443 218.903,104.851 254.754,106.879 265.298 C 107.847 270.331,108.250 270.013,101.144 269.817 C 79.618 269.224,62.555 257.298,57.959 239.633 C 54.497 226.324,59.333 208.376,70.469 193.209 C 73.124 189.592,87.996 175.049,88.304 175.767 C 88.432 176.064,88.846 177.778,89.225 179.575 M303.052 179.338 L 304.960 181.863 302.969 182.791 C 295.061 186.477,292.134 182.515,299.273 177.786 C 301.162 176.535,300.830 176.399,303.052 179.338 M367.896 198.224 C 364.778 199.916,366.004 204.902,369.539 204.902 C 371.774 204.902,373.184 203.535,373.195 201.356 C 373.210 198.573,370.358 196.888,367.896 198.224 M351.172 200.715 C 356.848 205.946,356.804 218.036,351.075 227.844 C 349.583 230.399,349.435 230.380,349.746 227.675 C 350.528 220.892,349.995 210.105,348.512 202.705 C 348.072 200.509,347.712 198.630,347.712 198.530 C 347.712 198.139,349.824 199.472,351.172 200.715 M305.439 204.238 C 306.388 206.587,306.311 207.263,304.834 209.576 C 303.694 211.360,303.769 211.804,305.553 213.837 L 306.582 215.009 305.778 215.210 C 303.020 215.903,302.786 218.327,305.286 220.307 C 306.743 221.461,307.033 221.406,306.527 220.074 C 305.806 218.178,306.591 217.335,309.085 217.325 L 310.164 217.320 309.369 216.258 C 307.273 213.459,307.078 212.133,308.488 210.271 C 310.020 208.245,309.461 206.807,305.779 203.305 L 304.615 202.198 305.439 204.238 M367.784 215.957 C 364.653 217.924,366.083 222.549,369.821 222.549 C 371.011 222.549,371.475 222.367,372.247 221.594 C 375.174 218.667,371.287 213.757,367.784 215.957 M113.512 217.137 C 119.968 218.372,127.285 223.456,129.576 228.299 C 132.959 235.450,131.325 247.898,125.766 257.332 C 123.070 261.906,114.793 268.920,114.259 267.082 C 114.068 266.425,109.428 242.274,106.709 227.789 C 104.378 215.368,104.230 216.667,107.978 216.667 C 109.669 216.667,112.160 216.878,113.512 217.137 M260.850 225.882 C 259.814 226.918,261.027 228.890,262.467 228.513 C 263.397 228.270,263.891 227.064,263.421 226.185 C 263.005 225.409,261.501 225.231,260.850 225.882 M302.549 244.026 L 302.451 245.894 297.622 246.849 C 292.115 247.939,292.329 247.982,292.840 245.873 C 293.357 243.740,293.223 243.825,297.436 242.965 C 302.921 241.846,302.666 241.793,302.549 244.026 M291.176 244.550 C 291.176 244.905,290.062 247.928,289.842 248.171 C 289.627 248.407,269.297 252.601,269.049 252.461 C 268.990 252.428,270.281 248.682,270.434 248.443 C 270.683 248.054,291.176 244.207,291.176 244.550 M267.641 251.158 C 267.243 252.139,266.890 252.941,266.855 252.941 C 266.821 252.941,263.133 253.676,258.660 254.575 C 254.187 255.474,250.488 256.209,250.441 256.209 C 250.166 256.209,252.358 252.100,252.695 251.983 C 254.207 251.459,268.160 248.868,268.251 249.094 C 268.314 249.249,268.039 250.178,267.641 251.158 M249.639 254.330 C 249.076 255.453,248.567 256.426,248.508 256.491 C 248.339 256.679,244.358 257.492,243.546 257.505 C 242.871 257.515,242.810 257.368,242.810 255.725 C 242.810 254.137,242.894 253.914,243.546 253.759 C 244.481 253.537,250.081 252.364,250.413 252.320 C 250.551 252.302,250.202 253.207,249.639 254.330 M302.614 263.845 L 302.614 271.480 299.563 275.037 C 286.458 290.313,265.939 303.771,244.519 311.142 L 242.797 311.734 242.885 305.302 L 242.974 298.870 246.785 296.902 C 263.461 288.292,277.410 275.938,285.468 262.643 C 286.429 261.059,287.260 259.626,287.316 259.458 C 287.405 259.192,300.521 256.328,302.042 256.242 C 302.572 256.212,302.614 256.778,302.614 263.845 M284.641 259.975 C 284.641 260.898,278.589 269.221,275.024 273.203 C 267.627 281.463,256.243 289.976,245.063 295.606 L 242.810 296.740 242.810 290.263 L 242.810 283.786 245.016 282.172 C 250.940 277.836,256.700 272.189,260.926 266.575 C 261.970 265.187,262.843 264.044,262.866 264.033 C 264.012 263.517,284.641 259.672,284.641 259.975 M259.089 266.236 C 257.276 268.797,250.042 276.068,246.405 278.984 L 242.974 281.734 242.885 274.970 C 242.837 271.249,242.851 268.151,242.917 268.085 C 243.095 267.907,258.531 264.776,259.416 264.738 C 260.155 264.707,260.148 264.738,259.089 266.236 M240.523 276.641 L 240.523 283.347 238.317 284.769 C 232.672 288.411,225.484 291.911,217.878 294.722 C 211.654 297.022,211.205 297.070,214.122 295.119 C 218.384 292.268,221.059 288.865,222.030 285.058 C 222.394 283.633,222.566 283.464,225.420 281.725 C 229.684 279.128,234.351 275.619,237.582 272.579 C 239.109 271.142,240.396 269.959,240.441 269.951 C 240.486 269.942,240.523 272.952,240.523 276.641 M302.532 295.942 C 302.482 295.993,301.585 295.795,300.539 295.504 C 293.655 293.588,283.980 300.335,284.366 306.783 L 284.477 308.640 279.554 311.101 C 257.264 322.242,229.552 329.272,201.552 330.889 L 197.712 331.110 197.712 327.171 L 197.712 323.232 198.775 323.084 C 199.359 323.002,202.263 322.689,205.229 322.388 C 208.194 322.086,213.167 321.411,216.280 320.887 C 219.392 320.363,221.986 319.935,222.045 319.935 C 222.103 319.935,222.239 320.283,222.346 320.708 C 224.084 327.636,239.520 323.611,242.307 315.503 C 242.707 314.341,242.848 314.257,246.932 312.758 C 268.183 304.959,287.418 292.524,299.673 278.660 L 302.451 275.517 302.537 285.684 C 302.585 291.276,302.583 295.892,302.532 295.942 M183.081 284.796 C 185.024 287.385,187.908 292.493,187.908 293.345 C 187.908 293.734,184.051 294.335,179.493 294.656 C 177.831 294.773,176.471 295.003,176.471 295.166 C 176.471 295.330,176.616 295.374,176.794 295.264 C 176.984 295.146,177.030 295.290,176.905 295.614 C 176.714 296.113,176.939 296.144,179.279 295.943 C 182.371 295.677,186.811 295.148,187.813 294.926 C 188.422 294.791,188.596 294.970,188.927 296.078 C 189.380 297.587,189.566 297.545,189.839 295.869 L 190.033 294.673 194.935 293.609 C 197.631 293.024,201.601 291.999,203.758 291.332 C 205.915 290.664,207.937 290.045,208.252 289.956 C 208.774 289.807,208.824 290.137,208.824 293.740 L 208.824 297.687 207.435 298.062 C 200.566 299.913,191.053 301.448,182.912 302.020 C 178.172 302.353,177.450 302.475,177.603 302.918 C 177.725 303.273,177.632 303.242,177.303 302.817 C 177.001 302.428,176.583 302.267,176.159 302.378 C 175.206 302.628,175.111 296.295,176.062 295.928 C 176.607 295.718,176.607 295.692,176.062 295.387 C 175.538 295.092,175.491 294.286,175.503 285.686 L 175.515 276.307 178.229 279.128 C 179.722 280.679,181.905 283.230,183.081 284.796 M216.434 280.093 C 217.433 280.548,218.301 282.020,218.301 283.259 C 218.301 284.277,218.332 284.257,213.154 286.481 L 212.092 286.937 212.092 283.338 L 212.092 279.739 213.874 279.739 C 214.854 279.739,216.006 279.898,216.434 280.093 M217.837 286.960 C 217.138 288.610,215.852 290.208,214.122 291.581 C 212.105 293.182,212.092 293.175,212.092 290.600 L 212.092 288.390 215.114 287.065 C 218.622 285.526,218.443 285.533,217.837 286.960 M240.523 291.685 L 240.523 297.750 238.154 298.829 C 228.005 303.452,211.205 308.048,199.755 309.332 L 197.712 309.562 197.712 306.742 C 197.712 304.139,197.662 303.922,197.059 303.922 C 196.454 303.922,196.405 304.139,196.405 306.821 L 196.405 309.720 194.853 309.920 C 190.675 310.458,175.656 311.107,175.390 310.761 C 175.331 310.684,175.366 308.973,175.468 306.960 C 175.646 303.451,176.067 302.024,176.648 302.963 C 176.800 303.210,176.764 303.286,176.555 303.157 C 176.367 303.040,176.129 303.162,176.027 303.427 C 175.571 304.617,192.626 302.941,202.451 300.830 C 215.352 298.059,230.384 292.099,238.883 286.386 C 239.509 285.965,240.134 285.621,240.272 285.621 C 240.410 285.621,240.523 288.350,240.523 291.685 M240.438 308.690 C 240.381 308.748,239.678 308.565,238.876 308.285 C 233.662 306.461,225.322 310.364,222.731 315.840 C 222.261 316.834,221.770 317.648,221.641 317.648 C 221.511 317.649,219.420 318.005,216.993 318.439 C 212.984 319.156,204.965 320.229,199.755 320.745 L 197.712 320.947 197.712 316.193 C 197.712 312.608,197.813 311.437,198.121 311.436 C 198.975 311.431,207.173 310.127,210.458 309.474 C 218.759 307.821,228.978 304.754,236.547 301.643 L 240.359 300.076 240.451 304.331 C 240.501 306.671,240.496 308.633,240.438 308.690 M196.078 338.518 C 196.078 339.769,193.086 341.936,190.565 342.509 C 187.267 343.259,188.140 340.634,191.830 338.707 C 193.706 337.727,196.078 337.621,196.078 338.518 " stroke="none" fill-rule="evenodd"></path></g></svg>
