<svg id="svg" xmlns="http://www.w3.org/2000/svg" xmlns:xlink="http://www.w3.org/1999/xlink" viewBox="0 0 400 400" version="1.1"><g id="svgg"><path id="path0" d="M134.400 40.957 C 134.400 41.941,133.741 42.400,132.330 42.400 C 131.862 42.400,131.438 42.734,131.316 43.200 C 131.201 43.640,130.848 44.000,130.533 44.000 C 130.217 44.000,129.770 44.540,129.540 45.200 C 129.232 46.084,128.869 46.400,128.161 46.400 L 127.200 46.400 127.200 85.000 L 127.200 123.600 66.237 123.600 L 5.275 123.600 5.495 124.441 C 5.744 125.393,5.060 125.985,3.700 125.994 C 3.169 125.997,2.800 126.246,2.800 126.600 C 2.800 126.930,2.553 127.200,2.251 127.200 C 1.920 127.200,1.601 127.835,1.446 128.800 C 1.281 129.835,0.980 130.400,0.595 130.400 C 0.070 130.400,0.000 143.415,0.000 241.600 C 0.000 337.101,0.080 352.800,0.565 352.800 C 0.910 352.800,1.232 353.408,1.393 354.361 C 1.574 355.430,1.900 355.985,2.429 356.123 C 2.853 356.234,3.200 356.612,3.200 356.963 C 3.200 357.355,3.545 357.602,4.100 357.605 C 5.959 357.617,6.800 358.065,6.800 359.047 L 6.800 360.000 200.000 360.000 L 393.200 360.000 393.200 359.047 C 393.200 358.065,394.041 357.617,395.900 357.605 C 396.455 357.602,396.800 357.355,396.800 356.963 C 396.800 356.612,397.136 356.237,397.546 356.130 C 397.992 356.013,398.482 355.303,398.763 354.367 C 399.021 353.505,399.405 352.800,399.616 352.800 C 399.860 352.800,400.000 320.819,400.000 265.000 C 400.000 187.222,399.932 177.200,399.400 177.200 C 398.978 177.200,398.800 176.774,398.800 175.763 C 398.800 174.644,398.616 174.277,397.969 174.108 C 397.512 173.988,396.977 173.465,396.779 172.945 L 396.420 172.000 334.634 172.000 C 297.960 172.000,272.756 171.852,272.622 171.636 C 271.575 169.942,269.222 170.009,333.742 169.900 L 394.600 169.797 333.700 169.699 L 272.800 169.600 272.800 108.200 L 272.800 46.800 271.843 46.800 C 271.144 46.800,270.816 46.517,270.623 45.749 C 270.312 44.511,268.321 42.400,267.463 42.400 C 266.257 42.400,265.600 41.891,265.600 40.957 L 265.600 40.000 200.000 40.000 L 134.400 40.000 134.400 40.957 M255.200 200.000 L 255.200 342.400 200.000 342.400 L 144.800 342.400 144.800 200.000 L 144.800 57.600 200.000 57.600 L 255.200 57.600 255.200 200.000 M160.094 68.702 C 159.822 68.793,159.600 69.302,159.600 69.833 C 159.600 70.432,159.368 70.800,158.991 70.800 C 158.657 70.800,158.171 71.264,157.913 71.832 C 157.559 72.609,157.216 72.820,156.521 72.687 C 155.610 72.513,155.600 72.553,155.600 76.455 L 155.600 80.400 156.637 80.400 C 157.338 80.400,157.743 80.659,157.884 81.200 C 157.999 81.640,158.332 82.000,158.625 82.000 C 158.917 82.000,159.391 82.458,159.678 83.017 L 160.200 84.034 185.100 84.117 C 208.453 84.195,210.000 84.157,210.000 83.509 C 210.000 83.129,210.431 82.536,210.958 82.191 C 211.485 81.845,212.008 81.211,212.121 80.781 C 212.250 80.287,212.669 80.000,213.263 80.000 C 214.174 80.000,214.200 79.902,214.218 76.448 C 214.235 73.108,214.192 72.923,213.506 73.348 C 212.691 73.853,212.017 73.198,212.006 71.890 C 212.003 71.500,211.550 71.009,211.000 70.800 C 210.282 70.527,210.000 70.122,210.000 69.363 C 210.000 68.436,209.890 68.347,209.100 68.637 C 207.877 69.087,164.232 69.314,162.204 68.882 C 161.315 68.692,160.366 68.611,160.094 68.702 M240.800 68.870 C 239.810 69.081,236.705 69.164,233.900 69.056 C 229.063 68.868,228.800 68.898,228.800 69.629 C 228.800 70.137,228.523 70.400,227.987 70.400 C 227.541 70.400,227.057 70.715,226.912 71.100 C 226.768 71.485,226.423 71.980,226.145 72.200 C 225.824 72.454,225.585 73.985,225.487 76.400 C 225.403 78.490,225.193 80.605,225.020 81.100 C 224.750 81.877,224.843 82.000,225.704 82.000 C 226.818 82.000,227.792 82.921,227.496 83.695 C 227.344 84.092,229.091 84.200,235.651 84.200 C 243.751 84.200,244.000 84.176,244.000 83.395 C 244.000 82.943,244.395 82.416,244.900 82.195 C 245.562 81.905,245.833 81.403,245.924 80.300 C 246.031 79.010,246.185 78.800,247.024 78.800 C 248.628 78.800,248.515 74.513,246.906 74.327 C 245.885 74.209,245.820 74.088,245.934 72.532 C 246.043 71.048,245.954 70.849,245.128 70.732 C 244.409 70.630,244.204 70.352,244.216 69.500 C 244.233 68.270,243.908 68.210,240.800 68.870 M127.200 241.800 L 127.200 342.400 72.000 342.400 L 16.800 342.400 16.800 241.800 L 16.800 141.200 72.000 141.200 L 127.200 141.200 127.200 241.800 M202.700 161.096 C 200.736 161.219,200.400 161.354,200.400 162.020 C 200.400 162.676,200.118 162.800,198.628 162.800 C 197.095 162.800,196.838 162.921,196.728 163.700 C 196.637 164.341,196.341 164.591,195.700 164.568 C 195.015 164.544,194.800 164.759,194.800 165.468 C 194.800 166.133,194.571 166.400,194.000 166.400 C 193.404 166.400,193.200 166.667,193.200 167.447 C 193.200 168.347,193.061 168.467,192.200 168.302 C 191.362 168.142,191.200 168.264,191.200 169.055 C 191.200 169.733,190.974 170.000,190.400 170.000 C 189.867 170.000,189.600 170.267,189.600 170.800 C 189.600 171.397,189.333 171.600,188.548 171.600 C 187.554 171.600,187.509 171.684,187.743 173.100 C 187.880 173.925,187.993 175.802,187.996 177.272 C 188.000 179.737,188.070 179.954,188.900 180.072 C 189.632 180.176,189.777 180.416,189.676 181.356 C 189.555 182.487,189.585 182.507,191.076 182.261 C 191.914 182.122,193.365 182.007,194.300 182.004 C 195.739 182.001,196.000 181.876,196.000 181.190 C 196.000 180.358,197.729 179.385,198.434 179.821 C 198.649 179.954,198.800 190.555,198.800 205.597 C 198.800 230.795,198.811 231.150,199.600 231.400 C 200.111 231.562,200.400 232.005,200.400 232.627 C 200.400 234.086,206.265 234.156,206.472 232.700 C 206.560 232.082,206.913 231.763,207.600 231.683 L 208.600 231.566 208.600 197.398 C 208.600 163.534,208.593 163.228,207.800 163.115 C 207.261 163.037,206.959 162.641,206.873 161.900 C 206.775 161.045,206.552 160.817,205.873 160.876 C 205.393 160.917,203.965 161.016,202.700 161.096 M383.360 187.900 C 383.338 188.175,383.293 223.050,383.260 265.400 L 383.200 342.400 328.002 342.400 L 272.804 342.400 272.702 264.967 C 272.646 222.378,272.676 187.458,272.768 187.365 C 273.244 186.889,383.398 187.422,383.360 187.900 M64.400 199.949 C 64.070 200.087,63.800 200.650,63.800 201.200 C 63.800 202.126,63.674 202.192,62.109 202.094 C 60.618 202.000,60.390 202.101,60.178 202.944 C 60.046 203.469,59.502 204.098,58.969 204.341 C 58.436 204.584,58.000 204.978,58.000 205.216 C 58.000 205.503,57.391 205.558,56.200 205.379 L 54.400 205.109 54.400 207.155 C 54.400 208.662,54.249 209.200,53.828 209.200 C 53.513 209.200,53.198 209.605,53.128 210.100 C 53.036 210.750,52.688 211.036,51.876 211.129 C 50.821 211.250,50.760 211.360,50.876 212.929 C 50.993 214.504,50.934 214.608,49.859 214.731 C 48.845 214.847,48.747 214.979,48.973 215.931 C 49.112 216.519,49.335 219.115,49.468 221.700 C 49.641 225.056,49.852 226.400,50.208 226.400 C 50.482 226.400,50.801 226.760,50.916 227.200 C 51.252 228.484,57.085 228.408,57.272 227.116 C 57.352 226.566,57.767 226.147,58.374 226.005 C 59.308 225.785,59.349 225.639,59.374 222.388 C 59.399 219.144,59.440 218.994,60.341 218.867 C 61.152 218.752,61.255 218.560,61.088 217.467 C 60.785 215.487,64.502 211.937,66.532 212.266 C 67.846 212.480,67.946 212.420,68.069 211.347 L 68.200 210.200 72.000 210.258 L 75.800 210.315 75.931 211.398 C 76.055 212.435,76.135 212.471,77.779 212.224 C 79.288 211.998,79.524 212.066,79.711 212.783 C 79.829 213.232,80.183 213.600,80.498 213.600 C 80.814 213.600,81.277 214.050,81.527 214.600 C 81.778 215.150,82.280 215.600,82.643 215.600 C 83.186 215.600,83.258 215.877,83.051 217.173 C 82.813 218.662,82.858 218.754,83.890 218.873 L 84.980 219.000 84.921 223.000 C 84.889 225.200,84.848 227.225,84.831 227.500 C 84.814 227.775,84.355 228.000,83.810 228.000 C 82.925 228.000,82.845 228.126,83.058 229.192 C 83.263 230.213,83.147 230.440,82.248 230.782 C 81.672 231.001,81.200 231.455,81.200 231.790 C 81.200 232.126,80.926 232.400,80.590 232.400 C 80.255 232.400,79.809 232.850,79.600 233.400 C 79.391 233.950,78.966 234.400,78.657 234.400 C 78.347 234.400,77.993 234.785,77.869 235.256 C 77.678 235.989,77.441 236.079,76.221 235.881 C 74.871 235.662,74.810 235.700,75.042 236.625 C 75.262 237.501,75.161 237.600,74.051 237.600 C 73.058 237.600,72.765 237.802,72.558 238.627 C 72.322 239.567,72.172 239.632,70.779 239.397 C 69.336 239.153,69.252 239.197,69.129 240.270 C 68.995 241.448,68.709 241.534,66.700 241.004 C 65.705 240.741,65.600 240.814,65.600 241.767 C 65.600 242.522,65.317 242.927,64.600 243.200 C 64.050 243.409,63.600 243.872,63.600 244.228 C 63.600 244.772,63.264 244.838,61.500 244.643 C 60.345 244.515,59.670 244.525,60.000 244.665 C 60.632 244.934,61.184 245.596,61.194 246.100 C 61.197 246.265,60.480 246.400,59.600 246.400 C 58.160 246.400,58.000 246.500,58.000 247.400 C 58.000 248.029,57.774 248.400,57.390 248.400 C 57.055 248.400,56.609 248.850,56.400 249.400 C 56.191 249.950,55.766 250.400,55.457 250.400 C 55.147 250.400,54.803 250.745,54.693 251.166 C 54.582 251.589,54.068 251.992,53.546 252.066 C 52.695 252.187,52.613 252.371,52.734 253.900 C 52.852 255.385,52.766 255.600,52.057 255.600 C 51.389 255.600,51.224 255.899,51.123 257.300 C 51.023 258.683,50.841 259.023,50.146 259.122 C 49.316 259.240,49.297 259.384,49.441 264.522 C 49.523 267.425,49.592 269.914,49.595 270.053 C 49.598 270.193,49.960 270.401,50.400 270.516 C 50.913 270.650,51.200 271.062,51.200 271.663 L 51.200 272.600 72.000 272.600 L 92.800 272.600 92.800 271.687 C 92.800 271.106,93.127 270.652,93.700 270.439 C 94.488 270.146,94.604 269.811,94.632 267.752 C 94.650 266.458,94.802 264.770,94.969 264.000 L 95.273 262.600 78.136 262.600 L 61.000 262.600 61.000 261.400 C 61.000 260.460,61.195 260.172,61.900 260.072 C 62.478 259.990,62.800 259.668,62.800 259.172 C 62.800 258.667,63.076 258.400,63.600 258.400 C 64.124 258.400,64.400 258.133,64.400 257.627 C 64.400 257.202,64.741 256.746,65.157 256.614 C 65.573 256.482,66.010 256.006,66.127 255.557 C 66.245 255.108,66.704 254.646,67.149 254.529 C 67.593 254.413,68.015 254.021,68.085 253.659 C 68.178 253.179,68.644 253.000,69.806 253.000 C 71.165 253.000,71.419 252.864,71.530 252.080 C 71.651 251.233,71.799 251.181,73.400 251.421 C 75.087 251.674,75.143 251.647,75.269 250.541 C 75.385 249.532,75.551 249.407,76.700 249.459 C 77.726 249.506,78.000 249.360,78.000 248.767 C 78.000 248.293,78.381 247.920,79.029 247.757 C 79.595 247.615,80.221 247.071,80.419 246.549 C 80.635 245.982,81.106 245.600,81.590 245.600 C 82.043 245.600,82.400 245.336,82.400 245.000 C 82.400 244.558,82.861 244.400,84.145 244.400 C 85.790 244.400,85.878 244.343,85.698 243.400 C 85.533 242.539,85.653 242.400,86.553 242.400 C 87.313 242.400,87.600 242.193,87.600 241.643 C 87.600 241.170,87.974 240.793,88.600 240.636 C 89.345 240.449,89.600 240.120,89.600 239.349 C 89.600 238.431,89.719 238.343,90.648 238.576 C 91.684 238.836,91.694 238.819,91.439 237.119 C 91.209 235.587,91.280 235.354,92.090 234.999 C 92.762 234.704,93.032 234.208,93.124 233.100 C 93.231 231.804,93.383 231.600,94.238 231.600 C 95.204 231.600,95.220 231.550,94.922 229.500 C 94.513 226.690,94.519 219.501,94.933 216.930 C 95.266 214.863,95.265 214.859,94.133 214.730 C 93.099 214.611,93.000 214.460,93.000 213.000 C 93.000 211.622,92.869 211.381,92.053 211.266 C 91.155 211.139,91.120 211.026,91.378 209.066 C 91.596 207.404,91.551 207.098,91.145 207.500 C 90.265 208.371,89.600 208.070,89.600 206.800 C 89.600 205.695,89.489 205.600,88.200 205.600 C 86.663 205.600,86.119 204.250,87.500 203.862 C 87.885 203.755,87.270 203.763,86.134 203.880 C 84.193 204.081,84.060 204.037,83.934 203.147 C 83.819 202.331,83.578 202.200,82.200 202.200 C 80.743 202.200,80.588 202.099,80.471 201.075 L 80.342 199.950 78.071 200.264 C 74.987 200.690,66.083 200.563,65.484 200.085 C 65.218 199.873,64.730 199.812,64.400 199.949 M52.432 208.100 C 52.453 208.701,52.539 208.801,52.692 208.400 C 52.817 208.070,53.118 207.668,53.360 207.506 C 53.631 207.325,53.532 207.210,53.100 207.206 C 52.630 207.202,52.410 207.495,52.432 208.100 M321.519 227.978 C 321.394 229.052,321.342 229.062,318.400 228.609 C 317.630 228.491,317.270 228.530,317.600 228.697 C 318.837 229.322,318.530 230.400,317.115 230.400 L 315.795 230.400 315.797 235.546 L 315.800 240.692 319.419 240.646 C 322.763 240.603,323.037 240.539,323.019 239.800 C 323.005 239.215,323.301 238.965,324.121 238.871 C 324.872 238.785,325.363 238.422,325.611 237.771 C 326.116 236.444,329.942 236.292,330.281 237.587 C 330.394 238.019,330.827 238.482,331.243 238.614 C 331.659 238.746,332.000 239.219,332.000 239.664 C 332.000 240.124,332.329 240.561,332.760 240.674 C 334.286 241.073,334.103 243.600,332.549 243.600 C 331.646 243.600,331.585 243.713,331.818 244.954 C 332.099 246.455,331.593 247.060,330.546 246.474 C 329.490 245.883,328.400 246.377,328.400 247.447 C 328.400 248.357,328.278 248.400,325.696 248.400 L 322.991 248.400 322.991 252.383 C 322.991 256.338,322.998 256.366,323.996 256.483 C 324.791 256.576,324.997 256.822,324.987 257.663 L 324.974 258.726 329.487 258.503 L 334.000 258.281 334.000 259.393 C 334.000 260.458,334.067 260.496,335.586 260.293 C 336.901 260.116,337.213 260.210,337.413 260.840 C 337.545 261.258,337.828 261.600,338.040 261.600 C 338.967 261.600,341.067 264.239,340.761 265.020 C 340.181 266.504,340.355 267.032,341.420 267.016 L 342.440 267.000 342.520 273.680 C 342.594 279.846,342.544 280.374,341.870 280.550 C 341.469 280.655,341.043 281.114,340.924 281.570 C 340.796 282.057,340.380 282.400,339.916 282.400 C 339.462 282.400,339.036 282.740,338.916 283.200 C 338.801 283.640,338.458 284.000,338.153 284.000 C 337.849 284.000,337.600 284.347,337.600 284.772 C 337.600 285.268,337.278 285.590,336.700 285.672 C 336.115 285.755,335.754 286.122,335.670 286.720 C 335.549 287.570,335.404 287.620,333.770 287.375 C 332.146 287.131,332.000 287.180,332.000 287.964 C 332.000 289.066,330.612 289.600,327.748 289.600 C 325.156 289.600,324.000 289.088,324.000 287.941 C 324.000 287.182,323.843 287.133,322.200 287.379 C 320.465 287.639,320.400 287.612,320.400 286.625 C 320.400 285.798,320.206 285.600,319.400 285.600 C 318.321 285.600,317.945 284.274,318.900 283.838 C 319.175 283.713,318.455 283.715,317.300 283.843 C 315.221 284.073,313.992 282.554,315.700 281.865 C 315.975 281.754,314.760 281.663,313.000 281.663 C 311.240 281.663,310.025 281.754,310.300 281.865 C 311.093 282.185,310.902 283.914,310.043 284.186 C 309.627 284.318,309.194 284.781,309.081 285.213 C 308.943 285.740,308.533 286.000,307.837 286.000 C 306.386 286.000,306.236 289.062,307.676 289.272 C 308.282 289.361,308.656 289.801,308.888 290.700 C 309.086 291.470,309.478 292.000,309.849 292.000 C 310.193 292.000,310.567 292.354,310.681 292.787 C 310.794 293.219,311.227 293.682,311.643 293.814 C 312.099 293.958,312.400 294.423,312.400 294.980 C 312.400 295.930,313.783 296.675,314.223 295.962 C 314.679 295.225,315.943 295.593,316.072 296.500 C 316.179 297.254,316.459 297.406,317.800 297.437 C 320.771 297.507,320.833 297.530,320.589 298.500 L 320.363 299.400 327.782 299.400 C 335.088 299.400,335.200 299.387,335.200 298.547 C 335.200 297.519,336.185 297.194,338.398 297.491 C 339.930 297.696,340.000 297.658,340.000 296.607 C 340.000 295.532,340.038 295.515,341.800 295.779 C 343.535 296.039,343.600 296.012,343.600 295.025 C 343.600 294.354,343.820 294.000,344.237 294.000 C 344.588 294.000,344.973 293.626,345.092 293.169 C 345.212 292.712,345.735 292.177,346.255 291.979 C 346.775 291.782,347.200 291.365,347.200 291.053 C 347.200 290.742,347.650 290.374,348.200 290.236 C 348.987 290.038,349.200 289.731,349.200 288.792 C 349.200 287.867,349.379 287.600,350.000 287.600 C 350.440 287.600,350.800 287.810,350.800 288.067 C 350.800 288.323,350.903 288.430,351.029 288.304 C 351.155 288.178,351.082 287.436,350.866 286.656 C 350.451 285.151,350.945 284.252,352.058 284.486 C 352.474 284.573,352.571 284.087,352.476 282.400 C 352.297 279.217,352.672 277.600,353.589 277.600 C 354.003 277.600,354.424 277.915,354.524 278.300 C 354.625 278.685,354.714 276.570,354.722 273.600 C 354.730 270.630,354.646 268.425,354.535 268.700 C 353.597 271.025,352.169 268.312,352.584 264.993 C 352.856 262.809,352.853 262.800,351.776 262.800 C 350.783 262.800,350.711 262.695,350.894 261.500 C 351.156 259.791,350.908 259.200,349.929 259.200 C 349.462 259.200,349.038 258.865,348.916 258.400 C 348.801 257.960,348.453 257.600,348.143 257.600 C 347.834 257.600,347.409 257.150,347.200 256.600 C 346.991 256.050,346.557 255.600,346.237 255.600 C 345.916 255.600,345.540 255.240,345.400 254.800 C 345.260 254.360,344.909 254.000,344.619 254.000 C 344.329 254.000,343.797 253.550,343.437 253.000 C 343.076 252.450,342.540 252.000,342.246 252.000 C 341.152 252.000,341.766 247.821,342.880 247.682 C 344.319 247.502,344.387 237.600,342.949 237.600 C 342.239 237.600,342.020 237.300,341.807 236.039 C 341.622 234.946,341.303 234.416,340.742 234.269 C 340.035 234.084,339.974 233.847,340.216 232.230 L 340.491 230.400 338.645 230.400 C 337.403 230.400,336.800 230.231,336.800 229.883 C 336.800 229.598,336.215 229.193,335.500 228.983 C 334.671 228.739,334.158 228.310,334.085 227.800 C 333.976 227.041,333.657 226.999,327.804 226.978 L 321.638 226.955 321.519 227.978 M313.720 235.600 C 313.720 236.810,313.795 237.305,313.887 236.700 C 313.978 236.095,313.978 235.105,313.887 234.500 C 313.795 233.895,313.720 234.390,313.720 235.600 M233.700 340.694 C 234.745 340.776,236.455 340.776,237.500 340.694 C 238.545 340.612,237.690 340.544,235.600 340.544 C 233.510 340.544,232.655 340.612,233.700 340.694 M245.305 340.687 C 245.914 340.779,246.814 340.777,247.305 340.682 C 247.797 340.587,247.300 340.511,246.200 340.514 C 245.100 340.517,244.697 340.595,245.305 340.687 M319.100 340.698 C 321.135 340.771,324.465 340.771,326.500 340.698 C 328.535 340.625,326.870 340.566,322.800 340.566 C 318.730 340.566,317.065 340.625,319.100 340.698 M360.905 340.687 C 361.514 340.779,362.414 340.777,362.905 340.682 C 363.397 340.587,362.900 340.511,361.800 340.514 C 360.700 340.517,360.297 340.595,360.905 340.687 " stroke="none" fill-rule="evenodd"></path><path id="path1" d="M130.800 41.000 C 130.800 41.722,130.585 42.000,130.027 42.000 C 129.602 42.000,129.146 42.341,129.014 42.757 C 128.882 43.173,128.419 43.606,127.987 43.719 C 127.418 43.868,127.200 44.268,127.200 45.163 C 127.200 46.930,128.927 46.958,129.540 45.200 C 129.770 44.540,130.217 44.000,130.533 44.000 C 130.848 44.000,131.201 43.640,131.316 43.200 C 131.438 42.734,131.862 42.400,132.330 42.400 C 133.741 42.400,134.400 41.941,134.400 40.957 C 134.400 40.089,134.232 40.000,132.600 40.000 C 130.947 40.000,130.800 40.081,130.800 41.000 M265.600 40.957 C 265.600 41.891,266.257 42.400,267.463 42.400 C 268.321 42.400,270.312 44.511,270.623 45.749 C 271.096 47.632,272.800 47.203,272.800 45.200 C 272.800 43.885,272.662 43.600,272.027 43.600 C 271.602 43.600,271.140 43.240,271.000 42.800 C 270.860 42.360,270.398 42.000,269.973 42.000 C 269.415 42.000,269.200 41.722,269.200 41.000 C 269.200 40.081,269.053 40.000,267.400 40.000 C 265.768 40.000,265.600 40.089,265.600 40.957 M144.800 58.600 L 144.800 59.600 200.000 59.600 L 255.200 59.600 255.200 58.600 L 255.200 57.600 200.000 57.600 L 144.800 57.600 144.800 58.600 M159.716 67.536 C 159.322 67.941,158.668 68.392,158.262 68.538 C 157.856 68.684,157.430 69.163,157.315 69.602 C 157.197 70.055,156.770 70.400,156.327 70.400 C 155.712 70.400,155.574 70.633,155.673 71.500 C 155.848 73.015,157.281 73.218,157.919 71.818 C 158.174 71.258,158.657 70.800,158.991 70.800 C 159.368 70.800,159.600 70.432,159.600 69.833 C 159.600 68.637,160.137 68.441,162.204 68.882 C 164.232 69.314,207.877 69.087,209.100 68.637 C 209.890 68.347,210.000 68.436,210.000 69.363 C 210.000 70.105,210.281 70.527,210.944 70.779 C 211.550 71.009,211.975 71.577,212.134 72.369 C 212.269 73.046,212.632 73.600,212.941 73.600 C 214.542 73.600,214.898 70.699,213.325 70.475 C 212.781 70.398,212.402 70.021,212.325 69.479 C 212.256 69.000,211.869 68.545,211.464 68.468 C 211.059 68.391,210.384 67.984,209.964 67.564 C 208.795 66.395,160.850 66.369,159.716 67.536 M228.667 67.067 C 228.520 67.213,228.400 67.624,228.400 67.979 C 228.400 68.394,228.010 68.658,227.311 68.716 C 225.986 68.825,225.309 69.474,225.133 70.800 C 225.054 71.390,224.672 71.889,224.200 72.017 C 223.473 72.215,223.390 72.625,223.286 76.517 L 223.173 80.800 224.144 80.800 C 225.421 80.800,225.600 80.208,225.600 75.987 C 225.600 73.469,225.754 72.347,226.130 72.120 C 226.422 71.944,226.776 71.485,226.918 71.100 C 227.059 70.715,227.541 70.400,227.987 70.400 C 228.495 70.400,228.800 70.137,228.800 69.700 C 228.800 69.062,229.380 69.000,235.379 69.000 C 242.124 69.000,243.182 68.772,242.666 67.427 C 242.415 66.774,229.297 66.436,228.667 67.067 M244.156 68.970 C 243.784 69.939,244.284 70.800,245.218 70.800 C 245.963 70.800,246.047 70.998,245.936 72.500 C 245.820 74.091,245.882 74.208,246.906 74.327 C 248.290 74.487,248.649 70.895,247.284 70.538 C 246.891 70.435,246.396 69.958,246.184 69.478 C 245.716 68.414,244.487 68.107,244.156 68.970 M154.267 74.267 C 153.545 74.988,153.994 78.800,154.800 78.800 C 155.511 78.800,155.600 78.533,155.600 76.400 C 155.600 74.116,155.145 73.388,154.267 74.267 M214.174 74.925 C 213.736 76.066,214.168 78.600,214.800 78.600 C 215.252 78.600,215.400 78.115,215.400 76.633 C 215.400 74.696,214.658 73.663,214.174 74.925 M245.924 80.300 C 245.833 81.403,245.562 81.905,244.900 82.195 C 243.610 82.761,243.664 84.400,244.973 84.400 C 245.595 84.400,246.038 84.111,246.200 83.600 C 246.340 83.159,246.802 82.613,247.227 82.386 C 248.492 81.709,248.327 78.800,247.024 78.800 C 246.185 78.800,246.031 79.010,245.924 80.300 M212.121 80.781 C 212.008 81.211,211.485 81.845,210.958 82.191 C 210.431 82.536,210.000 83.129,210.000 83.509 C 210.000 84.157,208.453 84.195,185.100 84.117 L 160.200 84.034 159.678 83.017 C 159.391 82.458,158.917 82.000,158.625 82.000 C 158.332 82.000,157.999 81.640,157.884 81.200 C 157.556 79.946,155.600 80.094,155.600 81.373 C 155.600 81.986,155.888 82.438,156.380 82.594 C 156.808 82.730,157.270 83.192,157.406 83.620 C 157.543 84.049,157.990 84.400,158.400 84.400 C 158.810 84.400,159.254 84.741,159.386 85.157 C 159.770 86.366,160.241 86.389,184.874 86.395 C 208.319 86.400,210.400 86.287,210.400 85.010 C 210.400 84.626,210.771 84.400,211.400 84.400 C 212.088 84.400,212.400 84.180,212.400 83.695 C 212.400 83.307,212.805 82.812,213.300 82.595 C 214.713 81.975,214.781 80.000,213.389 80.000 C 212.670 80.000,212.259 80.253,212.121 80.781 M225.142 82.855 C 225.613 84.127,226.643 84.717,227.280 84.080 C 227.995 83.365,227.196 82.233,225.863 82.074 C 224.916 81.961,224.841 82.042,225.142 82.855 M228.543 84.605 C 227.942 86.170,229.015 86.424,235.714 86.310 C 242.317 86.197,244.324 85.622,242.400 84.395 C 241.321 83.707,228.815 83.897,228.543 84.605 M3.085 123.848 C 2.928 124.005,2.800 124.483,2.800 124.909 C 2.800 125.435,2.606 125.611,2.200 125.455 C 1.864 125.326,1.600 125.445,1.600 125.724 C 1.600 125.999,1.240 126.483,0.800 126.800 C -0.195 127.517,-0.359 130.400,0.595 130.400 C 0.980 130.400,1.281 129.835,1.446 128.800 C 1.601 127.835,1.920 127.200,2.251 127.200 C 2.553 127.200,2.800 126.930,2.800 126.600 C 2.800 126.246,3.169 125.997,3.700 125.994 C 4.985 125.985,5.701 125.423,5.536 124.552 C 5.391 123.791,3.644 123.289,3.085 123.848 M200.163 160.200 C 199.803 160.750,199.142 161.200,198.694 161.200 C 197.845 161.200,195.200 163.629,195.200 164.410 C 195.200 165.250,196.599 164.596,196.728 163.696 C 196.838 162.922,197.097 162.800,198.628 162.800 C 200.118 162.800,200.400 162.676,200.400 162.020 C 200.400 161.351,200.727 161.223,202.700 161.120 C 204.737 161.014,205.015 160.897,205.128 160.100 C 205.332 158.665,201.113 158.750,200.163 160.200 M206.873 161.900 C 207.048 163.419,208.800 163.756,208.800 162.271 C 208.800 161.372,208.155 160.800,207.141 160.800 C 206.924 160.800,206.804 161.295,206.873 161.900 M208.650 165.650 C 208.513 166.338,208.400 180.625,208.400 197.400 C 208.400 231.493,208.403 231.540,210.171 229.771 C 211.130 228.813,211.130 165.987,210.171 165.029 C 209.257 164.114,208.931 164.247,208.650 165.650 M193.507 165.600 C 193.232 166.040,192.787 166.400,192.518 166.400 C 191.938 166.400,191.117 167.783,191.481 168.147 C 192.149 168.816,193.200 168.359,193.200 167.400 C 193.200 166.667,193.413 166.400,194.000 166.400 C 194.533 166.400,194.800 166.133,194.800 165.600 C 194.800 165.160,194.622 164.800,194.403 164.800 C 194.185 164.800,193.782 165.160,193.507 165.600 M189.726 169.163 C 189.616 169.583,189.183 170.016,188.763 170.126 C 187.741 170.393,187.772 171.600,188.800 171.600 C 189.333 171.600,189.600 171.333,189.600 170.800 C 189.600 170.267,189.867 170.000,190.400 170.000 C 190.933 170.000,191.200 169.733,191.200 169.200 C 191.200 168.172,189.993 168.141,189.726 169.163 M272.641 170.636 C 272.507 170.986,272.499 171.436,272.622 171.636 C 272.756 171.852,297.960 172.000,334.634 172.000 L 396.420 172.000 396.779 172.945 C 396.977 173.465,397.512 173.988,397.969 174.108 C 398.616 174.277,398.800 174.644,398.800 175.763 C 398.800 176.774,398.978 177.200,399.400 177.200 C 399.853 177.200,400.000 176.711,400.000 175.200 C 400.000 174.100,399.841 173.200,399.647 173.200 C 399.452 173.200,399.199 172.840,399.084 172.400 C 398.959 171.921,398.538 171.600,398.037 171.600 C 397.467 171.600,397.200 171.345,397.200 170.800 C 397.200 169.679,273.071 169.516,272.641 170.636 M186.500 173.467 C 185.559 173.843,185.831 180.031,186.800 180.284 C 187.240 180.399,187.600 180.820,187.600 181.220 C 187.600 181.869,189.016 182.718,189.422 182.312 C 190.053 181.680,189.716 180.191,188.916 180.076 C 188.098 179.958,188.023 179.705,187.916 176.706 C 187.804 173.577,187.569 173.039,186.500 173.467 M196.900 180.014 C 196.391 180.218,196.000 180.718,196.000 181.167 C 196.000 181.852,195.686 181.976,193.700 182.080 C 191.707 182.184,191.400 182.307,191.400 183.000 C 191.400 184.126,195.026 184.125,195.850 182.999 C 196.311 182.369,196.410 186.028,196.497 207.028 L 196.600 231.800 197.500 231.928 C 198.078 232.010,198.400 232.332,198.400 232.828 C 198.400 233.385,198.679 233.600,199.400 233.600 C 200.687 233.600,200.853 231.798,199.603 231.401 C 198.819 231.152,198.804 230.719,198.703 205.507 C 198.636 188.839,198.460 179.829,198.200 179.760 C 197.980 179.701,197.395 179.816,196.900 180.014 M272.710 187.423 C 272.587 187.546,272.578 187.996,272.690 188.423 C 272.890 189.188,273.777 189.200,328.004 189.200 C 386.423 189.200,384.425 189.259,383.378 187.564 C 383.137 187.174,273.099 187.034,272.710 187.423 M65.272 199.300 C 65.467 200.671,76.784 201.246,78.819 199.988 C 80.687 198.834,78.820 198.400,71.985 198.400 L 65.144 198.400 65.272 199.300 M60.741 200.259 C 60.379 200.360,59.990 200.793,59.878 201.221 C 59.759 201.680,59.331 202.000,58.837 202.000 C 58.304 202.000,58.000 202.256,58.000 202.705 C 58.000 203.093,57.595 203.588,57.100 203.805 C 56.605 204.022,56.200 204.470,56.200 204.800 C 56.200 205.130,56.605 205.458,57.100 205.528 C 57.595 205.598,58.000 205.459,58.000 205.219 C 58.000 204.979,58.436 204.584,58.969 204.341 C 59.502 204.098,60.046 203.469,60.178 202.944 C 60.390 202.101,60.618 202.000,62.109 202.094 C 63.674 202.192,63.800 202.126,63.800 201.200 C 63.800 200.178,62.483 199.773,60.741 200.259 M80.473 201.100 C 80.588 202.096,80.752 202.200,82.200 202.200 C 83.555 202.200,83.820 202.338,83.928 203.100 C 84.028 203.805,84.316 204.000,85.256 204.000 C 86.756 204.000,86.812 202.287,85.319 202.075 C 84.834 202.006,84.333 201.620,84.206 201.218 C 83.698 199.619,80.291 199.512,80.473 201.100 M86.800 204.800 C 86.800 205.448,87.067 205.600,88.200 205.600 C 89.489 205.600,89.600 205.695,89.600 206.800 C 89.600 207.611,89.799 208.000,90.213 208.000 C 91.428 208.000,91.305 206.792,89.947 205.394 C 88.423 203.826,86.800 203.519,86.800 204.800 M53.300 207.465 C 53.025 207.576,52.800 207.909,52.800 208.206 C 52.800 208.502,52.395 208.802,51.900 208.872 C 51.328 208.953,50.954 209.321,50.875 209.881 C 50.806 210.366,50.422 210.866,50.022 210.993 C 49.615 211.122,49.186 211.768,49.048 212.462 C 48.618 214.612,48.712 214.863,49.900 214.727 C 50.928 214.608,50.992 214.490,50.876 212.929 C 50.760 211.360,50.821 211.250,51.876 211.129 C 52.688 211.036,53.036 210.750,53.128 210.100 C 53.198 209.605,53.513 209.200,53.828 209.200 C 54.171 209.200,54.400 208.801,54.400 208.200 C 54.400 207.199,54.234 207.088,53.300 207.465 M91.200 209.944 C 91.200 210.884,91.395 211.172,92.100 211.272 C 92.862 211.380,93.000 211.645,93.000 213.000 C 93.000 214.448,93.104 214.612,94.100 214.727 C 95.114 214.843,95.200 214.744,95.200 213.459 C 95.200 211.563,94.851 210.800,93.985 210.800 C 93.533 210.800,93.207 210.458,93.128 209.900 C 92.913 208.391,91.200 208.430,91.200 209.944 M68.223 210.311 C 66.806 211.727,68.030 212.400,72.027 212.400 L 76.053 212.400 75.927 211.368 C 75.805 210.375,69.080 209.453,68.223 210.311 M62.890 214.168 C 60.651 216.414,60.427 217.600,62.243 217.600 C 62.933 217.600,63.200 217.377,63.200 216.800 C 63.200 216.267,63.467 216.000,64.000 216.000 C 64.533 216.000,64.800 215.733,64.800 215.200 C 64.800 214.676,65.067 214.400,65.573 214.400 C 66.532 214.400,67.117 212.847,66.343 212.356 C 65.438 211.783,65.083 211.969,62.890 214.168 M77.642 212.366 C 76.919 212.823,77.371 214.015,78.365 214.275 C 78.784 214.384,79.216 214.817,79.326 215.237 C 79.435 215.657,79.791 216.000,80.116 216.000 C 80.441 216.000,80.801 216.360,80.916 216.800 C 81.249 218.073,83.200 217.902,83.200 216.600 C 83.200 215.972,82.974 215.600,82.591 215.600 C 82.257 215.600,81.785 215.165,81.543 214.634 C 81.301 214.103,80.764 213.579,80.351 213.471 C 79.938 213.363,79.600 212.988,79.600 212.637 C 79.600 211.946,78.537 211.799,77.642 212.366 M47.687 216.338 C 46.622 217.013,47.214 226.574,48.331 226.732 C 48.910 226.814,49.184 227.064,49.057 227.395 C 48.933 227.718,49.236 228.023,49.827 228.171 C 50.425 228.321,50.800 228.704,50.800 229.165 C 50.800 230.126,51.555 230.400,54.200 230.400 C 56.849 230.400,57.600 230.126,57.600 229.157 C 57.600 228.616,57.886 228.400,58.600 228.400 C 59.387 228.400,59.600 228.197,59.600 227.447 C 59.600 226.830,59.882 226.419,60.400 226.284 C 61.718 225.939,61.621 218.685,60.300 218.872 C 59.450 218.993,59.399 219.188,59.374 222.388 C 59.349 225.639,59.308 225.785,58.374 226.005 C 57.767 226.147,57.352 226.566,57.272 227.116 C 57.085 228.408,51.252 228.484,50.916 227.200 C 50.801 226.760,50.458 226.400,50.153 226.400 C 49.726 226.400,49.595 225.602,49.577 222.900 C 49.540 217.232,49.036 215.483,47.687 216.338 M94.916 217.100 C 94.519 218.559,94.518 226.850,94.914 229.500 C 95.220 231.552,95.205 231.600,94.238 231.600 C 93.383 231.600,93.231 231.804,93.124 233.100 C 93.032 234.211,92.763 234.704,92.086 235.000 C 90.902 235.518,91.047 236.950,92.300 237.128 C 92.952 237.220,93.200 237.054,93.200 236.523 C 93.200 236.120,93.605 235.612,94.100 235.395 C 94.766 235.103,95.033 234.603,95.126 233.474 C 95.195 232.635,95.600 231.600,96.026 231.174 C 97.099 230.101,97.227 216.649,96.167 216.243 C 95.251 215.891,95.243 215.896,94.916 217.100 M82.800 223.373 L 82.800 228.000 83.800 228.000 C 84.350 228.000,84.814 227.775,84.831 227.500 C 84.848 227.225,84.889 225.200,84.921 223.000 L 84.980 219.000 83.890 218.873 L 82.800 218.747 82.800 223.373 M323.700 225.082 C 321.964 225.417,322.605 226.664,324.656 226.946 C 329.024 227.544,333.200 227.081,333.200 225.998 C 333.200 224.936,327.375 224.375,323.700 225.082 M319.200 227.773 C 319.200 228.765,320.392 229.499,321.196 229.002 C 322.202 228.381,321.630 226.800,320.400 226.800 C 319.396 226.800,319.200 226.959,319.200 227.773 M334.072 227.700 C 334.160 228.320,334.605 228.719,335.500 228.983 C 336.215 229.193,336.800 229.598,336.800 229.883 C 336.800 230.231,337.403 230.400,338.645 230.400 L 340.491 230.400 340.216 232.230 C 339.974 233.847,340.035 234.084,340.742 234.269 C 341.303 234.416,341.622 234.946,341.807 236.039 C 342.028 237.349,342.225 237.600,343.035 237.600 C 344.328 237.600,344.515 234.460,343.243 234.127 C 342.825 234.018,342.389 233.452,342.269 232.865 C 341.914 231.119,339.505 228.800,338.046 228.800 C 336.984 228.800,336.800 228.653,336.800 227.800 C 336.800 226.920,336.629 226.800,335.372 226.800 C 334.120 226.800,333.960 226.911,334.072 227.700 M81.292 228.868 C 81.021 229.139,80.800 229.573,80.800 229.833 C 80.800 230.094,80.440 230.401,80.000 230.516 C 79.560 230.631,79.200 231.012,79.200 231.363 C 79.200 231.936,78.738 232.180,77.900 232.047 C 77.735 232.021,77.600 232.364,77.600 232.810 C 77.600 233.306,77.212 233.767,76.600 234.000 C 75.199 234.533,75.226 236.000,76.637 236.000 C 77.338 236.000,77.743 235.741,77.884 235.200 C 77.999 234.760,78.347 234.400,78.657 234.400 C 78.966 234.400,79.391 233.950,79.600 233.400 C 79.809 232.850,80.255 232.400,80.590 232.400 C 80.926 232.400,81.200 232.126,81.200 231.790 C 81.200 231.455,81.662 231.004,82.228 230.789 C 82.980 230.503,83.221 230.159,83.128 229.503 C 82.981 228.478,82.016 228.144,81.292 228.868 M316.000 229.328 C 316.000 229.618,315.550 230.247,315.000 230.725 C 313.631 231.915,313.443 239.674,314.766 240.382 C 315.785 240.927,316.089 239.158,315.844 234.100 L 315.665 230.400 317.008 230.400 C 318.104 230.400,318.339 230.253,318.290 229.600 C 318.220 228.670,316.000 228.406,316.000 229.328 M206.667 231.867 C 205.913 232.620,206.441 233.600,207.600 233.600 C 208.613 233.600,208.800 233.444,208.800 232.600 C 208.800 231.620,207.396 231.137,206.667 231.867 M202.090 234.071 C 202.384 234.953,203.546 235.430,204.276 234.969 C 205.596 234.137,205.331 233.600,203.600 233.600 C 202.498 233.600,201.987 233.760,202.090 234.071 M72.287 236.397 C 71.980 236.836,71.136 237.313,70.411 237.458 C 69.630 237.614,69.017 238.013,68.906 238.438 C 68.803 238.832,68.332 239.210,67.859 239.278 C 66.637 239.452,66.476 241.022,67.648 241.329 C 68.833 241.638,69.200 241.357,69.200 240.141 C 69.200 239.188,69.290 239.145,70.750 239.392 C 72.176 239.632,72.321 239.571,72.558 238.627 C 72.762 237.812,73.061 237.600,74.008 237.600 C 75.221 237.600,75.389 237.358,74.957 236.233 C 74.616 235.343,72.954 235.445,72.287 236.397 M325.611 237.771 C 325.363 238.422,324.872 238.785,324.121 238.871 C 323.310 238.964,323.000 239.221,323.000 239.800 C 323.000 241.002,325.820 241.198,326.193 240.022 C 326.575 238.818,330.000 238.798,330.000 240.000 C 330.000 240.533,330.267 240.800,330.800 240.800 C 331.448 240.800,331.600 241.067,331.600 242.200 C 331.600 243.414,331.729 243.600,332.567 243.600 C 334.106 243.600,334.273 241.069,332.760 240.674 C 332.329 240.561,332.000 240.124,332.000 239.664 C 332.000 239.219,331.659 238.746,331.243 238.614 C 330.827 238.482,330.394 238.019,330.281 237.587 C 329.942 236.292,326.116 236.444,325.611 237.771 M89.600 239.392 C 89.600 240.117,89.331 240.452,88.600 240.636 C 87.974 240.793,87.600 241.170,87.600 241.643 C 87.600 242.189,87.314 242.400,86.572 242.400 C 85.735 242.400,85.568 242.567,85.672 243.300 C 85.860 244.624,87.334 244.702,87.919 243.418 C 88.174 242.858,88.657 242.400,88.991 242.400 C 89.333 242.400,89.600 242.049,89.600 241.600 C 89.600 241.076,89.867 240.800,90.373 240.800 C 91.332 240.800,91.917 239.247,91.143 238.756 C 90.174 238.142,89.600 238.379,89.600 239.392 M343.774 240.600 C 343.223 243.536,343.865 246.291,345.000 245.855 C 345.957 245.488,345.703 239.467,344.723 239.279 C 344.223 239.184,343.974 239.530,343.774 240.600 M317.659 240.745 C 317.237 241.021,317.218 241.286,317.573 241.949 C 318.441 243.572,323.239 242.732,322.686 241.054 C 322.505 240.502,318.416 240.252,317.659 240.745 M63.700 241.065 C 63.425 241.176,63.200 241.612,63.200 242.033 C 63.200 242.519,62.922 242.800,62.443 242.800 C 61.656 242.800,61.031 243.802,61.422 244.436 C 61.808 245.060,63.600 244.857,63.600 244.190 C 63.600 243.855,64.050 243.409,64.600 243.200 C 65.302 242.933,65.600 242.519,65.600 241.810 C 65.600 240.813,64.953 240.559,63.700 241.065 M82.400 245.000 C 82.400 245.336,82.043 245.600,81.590 245.600 C 81.106 245.600,80.635 245.982,80.419 246.549 C 80.221 247.071,79.595 247.615,79.029 247.757 C 77.350 248.178,77.636 249.600,79.400 249.600 C 80.533 249.600,80.800 249.448,80.800 248.800 C 80.800 248.255,81.067 248.000,81.637 248.000 C 82.138 248.000,82.559 247.679,82.684 247.200 C 82.799 246.760,83.123 246.400,83.404 246.400 C 83.889 246.400,84.400 245.562,84.400 244.767 C 84.400 244.565,83.950 244.400,83.400 244.400 C 82.778 244.400,82.400 244.627,82.400 245.000 M330.280 244.653 C 329.763 245.170,329.993 246.312,330.667 246.570 C 331.510 246.894,332.118 246.307,331.933 245.347 C 331.786 244.584,330.774 244.159,330.280 244.653 M58.116 245.600 C 58.001 246.040,57.580 246.400,57.180 246.400 C 56.781 246.400,56.346 246.741,56.214 247.157 C 56.082 247.573,55.619 248.006,55.187 248.119 C 54.720 248.241,54.400 248.666,54.400 249.163 C 54.400 249.724,54.145 250.000,53.627 250.000 C 53.193 250.000,52.737 250.368,52.587 250.839 C 52.441 251.301,51.979 252.021,51.561 252.439 C 51.142 252.858,50.800 253.650,50.800 254.200 C 50.800 254.914,50.584 255.200,50.043 255.200 C 49.172 255.200,48.800 255.946,48.800 257.689 C 48.800 258.392,48.503 259.129,48.100 259.423 C 46.959 260.256,46.803 270.620,47.926 270.977 C 48.359 271.114,48.806 271.581,48.919 272.013 C 49.036 272.460,49.466 272.800,49.914 272.800 C 50.348 272.800,50.971 273.205,51.300 273.700 L 51.898 274.600 71.984 274.600 L 92.071 274.600 92.799 273.700 C 93.200 273.205,93.904 272.800,94.364 272.800 C 94.924 272.800,95.200 272.544,95.200 272.027 C 95.200 271.602,95.560 271.140,96.000 271.000 C 97.073 270.659,97.228 264.539,96.173 264.134 C 95.082 263.716,94.600 264.739,94.600 267.474 C 94.600 269.839,94.508 270.141,93.700 270.441 C 93.127 270.653,92.800 271.106,92.800 271.687 L 92.800 272.600 72.000 272.600 L 51.200 272.600 51.200 271.663 C 51.200 271.062,50.913 270.650,50.400 270.516 C 49.960 270.401,49.598 270.193,49.595 270.053 C 49.592 269.914,49.523 267.425,49.441 264.522 C 49.297 259.384,49.316 259.240,50.146 259.122 C 50.841 259.023,51.023 258.683,51.123 257.300 C 51.224 255.899,51.389 255.600,52.057 255.600 C 52.766 255.600,52.852 255.385,52.734 253.900 C 52.613 252.371,52.695 252.187,53.546 252.066 C 54.068 251.992,54.582 251.589,54.693 251.166 C 54.803 250.745,55.147 250.400,55.457 250.400 C 55.766 250.400,56.191 249.950,56.400 249.400 C 56.609 248.850,57.055 248.400,57.390 248.400 C 57.774 248.400,58.000 248.029,58.000 247.400 C 58.000 246.496,58.157 246.400,59.643 246.400 C 60.976 246.400,61.240 246.281,61.043 245.767 C 60.909 245.419,60.800 245.059,60.800 244.967 C 60.800 244.318,58.297 244.908,58.116 245.600 M323.214 247.174 C 322.572 248.373,322.625 248.400,325.600 248.400 C 328.320 248.400,328.400 248.371,328.400 247.400 C 328.400 246.041,323.925 245.846,323.214 247.174 M341.984 247.700 C 341.663 249.722,341.801 252.000,342.246 252.000 C 342.540 252.000,343.076 252.450,343.437 253.000 C 343.797 253.550,344.329 254.000,344.619 254.000 C 344.909 254.000,345.260 254.360,345.400 254.800 C 345.540 255.240,345.916 255.600,346.237 255.600 C 346.557 255.600,346.991 256.050,347.200 256.600 C 347.409 257.150,347.834 257.600,348.143 257.600 C 348.453 257.600,348.801 257.960,348.916 258.400 C 349.038 258.865,349.462 259.200,349.929 259.200 C 350.908 259.200,351.156 259.791,350.894 261.500 C 350.713 262.688,350.786 262.800,351.748 262.800 C 353.139 262.800,353.334 259.940,352.000 259.107 C 351.560 258.832,351.200 258.294,351.200 257.911 C 351.200 257.510,350.793 257.113,350.238 256.974 C 349.709 256.841,349.185 256.387,349.075 255.966 C 348.965 255.545,348.631 255.200,348.332 255.200 C 348.034 255.200,347.612 254.795,347.395 254.300 C 347.178 253.805,346.730 253.400,346.400 253.400 C 346.070 253.400,345.742 252.995,345.672 252.500 C 345.590 251.922,345.268 251.600,344.772 251.600 C 344.112 251.600,344.000 251.309,344.000 249.600 C 344.000 247.733,343.933 247.600,343.000 247.600 C 342.450 247.600,341.993 247.645,341.984 247.700 M75.467 249.467 C 74.737 250.196,75.220 251.600,76.200 251.600 C 77.044 251.600,77.200 251.413,77.200 250.400 C 77.200 249.241,76.220 248.713,75.467 249.467 M320.964 251.002 C 320.524 252.753,321.102 255.735,321.998 256.349 C 322.439 256.651,322.800 257.223,322.800 257.622 C 322.800 258.456,324.288 259.072,324.878 258.482 C 325.599 257.761,325.050 256.607,323.925 256.476 C 322.863 256.353,322.857 256.333,322.928 253.276 C 323.007 249.918,321.634 248.330,320.964 251.002 M71.531 252.076 C 71.419 252.865,71.167 253.000,69.806 253.000 C 68.644 253.000,68.178 253.179,68.085 253.659 C 68.015 254.021,67.593 254.413,67.149 254.529 C 66.704 254.646,66.245 255.108,66.127 255.557 C 66.010 256.006,65.573 256.482,65.157 256.614 C 64.741 256.746,64.400 257.202,64.400 257.627 C 64.400 258.133,64.124 258.400,63.600 258.400 C 63.076 258.400,62.800 258.667,62.800 259.172 C 62.800 259.668,62.478 259.990,61.900 260.072 C 61.195 260.172,61.000 260.460,61.000 261.400 L 61.000 262.600 77.667 262.600 C 94.639 262.600,94.996 262.577,94.582 261.497 C 94.191 260.480,93.184 260.411,78.537 260.405 L 64.475 260.400 64.698 259.547 C 64.821 259.077,65.237 258.611,65.624 258.510 C 66.010 258.409,66.416 257.983,66.526 257.563 C 66.642 257.119,67.075 256.800,67.563 256.800 C 68.121 256.800,68.400 256.545,68.400 256.035 C 68.400 255.458,68.783 255.206,69.961 255.007 C 71.030 254.826,71.585 254.500,71.723 253.971 C 71.844 253.509,72.272 253.200,72.790 253.200 C 73.459 253.200,73.627 252.995,73.528 252.300 C 73.344 251.009,71.708 250.826,71.531 252.076 M326.870 258.748 C 325.622 259.540,327.529 260.400,330.532 260.400 C 332.929 260.400,333.487 260.527,333.885 261.164 C 334.147 261.584,334.910 262.049,335.581 262.196 C 336.251 262.343,336.800 262.716,336.800 263.024 C 336.800 263.332,337.250 263.698,337.800 263.836 C 338.426 263.993,338.800 264.370,338.800 264.843 C 338.800 265.853,340.682 265.905,340.879 264.900 C 341.016 264.201,338.778 261.600,338.040 261.600 C 337.828 261.600,337.545 261.258,337.413 260.840 C 337.213 260.210,336.901 260.116,335.586 260.293 C 334.086 260.494,334.000 260.448,334.000 259.453 C 334.000 258.356,328.367 257.799,326.870 258.748 M352.643 264.633 C 351.942 266.460,352.516 269.200,353.600 269.200 C 354.463 269.200,354.800 268.427,354.800 266.447 C 354.800 264.356,353.249 263.052,352.643 264.633 M340.536 267.422 C 340.179 268.353,340.937 270.577,341.659 270.716 C 342.287 270.837,343.019 267.878,342.549 267.118 C 342.205 266.561,340.784 266.776,340.536 267.422 M354.800 273.833 C 354.800 275.442,354.940 276.020,355.300 275.901 C 356.150 275.619,356.595 273.745,356.080 272.616 C 355.320 270.949,354.800 271.444,354.800 273.833 M341.029 277.029 C 340.683 277.374,340.400 278.163,340.400 278.782 C 340.400 279.570,340.161 279.969,339.600 280.116 C 339.160 280.231,338.800 280.604,338.800 280.944 C 338.800 281.618,336.998 283.600,336.385 283.600 C 336.177 283.600,335.782 283.960,335.507 284.400 C 335.232 284.840,334.787 285.200,334.518 285.200 C 333.701 285.200,333.014 286.836,333.659 287.245 C 334.646 287.871,335.540 287.629,335.672 286.700 C 335.754 286.122,336.122 285.754,336.700 285.672 C 337.278 285.590,337.600 285.268,337.600 284.772 C 337.600 284.347,337.849 284.000,338.153 284.000 C 338.458 284.000,338.801 283.640,338.916 283.200 C 339.036 282.740,339.462 282.400,339.916 282.400 C 340.380 282.400,340.796 282.057,340.924 281.570 C 341.043 281.114,341.514 280.643,341.970 280.524 C 342.843 280.296,342.961 279.707,342.550 277.650 C 342.269 276.247,341.943 276.114,341.029 277.029 M352.652 278.500 C 351.808 281.650,353.521 285.667,354.557 282.967 C 355.261 281.132,354.632 277.600,353.600 277.600 C 353.205 277.600,352.787 277.997,352.652 278.500 M308.526 282.763 C 308.416 283.183,307.983 283.616,307.563 283.726 C 307.060 283.857,306.800 284.278,306.800 284.963 C 306.800 286.288,308.744 286.502,309.081 285.213 C 309.194 284.781,309.627 284.318,310.043 284.186 C 310.512 284.037,310.800 283.576,310.800 282.973 C 310.800 281.722,308.845 281.541,308.526 282.763 M315.200 283.000 C 315.200 283.800,315.400 284.000,316.200 284.000 C 317.000 284.000,317.200 283.800,317.200 283.000 C 317.200 282.200,317.000 282.000,316.200 282.000 C 315.400 282.000,315.200 282.200,315.200 283.000 M318.900 283.892 C 317.929 284.231,318.329 285.600,319.400 285.600 C 320.200 285.600,320.400 285.800,320.400 286.600 C 320.400 287.607,320.927 287.833,322.167 287.357 C 323.167 286.973,322.907 286.076,321.600 285.400 C 320.940 285.059,320.400 284.623,320.400 284.433 C 320.400 283.981,319.537 283.670,318.900 283.892 M350.911 284.849 C 350.187 285.573,350.809 287.256,351.751 287.121 C 352.930 286.953,353.219 284.602,352.070 284.515 C 351.648 284.483,351.126 284.634,350.911 284.849 M324.000 287.986 C 324.000 289.476,328.293 290.229,330.974 289.210 C 333.698 288.174,332.256 287.200,328.000 287.200 C 324.291 287.200,324.000 287.257,324.000 287.986 M349.200 288.792 C 349.200 289.731,348.987 290.038,348.200 290.236 C 347.650 290.374,347.200 290.754,347.200 291.081 C 347.200 291.408,346.826 291.773,346.369 291.892 C 345.912 292.012,345.377 292.535,345.179 293.055 C 344.982 293.575,344.545 294.000,344.210 294.000 C 343.826 294.000,343.600 294.371,343.600 295.000 C 343.600 296.240,345.161 296.435,345.475 295.234 C 345.585 294.813,346.109 294.359,346.638 294.226 C 347.249 294.073,347.600 293.696,347.600 293.192 C 347.600 292.667,347.869 292.400,348.400 292.400 C 348.937 292.400,349.200 292.133,349.200 291.590 C 349.200 291.094,349.588 290.633,350.200 290.400 C 351.645 289.851,351.450 287.600,349.957 287.600 C 349.384 287.600,349.200 287.889,349.200 288.792 M306.800 290.610 C 306.800 291.715,306.988 292.124,307.563 292.274 C 307.983 292.384,308.419 292.831,308.533 293.267 C 308.647 293.703,309.097 294.153,309.533 294.267 C 309.969 294.381,310.416 294.817,310.526 295.237 C 310.642 295.681,311.075 296.000,311.563 296.000 C 312.676 296.000,312.744 294.163,311.643 293.814 C 311.227 293.682,310.794 293.219,310.681 292.787 C 310.567 292.354,310.193 292.000,309.849 292.000 C 309.478 292.000,309.086 291.470,308.888 290.700 C 308.369 288.687,306.800 288.620,306.800 290.610 M314.267 295.867 C 313.653 296.480,314.022 297.600,314.837 297.600 C 315.325 297.600,315.758 297.919,315.874 298.363 C 316.262 299.846,320.165 300.143,320.537 298.717 C 320.849 297.527,320.690 297.435,318.283 297.416 C 316.433 297.402,316.186 297.299,316.072 296.500 C 315.950 295.638,314.873 295.260,314.267 295.867 M340.000 296.626 C 340.000 297.654,339.925 297.695,338.398 297.491 C 336.108 297.183,335.200 297.511,335.200 298.647 C 335.200 300.165,339.716 299.926,340.206 298.382 C 340.333 297.980,340.834 297.594,341.319 297.525 C 342.675 297.332,342.498 295.834,341.100 295.673 C 340.141 295.563,340.000 295.685,340.000 296.626 M322.300 299.465 C 321.098 299.670,320.944 299.984,321.680 300.720 C 322.414 301.454,333.202 301.379,334.223 300.633 C 334.650 300.321,334.852 299.919,334.674 299.740 C 334.320 299.387,324.089 299.159,322.300 299.465 M17.700 340.679 C 17.138 340.789,16.800 341.146,16.800 341.628 C 16.800 342.387,17.730 342.400,72.000 342.400 C 125.893 342.400,127.200 342.382,127.200 341.643 C 127.200 341.226,126.931 340.782,126.601 340.656 C 125.910 340.391,19.056 340.414,17.700 340.679 M145.500 340.664 C 145.115 340.771,144.800 341.205,144.800 341.629 C 144.800 342.387,145.767 342.400,200.000 342.400 C 253.893 342.400,255.200 342.382,255.200 341.643 C 255.200 341.226,254.975 340.803,254.700 340.701 C 254.026 340.453,146.389 340.416,145.500 340.664 M273.700 340.701 C 273.131 340.799,272.800 341.140,272.800 341.628 C 272.800 342.387,273.730 342.400,328.000 342.400 C 382.292 342.400,383.200 342.387,383.200 341.627 C 383.200 341.202,382.885 340.764,382.500 340.653 C 381.690 340.421,275.052 340.468,273.700 340.701 M0.000 354.600 C 0.000 355.590,0.168 356.400,0.373 356.400 C 0.578 356.400,0.857 356.751,0.994 357.180 C 1.130 357.608,1.572 358.064,1.977 358.193 C 2.382 358.321,2.806 358.781,2.919 359.213 C 3.260 360.514,6.800 360.362,6.800 359.047 C 6.800 358.073,5.960 357.617,4.147 357.605 C 3.633 357.602,3.210 357.282,3.084 356.800 C 2.969 356.360,2.604 356.000,2.273 356.000 C 1.882 356.000,1.575 355.439,1.400 354.400 C 1.011 352.098,0.000 352.242,0.000 354.600 M398.753 354.400 C 398.483 355.301,398.022 356.000,397.699 356.000 C 397.383 356.000,397.031 356.360,396.916 356.800 C 396.790 357.282,396.367 357.602,395.853 357.605 C 394.040 357.617,393.200 358.073,393.200 359.047 C 393.200 359.924,393.359 360.000,395.200 360.000 C 396.933 360.000,397.200 359.893,397.200 359.200 C 397.200 358.669,397.467 358.400,397.992 358.400 C 398.504 358.400,398.874 358.046,399.036 357.400 C 399.174 356.850,399.447 356.400,399.643 356.400 C 399.840 356.400,400.000 355.590,400.000 354.600 C 400.000 352.370,399.390 352.272,398.753 354.400 " stroke="none" fill-rule="evenodd"></path></g></svg>
