<?xml version="1.0" standalone="no"?>
<!DOCTYPE svg PUBLIC "-//W3C//DTD SVG 20010904//EN"
 "http://www.w3.org/TR/2001/REC-SVG-20010904/DTD/svg10.dtd">
<svg version="1.0" xmlns="http://www.w3.org/2000/svg"
 width="400.000000pt" height="400.000000pt" viewBox="0 0 400.000000 400.000000"
 preserveAspectRatio="xMidYMid meet">
<metadata>
Created by potrace 1.14, written by Peter Selinger 2001-2017
</metadata>
<g transform="translate(0.000000,400.000000) scale(0.100000,-0.100000)"
fill="#000000" stroke="none">
<path d="M2805 3990 c-12 -19 -139 -83 -213 -108 -64 -20 -97 -25 -197 -25
-126 -1 -174 10 -319 70 l-59 25 -91 -36 c-158 -61 -197 -69 -315 -63 -113 5
-162 19 -314 91 -42 20 -86 36 -96 36 -21 0 -33 -8 -227 -147 -76 -54 -165
-116 -197 -137 l-57 -38 1 -441 c1 -243 6 -799 13 -1236 l11 -793 55 -30 c30
-16 197 -101 370 -188 564 -284 798 -392 845 -392 11 0 110 44 220 97 791 384
1031 503 1042 517 24 29 33 416 34 1420 2 821 -1 1041 -11 1053 -7 8 -29 25
-49 37 -20 12 -63 43 -96 68 -33 26 -94 69 -135 97 -41 28 -97 69 -125 92 -49
40 -78 51 -90 31z m-1574 -119 c46 -36 154 -79 254 -101 63 -14 266 -15 325
-1 67 15 128 38 158 59 27 19 28 19 142 -14 268 -78 377 -72 633 33 l88 36 32
-18 c56 -32 250 -172 297 -214 l45 -41 6 -97 c15 -223 3 -1724 -17 -2129 l-7
-141 -119 -57 c-128 -61 -374 -181 -797 -388 -186 -90 -270 -126 -284 -122
-35 11 -198 89 -607 291 -217 108 -431 213 -476 233 l-81 38 -6 813 c-4 447
-7 982 -7 1190 0 428 -8 384 84 446 23 15 75 53 116 84 89 66 171 119 186 119
6 0 22 -8 35 -19z"/>
<path d="M1205 3690 c-11 -12 -54 -44 -95 -71 -42 -26 -85 -59 -97 -71 l-21
-23 2 -1010 c2 -962 6 -1096 32 -1177 3 -10 62 -45 142 -84 75 -36 279 -137
452 -223 280 -139 321 -156 365 -156 43 0 77 13 238 92 103 51 189 93 192 93
3 0 54 23 113 51 59 28 150 71 202 96 52 24 138 65 191 91 l97 46 6 230 c6
280 26 1551 27 1764 1 113 -3 157 -13 169 -22 27 -250 173 -270 173 -10 0 -35
-7 -56 -16 -112 -46 -215 -67 -342 -67 -114 0 -134 3 -225 33 -55 18 -113 33
-130 33 -16 0 -75 -12 -130 -27 -190 -52 -309 -45 -510 30 -128 48 -146 50
-170 24z m150 -121 c55 -25 132 -45 195 -51 l25 -3 3 -337 2 -338 -255 0 -255
0 0 324 0 324 56 39 c31 21 70 48 88 60 36 25 53 23 141 -18z m1504 -34 c40
-25 77 -57 86 -74 12 -25 15 -77 15 -310 0 -278 0 -280 -23 -307 l-23 -27
-240 9 -239 9 0 334 0 335 80 12 c44 6 109 23 145 37 94 37 118 35 199 -18z
m-754 10 c38 -13 103 -30 147 -36 l78 -11 1 -347 c2 -368 2 -388 13 -399 4 -4
112 -9 239 -12 l232 -5 -245 -245 c-260 -260 -564 -553 -579 -558 -7 -2 -308
296 -436 432 -16 18 -66 70 -110 117 -156 165 -225 245 -225 262 0 4 101 7
225 7 l225 0 0 370 c0 427 -16 377 131 410 52 12 105 26 119 30 47 16 117 10
185 -15z m-994 -820 c8 -14 109 -123 224 -242 116 -118 221 -229 235 -246 14
-16 35 -41 47 -56 13 -14 23 -29 23 -33 0 -5 -115 -8 -255 -9 -140 -1 -265 -2
-277 -2 l-23 -1 -5 299 c-3 165 -4 303 -2 308 6 13 17 7 33 -18z m1833 -31 c8
-21 8 -246 -1 -406 l-6 -128 -279 0 c-153 0 -278 3 -278 8 0 19 407 418 493
482 25 19 47 41 47 48 0 17 17 15 24 -4z m-620 -607 c-1 -9 -2 -233 -3 -498
l-1 -480 -166 -81 c-162 -79 -167 -80 -205 -69 -60 18 -246 119 -255 139 -9
19 -19 965 -10 988 4 10 27 -8 78 -63 132 -141 203 -213 212 -213 13 0 60 42
199 177 120 117 154 139 151 100z m621 -114 c-3 -49 -8 -199 -11 -335 l-6
-247 -152 -75 c-177 -87 -333 -156 -353 -156 -6 0 -3 694 4 793 l6 107 258 0
259 0 -5 -87z m-1348 -170 c-4 -131 -7 -334 -7 -451 l0 -213 -250 128 -250
128 0 323 0 322 257 0 256 0 -6 -237z"/>
<path d="M1102 3143 l3 -218 55 0 55 0 5 115 5 115 77 -92 c42 -51 82 -102 88
-113 9 -17 21 -20 69 -20 l58 0 7 53 c3 28 6 125 6 215 l0 162 -66 0 -66 0 7
-111 c7 -109 7 -111 -12 -100 -25 13 -63 56 -127 144 l-50 67 -58 0 -58 0 2
-217z"/>
<path d="M2603 3383 l-63 -4 0 -219 0 -220 65 0 c56 0 65 2 63 18 -1 9 0 47 0
85 l2 67 90 0 91 0 -3 58 -3 57 -82 -3 c-73 -3 -82 -1 -87 16 -9 29 3 52 28
51 11 0 51 -3 89 -8 l67 -7 0 58 0 58 -97 -2 c-54 -1 -126 -3 -160 -5z"/>
<path d="M2105 3268 c-33 -23 -66 -48 -73 -55 -16 -15 -48 -17 -57 -3 -10 15
-125 72 -139 68 -10 -2 -8 -23 10 -88 29 -111 67 -234 90 -291 15 -41 16 -49
3 -61 -8 -8 -58 -53 -112 -101 -82 -73 -103 -86 -120 -80 -12 4 -49 8 -82 9
-81 3 -219 19 -233 28 -15 9 -52 -2 -52 -15 0 -15 146 -156 222 -213 92 -69
146 -85 220 -67 29 7 74 15 100 18 41 4 48 2 61 -19 8 -12 18 -43 22 -68 8
-50 26 -90 49 -109 24 -20 70 67 71 135 0 29 4 56 8 60 11 11 67 8 142 -7 86
-17 138 3 219 83 33 32 65 58 71 58 7 0 36 17 66 38 30 21 62 41 72 45 23 9
33 37 17 47 -8 5 -35 6 -62 3 -34 -4 -54 -1 -72 10 -22 15 -27 15 -62 -4 -26
-13 -56 -19 -89 -18 -27 1 -66 -1 -85 -5 -34 -6 -39 -3 -129 84 l-94 90 12 83
c6 45 29 147 51 227 22 80 40 148 40 152 0 17 -28 6 -85 -34z"/>
<path d="M2620 1870 c-30 -11 -56 -20 -57 -20 -12 0 -43 -72 -43 -100 0 -35
32 -100 49 -100 10 0 31 -54 31 -80 0 -11 -14 -21 -41 -29 -51 -15 -56 -29
-28 -76 21 -35 24 -37 62 -31 53 9 88 30 116 72 32 46 33 104 3 141 -23 29
-66 112 -60 118 1 1 18 10 36 19 17 9 32 23 32 30 0 16 -32 76 -40 76 -3 -1
-30 -10 -60 -20z"/>
<path d="M1290 1872 c-55 -27 -75 -44 -106 -92 -25 -40 -29 -54 -29 -120 1
-118 50 -191 153 -225 45 -14 60 -15 102 -5 27 7 68 25 90 41 l40 29 -27 41
c-17 27 -32 39 -42 35 -9 -2 -35 -12 -58 -20 -48 -18 -66 -14 -105 22 -36 33
-38 98 -7 148 19 32 24 34 72 34 29 -1 63 -7 77 -15 38 -22 44 -19 67 29 20
41 21 45 5 59 -58 52 -167 71 -232 39z"/>
<path d="M442 1159 c-91 -36 -208 -185 -283 -359 -74 -171 -139 -387 -139
-460 0 -39 17 -39 98 0 84 40 177 63 229 57 42 -4 133 -36 188 -65 52 -28 122
-21 204 20 l72 37 42 -18 c23 -11 78 -35 122 -56 44 -20 103 -47 130 -60 28
-13 80 -37 118 -54 37 -17 96 -45 131 -61 35 -17 67 -30 70 -30 3 0 29 -11 58
-24 29 -13 76 -32 103 -41 107 -37 428 -49 693 -27 129 11 148 15 210 46 37
18 155 71 262 116 107 46 233 101 280 123 155 72 135 70 214 30 46 -23 90 -37
127 -40 51 -5 66 -2 139 33 71 33 91 38 150 38 71 -1 82 -6 248 -93 35 -18 64
-32 66 -30 18 18 -119 515 -154 564 -4 6 -11 20 -15 33 -13 44 -94 178 -132
218 -49 52 -91 74 -140 74 -48 -1 -72 -14 -117 -66 -40 -46 -111 -84 -429
-228 -449 -204 -605 -269 -669 -278 -38 -5 -198 -8 -356 -6 l-287 3 -84 38
c-268 120 -395 179 -565 264 -235 118 -374 199 -419 245 -58 60 -113 78 -165
57z m112 -131 c23 -53 42 -112 112 -343 68 -226 69 -245 8 -265 -44 -15 -76
-9 -158 29 -95 45 -184 57 -266 36 -125 -31 -113 -32 -105 6 17 80 94 284 121
319 6 8 13 22 16 30 10 27 115 184 137 204 17 16 52 27 104 35 4 0 18 -23 31
-51z m3034 -4 c74 -44 157 -214 228 -464 13 -47 24 -100 24 -118 0 -33 -1 -33
-32 -27 -18 4 -48 14 -67 21 -60 25 -120 18 -221 -27 -98 -44 -118 -45 -213
-17 -38 11 -38 12 -32 52 4 23 28 106 55 186 26 80 56 172 65 205 50 170 116
235 193 189z m-2802 -119 c28 -13 210 -102 405 -198 195 -96 381 -185 414
-198 55 -21 77 -23 290 -27 127 -2 293 1 370 6 138 9 141 10 240 56 55 26 114
54 130 61 17 7 91 40 165 73 74 33 218 96 320 141 102 45 193 87 204 92 17 10
18 8 12 -28 -4 -21 -32 -117 -64 -212 -68 -211 -83 -230 -212 -281 -47 -18
-114 -46 -150 -63 -36 -16 -81 -35 -100 -42 -19 -8 -73 -30 -120 -50 -370
-158 -379 -160 -751 -148 l-274 9 -75 33 c-41 18 -91 40 -110 48 -96 40 -439
218 -426 221 30 6 16 31 -24 43 -22 7 -40 16 -40 20 0 9 30 55 74 112 31 40
31 43 2 49 -15 2 -29 -17 -67 -89 -26 -51 -43 -93 -37 -93 6 0 8 -3 5 -6 -3
-4 -21 0 -39 9 -18 9 -54 24 -79 35 -41 18 -47 25 -53 59 -13 67 -46 176 -75
243 -16 36 -32 87 -36 114 l-7 49 29 -7 c15 -4 51 -18 79 -31z"/>
<path d="M2935 620 c-3 -5 -1 -18 5 -29 15 -29 13 -38 -11 -44 -15 -4 -23 1
-31 19 -11 24 -28 33 -28 14 0 -6 10 -27 23 -48 13 -20 29 -52 36 -69 8 -18
20 -33 27 -33 16 0 19 36 4 45 -15 9 -12 35 4 35 8 0 17 -11 20 -25 6 -25 20
-30 49 -19 13 5 10 16 -18 62 -18 31 -36 67 -39 80 -8 23 -30 30 -41 12z"/>
<path d="M2757 551 c-46 -18 -66 -31 -64 -41 1 -8 12 -15 25 -15 17 0 28 -14
52 -62 25 -50 33 -60 50 -56 11 3 20 7 20 9 0 6 -44 79 -62 103 -10 13 -18 26
-18 30 0 3 18 15 41 25 42 21 59 37 37 35 -7 -1 -43 -13 -81 -28z"/>
<path d="M1141 489 c-46 -92 -45 -89 -28 -89 14 0 99 155 90 164 -14 13 -22 3
-62 -75z"/>
<path d="M1219 514 c-7 -9 -15 -44 -17 -79 -4 -57 -2 -64 17 -70 21 -6 63 31
104 96 19 29 19 29 -2 29 -13 0 -33 -18 -57 -52 l-36 -53 6 45 c3 25 8 57 12
73 7 30 -6 36 -27 11z"/>
<path d="M2641 501 c-11 -7 -10 -15 9 -46 12 -20 32 -56 44 -80 15 -32 25 -42
34 -36 11 7 8 17 -13 51 -15 24 -34 60 -43 81 -13 29 -21 36 -31 30z"/>
<path d="M1328 418 c-19 -40 -37 -77 -39 -83 -2 -5 4 -11 14 -13 9 -2 17 2 17
9 0 6 16 43 35 80 40 78 40 79 21 79 -8 0 -29 -33 -48 -72z"/>
<path d="M1399 413 c-12 -26 -30 -60 -40 -75 -11 -14 -19 -33 -19 -42 0 -33
20 -14 46 45 31 69 42 63 43 -22 1 -33 6 -49 17 -53 11 -4 24 13 52 72 20 42
38 80 40 85 2 4 0 7 -5 7 -5 0 -17 -16 -26 -35 -9 -19 -20 -35 -24 -35 -5 0
-15 21 -23 47 -8 26 -20 48 -27 51 -7 2 -22 -18 -34 -45z"/>
<path d="M2566 447 c-16 -12 -18 -22 -12 -58 10 -62 28 -110 41 -106 5 2 9 18
7 35 -4 39 16 51 38 22 9 -12 24 -21 34 -19 14 3 9 15 -29 69 -25 36 -49 66
-53 68 -4 1 -16 -4 -26 -11z m29 -37 c3 -5 1 -10 -4 -10 -6 0 -11 5 -11 10 0
6 2 10 4 10 3 0 8 -4 11 -10z"/>
<path d="M2424 410 l-41 -19 39 -81 c22 -44 46 -80 54 -80 18 0 18 6 -3 41
-16 27 -16 29 1 42 24 18 12 40 -16 31 -13 -4 -24 -1 -29 7 -14 22 -11 26 26
43 34 17 47 36 23 36 -7 -1 -31 -9 -54 -20z"/>
<path d="M1553 369 c-21 -13 -37 -34 -44 -58 -16 -55 -9 -82 28 -100 18 -9 31
-22 28 -28 -2 -7 1 -13 8 -13 7 0 28 27 48 59 l37 59 -39 18 c-38 17 -40 17
-54 -2 -12 -17 -12 -19 6 -22 28 -5 36 -32 15 -47 -23 -18 -56 -7 -56 17 0 35
51 118 77 124 29 8 37 1 38 -33 0 -34 25 -44 25 -10 0 54 -60 72 -117 36z"/>
<path d="M1810 330 c0 -14 7 -20 21 -20 21 0 21 -3 15 -70 l-7 -70 25 0 26 0
-7 74 -6 74 57 7 c86 11 67 25 -34 25 -83 0 -90 -1 -90 -20z"/>
<path d="M2080 315 c0 -31 -3 -35 -25 -35 -21 0 -25 5 -25 30 0 17 -5 30 -12
30 -10 0 -13 -25 -13 -90 -1 -77 1 -90 15 -88 9 2 16 16 18 36 2 21 9 32 19
32 11 0 14 -8 11 -30 -4 -26 -1 -30 19 -30 22 0 23 2 23 90 0 73 -3 90 -15 90
-10 0 -15 -11 -15 -35z"/>
<path d="M2147 343 c-4 -3 -7 -46 -7 -95 l0 -88 45 0 c35 0 45 4 45 16 0 12
-7 15 -29 12 -24 -4 -30 0 -34 19 -5 28 0 33 30 33 14 0 23 6 23 15 0 9 -9 15
-25 15 -20 0 -25 5 -25 24 0 21 5 25 37 28 58 5 54 28 -4 28 -28 0 -53 -3 -56
-7z"/>
</g>
</svg>
