<?xml version="1.0" standalone="no"?>
<!DOCTYPE svg PUBLIC "-//W3C//DTD SVG 20010904//EN"
 "http://www.w3.org/TR/2001/REC-SVG-20010904/DTD/svg10.dtd">
<svg version="1.0" xmlns="http://www.w3.org/2000/svg"
 width="1504.000000pt" height="1504.000000pt" viewBox="0 0 1504.000000 1504.000000"
 preserveAspectRatio="xMidYMid meet">
<metadata>
Created by potrace 1.14, written by Peter Selinger 2001-2017
</metadata>
<g transform="translate(0.000000,1504.000000) scale(0.100000,-0.100000)"
fill="#000000" stroke="none">
<path d="M1520 7520 l0 -7520 6000 0 6000 0 0 7520 0 7520 -6000 0 -6000 0 0
-7520z m7235 6719 c28 -15 88 -41 134 -59 50 -20 101 -48 125 -69 23 -20 52
-42 66 -48 49 -21 158 -103 185 -140 44 -61 166 -172 210 -192 78 -36 120 -76
168 -161 26 -45 47 -90 47 -99 0 -9 7 -29 15 -44 10 -20 12 -34 5 -46 -7 -13
-1 -29 25 -65 19 -27 46 -83 60 -126 14 -42 40 -96 57 -119 37 -51 93 -199
108 -284 6 -34 19 -96 30 -137 17 -69 40 -247 37 -295 0 -11 3 -30 7 -42 6
-18 3 -23 -9 -23 -8 0 -17 6 -19 13 -26 95 -68 207 -78 207 -5 0 -7 -8 -4 -17
51 -173 54 -282 3 -122 -16 52 -36 101 -44 109 -14 13 -15 12 -9 -15 20 -95
39 -219 41 -280 1 -38 6 -77 9 -86 8 -18 -9 -54 -41 -89 -18 -18 -23 -20 -23
-8 0 13 -4 14 -24 5 -23 -11 -23 -12 -7 -42 9 -16 41 -66 69 -110 67 -102 153
-280 186 -385 28 -89 34 -198 15 -280 -6 -25 -12 -115 -13 -200 -1 -135 -4
-161 -23 -200 -23 -49 -35 -110 -21 -110 13 0 9 -34 -12 -101 -10 -35 -15 -66
-10 -69 17 -11 22 -56 7 -69 -8 -6 -19 -11 -23 -9 -5 1 -19 -2 -32 -6 -27 -9
-54 8 -45 30 9 25 -17 15 -29 -11 -15 -33 -37 -28 -59 13 -19 32 -18 32 4 33
21 0 21 1 2 9 -11 5 -36 9 -55 9 -31 0 -33 -1 -18 -13 18 -13 14 -26 -8 -26
-6 0 -14 9 -17 20 -5 18 -8 19 -32 8 -23 -10 -29 -10 -40 5 -11 16 -13 16 -19
1 -3 -8 -6 -24 -6 -34 0 -10 -4 -21 -10 -25 -15 -9 -38 47 -33 81 4 27 2 32
-21 36 -14 3 -26 1 -26 -3 0 -5 7 -9 15 -9 13 0 15 -7 9 -37 -9 -48 -11 -51
-23 -22 -10 24 -10 24 -10 2 -1 -25 -19 -31 -27 -9 -3 8 -13 12 -24 9 -15 -4
-19 3 -25 39 -5 25 -16 49 -27 56 -18 13 -18 15 -2 33 11 12 25 17 36 13 23
-7 23 0 -1 34 -18 25 -19 34 -10 112 14 115 39 269 49 300 5 14 11 50 15 81 3
31 8 76 11 100 3 24 5 96 5 159 0 63 6 142 14 175 10 45 13 52 14 28 1 -17 5
-42 10 -55 5 -13 11 -55 15 -93 5 -65 18 -151 51 -335 19 -108 49 -185 73
-186 11 -1 35 -13 55 -28 27 -21 36 -24 40 -12 3 8 -1 17 -9 20 -9 3 -13 10
-9 15 3 5 1 12 -5 16 -5 3 -10 19 -10 34 0 25 3 28 25 23 14 -2 25 -9 26 -16
0 -6 4 -2 9 9 5 14 3 24 -8 33 -14 11 -14 14 4 28 13 11 15 17 7 20 -18 8 -16
31 4 42 10 6 14 16 10 26 -5 13 -2 17 11 14 18 -3 31 -58 14 -58 -14 0 1 -53
16 -58 7 -2 12 1 12 7 0 6 5 11 10 11 6 0 10 -9 10 -20 0 -13 7 -20 20 -20 22
0 33 41 27 108 -2 23 0 42 5 42 16 0 8 15 -14 25 -12 6 -27 28 -35 50 -7 22
-19 45 -26 50 -6 6 -21 27 -32 48 -11 21 -28 45 -37 54 -10 9 -18 22 -18 30 0
7 -7 16 -15 19 -8 4 -13 10 -10 14 3 4 -8 12 -23 18 -16 5 -35 16 -43 23 -8 8
-25 22 -39 30 -18 12 -36 45 -63 117 -20 55 -37 107 -37 116 0 8 -4 18 -10 21
-5 3 -10 17 -10 31 0 28 -17 33 -23 7 -3 -14 -7 -11 -18 12 -8 16 -21 37 -29
46 -8 10 -23 29 -33 43 -10 14 -24 26 -32 26 -10 0 -15 12 -16 38 -1 20 -2 46
-3 57 -1 20 -36 35 -36 16 0 -19 -29 -12 -40 9 -6 11 -8 20 -4 20 4 0 -3 11
-16 25 l-24 26 22 6 c22 5 22 6 6 24 -16 18 -16 20 2 34 15 11 16 17 6 23 -7
5 -10 16 -7 24 4 9 2 19 -4 23 -22 13 -10 20 29 17 30 -3 45 -11 63 -36 33
-44 66 -103 82 -145 23 -63 56 -145 76 -188 10 -23 19 -46 19 -50 0 -4 17 -19
38 -33 20 -13 51 -39 68 -57 38 -40 44 -41 44 -8 0 14 -15 42 -33 62 -45 52
-76 100 -141 221 -65 119 -157 259 -215 326 -23 26 -41 51 -41 57 0 23 32 5
66 -37 21 -25 57 -59 80 -74 23 -16 61 -51 85 -77 24 -26 80 -85 124 -131 l80
-83 8 31 c9 35 -15 144 -65 295 -37 110 -68 181 -111 248 -19 29 -59 100 -91
160 -32 59 -62 107 -67 107 -5 0 -9 9 -9 21 0 11 -4 17 -10 14 -5 -3 -10 2
-10 12 0 10 -14 33 -30 52 -17 18 -62 71 -101 117 -39 46 -73 84 -75 84 -10 0
19 -42 59 -89 55 -64 100 -128 122 -170 9 -19 36 -64 59 -100 37 -57 113 -198
203 -373 13 -25 26 -64 29 -85 l6 -38 -24 40 c-30 50 -95 121 -274 299 -77 78
-158 167 -178 199 -21 31 -42 57 -46 57 -17 0 -217 132 -270 178 -83 71 -294
301 -285 311 2 2 62 -50 132 -116 151 -140 190 -168 258 -182 28 -5 68 -16 90
-24 22 -9 42 -14 44 -11 13 13 -47 64 -176 150 -81 54 -160 110 -176 125 -15
15 -57 46 -92 70 -36 23 -65 46 -65 51 0 18 57 6 134 -30 54 -26 98 -55 131
-89 44 -44 118 -84 131 -70 3 3 -10 14 -29 26 -19 12 -51 42 -72 66 -25 32
-57 55 -101 75 -115 52 -80 65 161 64 155 -1 178 -4 259 -28 49 -15 100 -35
113 -43 12 -8 23 -13 23 -10 0 3 27 -8 60 -24 62 -30 93 -38 74 -19 -11 11
-38 27 -138 82 -32 18 -68 39 -80 45 -12 7 -40 13 -63 13 -23 0 -48 7 -57 15
-17 17 -30 20 -21 5 11 -17 -39 -11 -80 10 -47 24 -67 26 -59 5 9 -22 -2 -18
-31 11 -20 20 -29 23 -39 14 -9 -6 -26 -8 -43 -4 -25 7 -27 6 -14 -9 12 -15
11 -17 -5 -17 -11 0 -32 7 -48 15 -36 19 -42 19 -26 0 11 -13 8 -15 -18 -15
-19 0 -32 6 -37 18 -6 16 -7 16 -20 -1 -11 -16 -18 -16 -61 -5 -27 6 -57 19
-66 27 -16 13 -22 9 -19 -11 2 -13 -16 -9 -29 7 -9 11 -16 12 -25 5 -7 -6 -37
-13 -66 -16 -30 -3 -68 -12 -86 -20 -17 -8 -36 -14 -43 -14 -6 0 -9 -4 -6 -9
7 -10 -17 -21 -45 -21 -10 0 -19 -4 -19 -9 0 -4 -12 -6 -27 -3 -22 4 -25 2
-20 -12 6 -14 3 -16 -14 -11 -34 11 -149 -4 -143 -19 3 -8 -18 -16 -68 -24
-73 -11 -101 -18 -258 -66 -47 -15 -126 -37 -176 -50 -128 -34 -207 -77 -286
-156 -63 -63 -66 -65 -52 -31 8 20 38 58 67 84 28 27 75 70 102 96 73 71 198
157 278 193 15 7 27 15 27 19 0 13 -114 -13 -162 -37 -29 -14 -48 -20 -46 -13
11 33 299 139 442 164 21 3 36 8 34 11 -7 7 -116 -12 -195 -34 -40 -11 -73
-16 -73 -12 0 8 77 37 207 80 34 11 78 20 98 20 20 0 46 7 60 16 13 8 46 17
73 19 27 3 61 9 76 15 15 5 52 12 84 16 31 3 73 9 92 14 l35 8 -36 1 c-28 1
-38 6 -47 26 -14 30 -31 32 -66 4 -15 -12 -34 -18 -43 -15 -8 4 -22 1 -30 -6
-12 -10 -18 -9 -28 5 -6 9 -14 15 -16 13 -2 -2 -20 -6 -39 -9 -47 -7 -86 -21
-140 -48 -25 -12 -55 -22 -68 -21 -12 1 -25 -5 -29 -14 -3 -8 -12 -13 -20 -10
-13 5 -179 -70 -209 -94 -12 -11 -94 -41 -94 -36 0 2 24 19 53 37 28 18 54 36
57 39 9 11 144 84 226 122 44 21 109 44 144 51 35 7 65 18 67 24 3 8 -14 7
-59 -1 -103 -19 -130 -3 -55 33 23 11 74 28 112 37 39 9 74 21 80 25 5 5 21 9
35 9 14 0 31 5 36 10 14 14 241 32 319 27 60 -5 168 -43 235 -82 64 -38 171
-87 177 -81 4 3 1 6 -6 6 -7 0 -42 20 -79 43 -82 54 -220 117 -255 117 -14 0
-27 7 -31 15 -4 12 -23 15 -83 14 -80 0 -240 -13 -325 -25 -35 -5 -48 -3 -48
5 0 20 -60 2 -84 -25 -12 -12 -66 -41 -121 -64 -55 -23 -107 -45 -115 -49 -9
-5 -31 -12 -50 -16 -19 -4 -56 -19 -82 -32 -46 -25 -72 -27 -122 -7 -18 7 -18
6 -2 -18 16 -25 16 -26 -9 -30 -14 -3 -25 -1 -25 4 0 14 -42 -2 -73 -28 -16
-13 -26 -24 -22 -24 4 0 -10 -15 -31 -32 -20 -18 -45 -40 -53 -48 -9 -8 -30
-20 -46 -25 -17 -6 -34 -20 -40 -32 -5 -13 -15 -25 -22 -27 -18 -7 -16 9 2 24
8 7 15 19 15 27 0 8 22 36 48 62 27 26 61 75 77 107 38 78 53 94 85 94 15 0
33 7 40 15 7 8 25 15 40 15 16 0 30 7 34 16 3 9 13 13 23 10 18 -5 54 39 68
83 6 19 2 21 -42 21 -49 0 -181 -25 -218 -41 -11 -5 -33 -6 -49 -1 l-29 8 31
26 c25 21 206 88 237 88 5 0 16 6 24 14 9 8 81 32 161 55 133 38 154 41 270
42 69 0 145 4 170 9 25 4 142 7 260 7 212 -2 216 -2 265 -28z m-1571 -290
c-17 -16 -37 -31 -45 -33 -32 -5 -137 -39 -181 -59 -57 -25 -75 -15 -33 19 37
30 220 103 260 103 l30 1 -31 -31z m-99 -95 c-45 -39 -143 -107 -186 -129 -33
-18 -74 -19 -116 -5 -33 12 -83 -1 -83 -21 0 -6 -13 -27 -30 -45 -24 -28 -29
-42 -27 -74 2 -22 0 -40 -4 -40 -13 0 -64 55 -76 81 -6 15 -9 36 -6 48 9 33
-14 24 -26 -10 -14 -41 -14 -39 9 -39 25 0 25 -7 1 -47 -12 -19 -17 -40 -14
-54 5 -19 3 -21 -18 -16 -13 3 -88 18 -167 33 l-144 27 -40 -22 c-22 -11 -44
-21 -50 -21 -29 0 22 30 181 107 138 67 190 87 241 93 35 5 68 6 72 4 4 -3 28
7 53 22 44 25 51 26 130 20 91 -8 113 -1 184 52 38 30 144 82 151 75 2 -2 -13
-20 -35 -39z m-158 -286 c-20 -64 -40 -103 -59 -122 -14 -13 -18 -26 -13 -43
3 -14 1 -31 -6 -39 -7 -8 -14 -38 -16 -67 -5 -60 -30 -154 -44 -162 -5 -4 -9
-17 -9 -31 0 -29 -36 -34 -44 -6 -17 62 -16 79 4 97 18 17 23 17 31 5 8 -11 9
-9 4 8 -9 30 14 135 31 145 8 5 14 24 14 45 0 39 30 99 54 108 8 3 12 12 9 19
-5 15 32 75 47 75 4 0 3 -15 -3 -32z m263 -52 c-13 -25 -38 -41 -48 -31 -3 3
7 19 23 35 32 34 45 32 25 -4z m-70 -75 c0 -12 -20 -25 -27 -18 -7 7 6 27 18
27 5 0 9 -4 9 -9z m1179 -12 c133 -23 218 -87 385 -293 48 -59 160 -227 186
-278 7 -16 17 -28 21 -28 5 0 16 -16 25 -35 9 -19 23 -35 32 -35 23 0 152
-141 152 -167 0 -12 4 -24 9 -27 5 -3 11 -23 14 -43 2 -21 10 -64 16 -96 7
-33 10 -66 6 -75 -5 -15 -9 -13 -26 8 l-21 25 8 -60 c9 -79 12 -258 4 -248 -4
5 -12 28 -20 53 -7 25 -19 59 -26 77 -8 17 -14 36 -14 43 0 7 -7 26 -14 43 -8
18 -29 77 -46 132 -41 130 -51 155 -61 155 -13 0 -11 -17 5 -53 43 -96 75
-227 51 -207 -7 6 -23 39 -36 73 -60 165 -194 384 -317 518 -38 42 -75 85 -83
95 -8 11 -39 40 -69 65 -30 24 -93 76 -140 115 -124 102 -198 145 -343 199
-42 16 -46 20 -30 29 16 9 115 20 227 24 22 1 69 -3 105 -9z m293 -88 c38 -43
30 -51 -11 -12 -18 17 -50 45 -72 63 -21 18 -39 36 -39 41 0 13 88 -54 122
-92z m-1914 60 c-16 -26 -80 -61 -110 -61 -13 0 -29 -5 -36 -12 -6 -6 -15 -9
-19 -5 -8 9 20 31 74 56 23 11 44 25 48 31 3 5 17 10 31 10 21 0 23 -2 12 -19z
m387 -11 c-3 -5 -10 -10 -16 -10 -5 0 -9 5 -9 10 0 6 7 10 16 10 8 0 12 -4 9
-10z m-550 -20 c-20 -22 -49 -27 -42 -7 2 6 11 11 21 9 9 -2 16 2 16 8 0 5 5
10 12 10 6 0 3 -9 -7 -20z m1466 -4 c80 -27 188 -88 284 -158 75 -56 72 -77
-6 -38 -66 34 -117 50 -215 65 -119 20 -299 20 -397 0 -43 -8 -85 -15 -93 -15
-23 0 -16 20 16 48 32 29 277 121 320 121 14 0 55 -10 91 -23z m-957 -27 c-9
-11 -19 -17 -21 -15 -8 7 21 45 30 39 4 -3 1 -14 -9 -24z m486 -139 c0 -5 -7
-10 -16 -10 -8 0 -12 5 -9 10 3 6 10 10 16 10 5 0 9 -4 9 -10z m575 -26 c191
-37 382 -141 516 -282 107 -111 145 -169 225 -347 56 -125 90 -310 99 -540 13
-348 16 -394 32 -459 14 -54 26 -77 60 -112 23 -24 46 -44 52 -44 6 0 11 -4
11 -10 0 -13 37 -50 50 -50 5 0 7 6 4 14 -4 11 3 14 29 12 19 -2 39 -6 46 -10
17 -11 13 -28 -6 -24 -22 3 -43 -9 -43 -26 0 -28 85 -47 108 -24 7 7 12 8 12
1 0 -5 -25 -33 -55 -62 -47 -45 -59 -51 -87 -47 -53 6 -97 26 -103 47 -4 10
-11 19 -16 19 -6 0 -7 5 -4 10 3 6 0 10 -8 10 -19 0 -43 -29 -50 -60 -12 -56
-38 -145 -46 -154 -15 -19 -24 -152 -11 -175 19 -36 29 -366 12 -398 -12 -22
-6 -60 13 -83 7 -8 15 -35 19 -60 4 -25 9 -56 11 -70 2 -14 7 -46 10 -73 7
-61 20 -93 50 -129 14 -16 23 -33 20 -37 -6 -11 42 -54 53 -47 11 7 74 -36
129 -88 24 -21 76 -60 116 -86 108 -69 215 -157 365 -299 74 -69 145 -133 158
-141 32 -20 30 -29 -7 -37 -17 -3 -33 -12 -36 -19 -3 -8 -18 -14 -34 -14 -41
0 -275 -124 -287 -152 -2 -5 -7 -8 -12 -8 -10 0 -116 -70 -175 -115 -50 -38
-85 -72 -85 -84 0 -5 -15 -14 -32 -21 -61 -22 -74 -30 -173 -95 -33 -22 -63
-44 -67 -49 -3 -6 -20 -17 -36 -25 -16 -9 -49 -29 -73 -45 -60 -40 -287 -152
-379 -188 -37 -14 -151 -37 -270 -54 -102 -14 -138 -15 -757 -10 -79 1 -143 4
-143 9 0 4 -16 7 -35 7 -19 0 -35 -4 -35 -10 0 -16 -33 -12 -105 15 -73 26
-88 35 -60 35 13 0 15 3 6 13 -6 8 -7 18 -3 22 4 5 -1 5 -11 2 -25 -9 -77 3
-77 18 0 7 14 18 30 24 17 5 30 8 30 5 0 -3 14 3 30 13 17 10 28 23 26 30 -3
7 4 17 14 23 17 9 20 7 20 -10 0 -24 31 -27 50 -5 10 13 9 15 -8 15 -34 0 -38
21 -9 45 15 11 27 28 27 38 0 9 5 17 10 17 6 0 15 10 20 23 12 26 30 56 46 74
6 6 9 23 7 36 -6 33 14 70 34 63 12 -5 14 1 11 34 -2 22 0 40 3 40 4 0 12 14
18 31 6 17 15 28 21 24 5 -3 14 5 20 19 5 14 15 26 21 26 7 0 9 3 5 7 -3 4 13
16 36 27 24 12 52 35 63 53 19 29 22 31 70 26 41 -4 57 -12 85 -41 19 -20 40
-52 45 -71 8 -28 17 -37 42 -42 25 -5 32 -3 36 12 3 13 14 19 31 19 14 0 26 6
26 13 0 7 13 27 30 45 16 18 27 38 24 46 -6 15 22 30 38 20 6 -4 8 1 3 15 -5
16 -1 23 20 33 l26 12 -26 21 c-25 23 -33 45 -15 45 15 0 13 107 -2 113 -8 3
-7 6 4 6 26 1 32 20 12 42 -13 14 -18 34 -16 65 1 29 -6 58 -19 84 -20 39 -21
42 -4 60 12 13 15 28 11 52 -3 18 -3 27 0 21 4 -9 11 -10 25 -3 25 14 24 34
-1 27 -18 -5 -20 -1 -18 34 2 23 8 39 16 39 13 0 16 13 5 24 -8 7 -5 161 3
191 10 34 34 84 45 90 5 4 7 15 4 25 -4 12 1 19 15 23 12 3 24 15 27 26 3 11
14 23 24 26 17 6 23 17 21 36 -1 4 10 10 23 13 16 4 25 13 25 26 0 11 7 20 16
20 8 0 13 4 10 9 -5 8 20 32 81 81 7 6 16 10 21 10 23 0 102 130 102 166 0 8
4 14 9 14 31 0 20 75 -12 84 -16 4 -19 8 -10 17 12 12 3 37 -24 67 -11 11 -15
9 -24 -15 l-11 -28 -20 25 -20 24 -18 -24 c-16 -21 -20 -22 -34 -10 -14 11
-21 11 -42 0 -21 -12 -29 -11 -54 3 -26 16 -33 16 -72 3 -41 -14 -77 -21 -88
-16 -16 6 -57 9 -178 15 -79 3 -153 12 -180 21 -47 16 -101 50 -115 71 -4 7
-14 10 -22 7 -37 -15 -62 127 -27 159 25 22 100 34 156 24 26 -4 51 -6 54 -2
12 12 -58 135 -83 147 -30 13 -41 48 -25 77 16 30 67 27 152 -9 47 -20 93 -32
139 -35 l69 -4 -3 34 c-2 18 -10 43 -18 55 -12 18 -18 20 -41 11 -39 -15 -49
-8 -101 63 -25 35 -61 76 -81 91 -31 23 -41 26 -73 20 -52 -11 -77 -7 -123 19
l-39 22 20 30 c10 17 31 37 45 45 24 13 28 12 48 -14 29 -36 36 -34 36 12 0
34 4 40 28 48 15 6 54 8 88 5 56 -4 62 -2 67 17 11 44 -64 154 -116 170 -18 5
-52 13 -77 16 -60 10 -120 41 -120 63 0 9 -3 26 -6 37 -3 13 3 30 18 47 44 51
90 124 146 233 8 17 25 41 37 55 34 39 63 122 60 171 -4 67 -33 156 -62 190
-26 31 -132 91 -168 96 -11 2 -46 4 -78 6 -53 3 -76 15 -77 38 0 8 67 76 102
104 14 11 33 34 44 50 10 17 29 41 41 55 13 14 23 28 23 31 0 10 91 55 145 73
105 34 293 38 440 10z m-2015 -10 c0 -8 -4 -14 -9 -14 -11 0 -22 26 -14 34 9
9 23 -3 23 -20z m2737 -28 c12 -13 19 -27 16 -30 -4 -3 2 -6 13 -6 20 -1 72
-70 52 -70 -12 0 -118 110 -118 122 0 15 17 8 37 -16z m-2684 -79 c-7 -12 -21
17 -22 48 -1 16 2 14 14 -9 8 -15 12 -33 8 -39z m157 43 c0 -11 -4 -20 -9 -20
-14 0 -23 18 -16 30 10 17 25 11 25 -10z m-46 -26 c17 -7 23 -54 6 -54 -10 0
-30 32 -30 49 0 13 3 13 24 5z m-39 -72 c6 -18 19 -38 30 -46 18 -13 17 -14
-12 -20 -17 -4 -34 -14 -37 -22 -12 -30 -22 -12 -19 33 3 41 2 45 -12 33 -26
-21 -28 -4 -4 29 27 37 40 35 54 -7z m-4 -129 c-12 -20 -14 -14 -5 12 4 9 9
14 11 11 3 -2 0 -13 -6 -23z m2900 -30 c13 -17 13 -17 -6 -3 -11 8 -22 16 -24
17 -2 2 0 3 6 3 6 0 17 -8 24 -17z m-2984 -49 c2 -49 -28 -134 -48 -134 -5 0
-9 -8 -9 -18 0 -26 -10 -33 -31 -21 -14 7 -19 6 -20 -3 -1 -15 -37 60 -38 79
-1 18 120 154 133 150 6 -2 12 -26 13 -53z m-149 -178 c5 -23 -6 -66 -17 -66
-10 0 -23 69 -15 82 9 14 29 4 32 -16z m170 -35 c14 -9 7 -61 -9 -61 -13 0
-31 40 -25 56 6 16 15 17 34 5z m-121 -12 c6 -6 9 -17 6 -25 -3 -8 6 -16 24
-20 29 -7 75 -34 58 -34 -6 0 -16 4 -24 9 -9 6 -27 1 -52 -12 l-39 -21 -21 20
c-20 20 -20 22 -2 57 19 38 31 45 50 26z m3523 -240 c0 -8 -32 18 -70 57 -91
93 -91 110 0 23 39 -37 70 -73 70 -80z m-3405 110 c4 -5 -1 -19 -11 -31 l-19
-20 -6 24 c-3 12 -4 26 -2 31 6 11 31 9 38 -4z m1256 -72 c9 -34 -5 -43 -36
-23 -29 19 -33 43 -7 49 27 7 35 2 43 -26z m2306 -65 c15 -89 18 -122 13 -122
-9 0 -36 113 -32 133 4 21 14 15 19 -11z m-2319 -4 c10 -10 15 -10 21 1 16 25
19 -37 3 -68 -10 -23 -12 -35 -4 -44 8 -10 7 -21 -3 -41 -19 -35 -19 -40 0
-32 20 7 19 -7 -4 -53 -11 -21 -23 -62 -27 -92 -9 -66 -74 -159 -111 -159 -14
0 -23 -6 -23 -15 0 -8 -4 -15 -10 -15 -15 0 -50 33 -50 47 0 7 -4 13 -8 13
-21 0 -44 193 -24 202 4 2 17 21 28 43 12 22 36 49 53 60 16 11 30 26 31 33 0
7 4 20 9 30 5 9 14 29 19 44 10 24 51 54 78 57 5 1 16 -5 22 -11z m2612 -69
c0 -5 -4 -9 -10 -9 -5 0 -10 7 -10 16 0 8 5 12 10 9 6 -3 10 -10 10 -16z
m-576 -183 c-3 -9 -10 -16 -15 -16 -5 0 -4 9 3 20 14 22 21 20 12 -4z m100
-194 c-21 -5 -46 6 -40 17 4 5 16 4 31 -2 18 -9 20 -13 9 -15z m-84 2 c0 -2
-16 -4 -36 -4 -19 0 -33 4 -30 8 5 8 66 4 66 -4z m-83 -10 c-3 -3 -12 -4 -19
-1 -8 3 -5 6 6 6 11 1 17 -2 13 -5z m153 -44 c0 -5 7 -10 15 -10 21 0 19 -27
-4 -40 -17 -8 -18 -15 -10 -42 10 -32 11 -125 4 -293 -4 -108 -4 -107 -14
-101 -5 4 -7 -11 -4 -33 3 -23 1 -41 -6 -45 -7 -5 -11 3 -11 23 0 16 -5 33
-11 37 -6 3 -9 20 -6 38 4 27 -2 48 -32 116 -4 8 -4 31 -1 50 8 43 -3 67 -44
102 -25 22 -27 28 -13 28 23 0 38 16 55 55 34 82 58 124 70 125 6 0 12 -4 12
-10z m-54 -37 c-10 -10 -19 5 -10 18 6 11 8 11 12 0 2 -7 1 -15 -2 -18z m131
-95 c-3 -7 -5 -2 -5 12 0 14 2 19 5 13 2 -7 2 -19 0 -25z m-359 -30 c-2 -6 8
-14 22 -18 32 -8 40 -45 11 -53 -15 -4 -23 3 -35 28 -18 38 -20 55 -6 55 6 0
9 -5 8 -12z m-88 -218 c0 -11 -6 -20 -13 -20 -8 0 -22 9 -32 20 -18 20 -17 20
13 20 25 0 32 -4 32 -20z m946 -862 c-3 -13 -6 -32 -6 -43 0 -18 -1 -18 -17
-2 -15 14 -15 20 -3 42 17 31 34 33 26 3z m3434 -1048 c0 -5 -2 -10 -4 -10 -3
0 -8 5 -11 10 -3 6 -1 10 4 10 6 0 11 -4 11 -10z m-3119 -490 c30 -5 75 -12
101 -15 71 -9 177 -84 314 -222 259 -261 372 -465 520 -938 65 -206 56 -233
-15 -49 -51 131 -71 173 -71 147 0 -7 14 -49 31 -95 98 -263 140 -527 104
-656 -10 -34 -21 -62 -25 -62 -9 0 -53 -100 -47 -106 6 -6 47 59 47 73 0 5 12
20 26 34 14 13 33 39 42 58 41 84 54 43 57 -182 2 -178 -8 -277 -29 -289 -6
-4 -22 -31 -35 -60 -13 -29 -31 -71 -41 -93 -20 -43 -25 -61 -65 -225 -40
-169 -137 -363 -230 -464 -25 -27 -45 -54 -45 -60 -1 -14 -109 -100 -117 -93
-3 3 10 19 28 34 50 41 103 98 120 130 7 15 17 30 20 33 3 3 14 21 24 40 10
19 21 37 24 40 7 6 81 156 81 165 0 16 -32 1 -46 -22 -66 -108 -109 -166 -112
-152 -2 10 11 40 28 68 18 28 29 57 27 63 -4 8 -8 4 -12 -9 -4 -13 -11 -23
-15 -23 -4 0 -11 -12 -15 -27 -3 -15 -20 -40 -36 -57 -16 -16 -29 -36 -29 -45
0 -8 -3 -12 -6 -8 -7 7 21 91 60 181 9 21 14 41 10 45 -4 3 -9 1 -11 -5 -2 -7
-20 -38 -39 -70 -20 -33 -51 -91 -71 -131 -32 -66 -73 -120 -73 -96 0 5 3 13
7 16 8 9 52 138 53 155 0 8 9 27 21 43 11 16 22 40 23 54 1 14 6 28 9 32 4 3
7 28 7 55 0 26 12 92 26 145 15 54 28 112 31 128 4 29 3 29 -11 11 -12 -15
-16 -16 -16 -5 0 23 37 49 70 49 17 0 30 4 30 9 0 11 -25 21 -52 21 -17 0 -18
3 -8 15 7 8 18 15 25 15 7 0 16 7 19 16 3 8 2 12 -4 9 -15 -9 -12 19 5 51 8
15 12 30 9 33 -8 8 -103 -101 -133 -154 -16 -27 -41 -63 -56 -79 l-27 -29 -32
38 c-32 38 -33 38 -86 31 -60 -8 -78 -15 -62 -25 6 -3 14 -20 18 -36 4 -17 3
-27 -1 -23 -4 4 -19 -2 -33 -12 -31 -25 -48 -25 -55 -1 -3 12 -13 19 -32 19
-23 0 -26 -4 -21 -24 9 -34 19 -160 13 -154 -3 3 -15 30 -27 60 -25 65 -70
144 -77 136 -3 -2 7 -31 22 -63 34 -75 91 -229 100 -270 4 -22 2 -39 -8 -53
-17 -25 -20 -22 -37 45 -7 28 -25 66 -39 85 -15 19 -49 73 -77 118 -56 96
-108 160 -103 127 6 -35 -16 -31 -27 4 -7 21 -13 29 -16 20 -8 -21 -42 2 -46
32 -3 19 -1 22 9 12 41 -40 34 12 -12 99 -11 22 -12 75 0 82 4 3 4 29 0 58 -5
29 -14 104 -20 166 -10 103 -10 117 7 147 15 28 16 38 6 57 -30 55 -41 72 -56
80 -9 5 -16 13 -16 19 0 5 9 4 19 -3 24 -15 55 6 48 32 -2 10 -1 24 4 31 4 8
1 43 -7 78 -18 78 -10 106 52 166 23 22 43 47 46 55 4 12 10 10 33 -8 44 -35
101 -46 160 -32 79 19 89 30 79 87 -8 44 -13 50 -54 71 -26 13 -62 22 -88 22
-31 0 -43 4 -39 13 64 169 78 291 44 401 -10 32 -20 56 -23 53 -2 -2 0 -15 5
-29 16 -42 22 -169 10 -205 -12 -36 -25 -43 -32 -15 -3 14 -6 12 -15 -9 -6
-15 -17 -29 -24 -32 -7 -2 -9 -8 -5 -13 4 -5 13 -2 18 6 8 11 12 12 16 2 2 -6
9 -10 14 -6 5 3 9 1 9 -4 0 -6 -7 -12 -15 -16 -8 -3 -14 -11 -13 -18 2 -7 -4
-12 -14 -10 -11 2 -18 -5 -20 -20 -2 -19 -10 -24 -42 -26 -21 -2 -49 -10 -62
-19 -27 -18 -48 -83 -40 -124 5 -28 -7 -48 -19 -29 -19 30 -75 -10 -75 -54 0
-28 -1 -29 -17 -14 -14 15 -20 15 -42 3 -14 -7 -39 -27 -55 -43 -27 -29 -28
-32 -13 -61 l15 -31 -37 0 c-30 0 -40 -5 -54 -30 -10 -16 -25 -30 -33 -30 -8
0 -12 -4 -9 -10 3 -5 -2 -10 -12 -11 -11 0 -13 -3 -5 -6 9 -3 5 -13 -13 -35
-19 -23 -25 -41 -25 -78 0 -66 -8 -84 -28 -68 -13 11 -14 10 -8 -10 7 -22 -7
-31 -19 -12 -7 12 -35 -12 -35 -30 0 -6 -8 -27 -19 -48 -18 -36 -18 -38 0 -77
10 -22 19 -34 19 -27 0 6 7 12 16 12 10 0 14 -6 10 -15 -3 -9 0 -15 9 -15 8 0
15 6 15 13 0 7 11 21 25 31 14 10 25 22 25 27 0 10 42 81 46 77 3 -4 -28 -97
-38 -113 -3 -5 -9 -25 -13 -42 -11 -56 -44 -68 -102 -41 -36 18 -81 -7 -105
-58 -11 -24 -24 -44 -29 -44 -13 0 -11 14 5 45 8 15 12 34 9 41 -12 32 104
326 180 459 57 99 98 148 205 245 52 47 122 114 156 150 33 35 76 79 93 98
l33 34 -48 -6 c-96 -11 -142 28 -163 138 -10 58 -2 135 24 201 18 48 98 135
123 135 13 0 26 5 29 10 10 15 -20 12 -89 -10 -44 -15 -67 -28 -76 -45 -7 -14
-18 -25 -24 -25 -18 -1 -73 -91 -90 -145 -15 -52 -20 -41 -16 35 3 65 70 160
146 207 17 11 15 12 -16 12 -47 1 -82 -9 -77 -22 2 -6 -18 -33 -45 -61 -26
-28 -48 -55 -48 -61 -1 -16 -40 -62 -40 -47 0 7 7 29 15 49 18 42 18 46 4 37
-6 -3 -22 -30 -35 -58 -20 -44 -24 -66 -24 -157 l0 -106 -25 5 c-26 4 -37 42
-12 42 9 0 9 2 -1 9 -11 7 -11 9 2 14 21 8 20 46 -1 54 -24 9 -33 23 -33 55 0
28 -16 78 -51 155 -10 24 -19 55 -19 69 0 15 -11 51 -25 81 -34 70 -48 194
-34 283 18 113 26 93 32 -75 4 -122 22 -202 52 -240 16 -19 16 -19 10 10 -4
17 -11 50 -15 75 -5 25 -12 59 -16 75 -5 17 -8 82 -7 145 2 113 2 115 30 138
15 13 46 32 68 42 22 11 56 31 75 45 53 40 95 55 205 75 114 21 217 24 296 10z
m2804 -299 c-1 -21 -7 -46 -13 -57 -10 -15 -11 -7 -10 42 1 42 6 60 14 57 6
-2 10 -21 9 -42z m-3562 -118 c5 -99 21 -179 59 -309 11 -39 18 -77 16 -85 -6
-16 -20 14 -36 76 -5 22 -20 74 -33 115 -17 55 -24 107 -27 194 -5 145 12 152
21 9z m-1693 -204 c68 0 105 -4 90 -8 -31 -10 -237 -14 -250 -6 -17 11 1 27
24 21 11 -3 73 -6 136 -7z m-230 -16 c47 -9 139 -17 205 -18 66 -1 135 -6 154
-11 33 -9 33 -10 16 -27 -9 -10 -39 -29 -65 -42 -27 -13 -50 -28 -52 -32 -1
-4 -32 -33 -68 -63 -36 -30 -72 -62 -80 -71 -8 -9 -46 -41 -85 -71 -38 -31
-82 -68 -96 -84 -25 -28 -60 -59 -146 -126 -53 -41 -101 -45 -119 -9 l-12 23
-12 -22 c-16 -30 -4 -87 21 -101 15 -7 20 -18 17 -33 -3 -17 3 -28 24 -42 15
-10 28 -25 28 -32 0 -9 -9 -7 -29 7 -16 12 -33 21 -39 21 -5 0 -7 11 -5 24 4
17 0 25 -16 29 -13 3 -21 13 -21 26 0 42 -78 83 -108 58 -11 -9 -10 -12 7 -19
25 -9 27 -26 6 -34 -8 -4 -15 -15 -15 -26 0 -18 1 -18 23 -3 12 8 23 20 23 25
1 6 2 13 3 18 1 4 8 -6 16 -21 19 -37 4 -82 -22 -68 -10 5 -31 12 -46 16 -15
3 -25 10 -22 15 3 6 3 10 -2 10 -4 0 -18 3 -30 6 -17 5 -23 2 -23 -10 0 -28
-20 -17 -26 14 -4 17 -10 30 -15 30 -5 0 -9 5 -9 10 0 6 7 10 15 10 8 0 15 -4
15 -10 0 -11 69 -32 82 -24 7 5 5 27 -9 77 -2 9 -14 17 -25 17 -17 0 -18 2 -8
15 10 12 10 18 0 30 -6 8 -8 20 -4 26 4 7 8 35 10 63 2 28 12 78 22 111 37
112 52 131 79 104 11 -11 -2 -64 -29 -116 -6 -13 -9 -25 -6 -28 5 -5 20 26 52
108 l15 37 58 -6 c32 -4 66 -11 76 -16 20 -10 220 -8 257 3 24 7 24 7 -5 9
-16 0 -82 3 -147 4 -64 2 -145 9 -180 15 -75 13 -229 39 -278 46 -18 3 -36 8
-39 10 -5 5 40 9 74 7 18 -2 19 -1 3 9 -31 18 -21 32 17 25 20 -4 63 -9 96
-11 57 -5 60 -4 54 15 -4 11 -2 20 4 20 6 0 11 -4 11 -10 0 -5 7 -10 15 -10
18 0 20 27 3 32 -6 2 -9 11 -6 19 5 13 28 15 146 12 138 -3 202 2 202 17 0 4
-11 11 -25 14 -14 4 -25 11 -25 16 0 13 0 13 100 -7z m-210 -3 c0 -5 -9 -10
-20 -10 -11 0 -20 5 -20 10 0 6 9 10 20 10 11 0 20 -4 20 -10z m-211 -36 c9
-3 11 -8 5 -14 -12 -12 -66 2 -72 18 -4 12 21 10 67 -4z m-199 -68 c0 -11 -19
-15 -25 -6 -3 5 1 10 9 10 9 0 16 -2 16 -4z m-74 -33 c-8 -8 -36 5 -36 17 0 7
6 7 21 0 11 -7 18 -14 15 -17z m-3 -87 c-10 -14 -21 -26 -25 -26 -15 0 -8 27
14 50 27 29 36 10 11 -24z m70 31 c3 -7 -10 -44 -28 -82 -36 -75 -46 -63 -19
21 9 27 17 55 20 62 5 16 21 16 27 -1z m5828 -40 c-8 -8 -11 -4 -11 14 0 33
14 47 18 19 2 -12 -1 -27 -7 -33z m-5749 33 c16 0 19 -5 15 -22 -11 -46 -69
-203 -78 -212 -19 -20 -8 86 16 150 14 37 23 69 20 72 -7 7 -8 5 -43 -78 -33
-78 -42 -78 -18 0 27 87 35 102 52 96 9 -3 25 -6 36 -6z m4315 -283 c120 -156
212 -321 278 -500 10 -26 20 -45 22 -43 9 9 42 -33 63 -81 12 -26 32 -101 46
-167 24 -114 24 -119 7 -139 -18 -19 -17 -19 5 -13 20 7 22 4 23 -26 4 -100
-21 -207 -51 -215 -13 -4 -13 -3 0 6 13 9 12 12 -7 17 -41 11 -45 84 -5 113
22 17 24 22 12 30 -8 5 -17 8 -21 5 -4 -2 -2 13 4 33 9 28 9 37 -1 41 -8 2
-12 27 -13 70 0 37 -6 85 -14 107 -13 40 -13 40 -14 -45 -2 -100 -18 -221 -31
-234 -6 -6 -10 -18 -10 -29 0 -10 -4 -16 -8 -13 -5 3 -5 30 -1 60 15 116 10
221 -21 378 -17 84 -34 164 -39 178 -5 14 -15 45 -22 70 -7 25 -24 68 -37 95
-22 46 -97 163 -111 175 -4 3 -13 18 -21 34 -30 58 -35 66 -45 66 -12 0 -38
41 -55 85 -10 25 -9 27 6 14 9 -7 36 -40 61 -72z m-1557 -7 c0 -5 5 -10 11
-10 5 0 7 5 3 11 -4 7 0 10 11 7 10 -1 23 -11 29 -21 9 -15 5 -23 -24 -48 -38
-33 -91 -69 -101 -69 -14 0 -16 40 -3 51 12 10 13 8 8 -7 -5 -12 5 -7 28 16
33 32 35 36 21 57 -14 21 -14 23 1 23 9 0 16 -4 16 -10z m79 -119 c-8 -17 -20
-31 -27 -31 -7 0 -18 -12 -25 -27 -7 -16 -19 -29 -27 -31 -8 -2 -24 -15 -35
-30 -11 -15 -28 -35 -37 -44 -10 -10 -18 -22 -18 -26 0 -5 -13 -15 -30 -23
-16 -8 -47 -39 -68 -69 -22 -31 -45 -54 -53 -52 -9 1 -25 -15 -38 -39 -13 -22
-30 -43 -38 -46 -8 -3 -12 -11 -10 -17 3 -7 -1 -20 -9 -31 -16 -22 -18 -39 -4
-30 9 6 -19 -47 -61 -115 -5 -8 -13 -24 -18 -35 -5 -11 -21 -31 -37 -45 l-27
-25 23 40 c13 22 27 42 30 45 14 12 28 60 23 79 -15 59 87 233 226 383 33 36
57 68 51 70 -6 2 -6 8 0 18 8 13 10 12 10 -2 0 -22 13 -23 31 -2 22 27 169
125 178 118 2 -2 -3 -17 -10 -33z m1501 -97 c0 -8 23 -53 50 -101 28 -48 50
-90 50 -94 0 -15 -20 -20 -25 -7 -12 35 -27 66 -45 93 -11 17 -23 37 -26 45
-16 34 -44 111 -44 118 1 13 40 -40 40 -54z m-4181 -61 c-1 -32 -4 -67 -7 -77
-4 -19 -5 -19 -18 -1 -13 17 -14 17 -14 1 0 -9 -5 -14 -11 -11 -13 9 -1 67 17
81 8 7 14 16 13 20 -4 22 2 44 12 44 6 0 9 -23 8 -57z m-72 -13 c2 -13 1 -31
-2 -40 -5 -11 -10 -6 -21 19 -18 43 -18 53 3 49 9 -2 18 -14 20 -28z m-267 10
c0 -5 -7 -10 -15 -10 -8 0 -15 5 -15 10 0 6 7 10 15 10 8 0 15 -4 15 -10z
m3254 1 c17 -7 16 -10 -12 -40 -16 -18 -33 -47 -36 -63 -3 -16 -10 -27 -14
-24 -5 3 -14 -6 -20 -19 -7 -16 -20 -25 -33 -25 -21 0 -21 1 5 25 14 13 26 28
26 34 0 5 7 17 16 25 10 10 11 16 3 16 -8 0 -8 4 -2 13 6 6 13 24 17 40 7 28
17 31 50 18z m-2854 -47 c0 4 9 2 20 -4 11 -6 20 -20 20 -30 0 -11 5 -20 10
-20 6 0 10 6 10 13 0 23 22 38 37 26 22 -19 15 -36 -21 -53 -44 -21 -45 -21
-56 10 -13 34 -33 26 -41 -17 -9 -42 -6 -45 27 -30 33 15 46 5 20 -15 -46 -33
-107 -5 -74 34 24 27 32 72 13 72 -8 0 -15 4 -15 9 0 14 24 19 38 8 6 -5 12
-6 12 -3z m5294 -15 c-8 -14 -24 -10 -24 6 0 9 6 12 15 9 8 -4 12 -10 9 -15z
m-5514 -9 c0 -5 -4 -10 -10 -10 -5 0 -10 5 -10 10 0 6 5 10 10 10 6 0 10 -4
10 -10z m-30 -50 c12 -8 9 -10 -13 -10 -16 0 -26 4 -22 10 8 12 16 12 35 0z
m170 -26 c0 -20 -3 -23 -17 -15 -10 5 -27 12 -38 16 -19 6 -19 7 -2 20 26 19
57 8 57 -21z m169 -48 c-9 -8 -10 -7 -5 7 3 10 7 24 7 30 1 7 3 4 6 -7 3 -10
-1 -23 -8 -30z m241 15 c0 -6 -4 -13 -10 -16 -5 -3 -10 1 -10 9 0 9 5 16 10
16 6 0 10 -4 10 -9z m3904 -3 c13 -14 46 -133 46 -169 0 -32 -7 -20 -14 24 -3
22 -13 48 -21 60 -8 12 -15 33 -15 47 0 14 -5 31 -12 38 -7 7 -9 12 -4 12 4 0
13 -6 20 -12z m-1524 -7 c0 -5 -7 -12 -16 -15 -14 -5 -15 -4 -4 9 14 17 20 19
20 6z m-2910 -11 c0 -5 -4 -10 -10 -10 -5 0 -10 5 -10 10 0 6 5 10 10 10 6 0
10 -4 10 -10z m70 -16 c0 -8 -4 -12 -10 -9 -5 3 -10 10 -10 16 0 5 5 9 10 9 6
0 10 -7 10 -16z m70 12 c0 -11 -19 -15 -25 -6 -3 5 1 10 9 10 9 0 16 -2 16 -4z
m145 -35 c3 -5 1 -12 -5 -16 -5 -3 -10 1 -10 9 0 18 6 21 15 7z m-214 -44 c-8
-8 -11 -5 -11 9 0 27 14 41 18 19 2 -9 -1 -22 -7 -28z m199 -17 c-13 -23 -30
-35 -30 -20 0 20 21 51 31 45 6 -4 5 -13 -1 -25z m231 -43 c-13 -13 -14 5 -3
43 l7 25 3 -29 c2 -16 -1 -33 -7 -39z m-121 -76 c-9 -17 -8 -21 5 -21 19 0 19
-19 -1 -45 -12 -17 -16 -18 -24 -5 -5 7 -5 21 -1 29 5 9 6 21 4 28 -2 7 1 22
8 35 7 13 14 18 16 11 3 -7 -1 -21 -7 -32z m-410 20 c0 -6 -4 -13 -10 -16 -5
-3 -10 1 -10 9 0 9 5 16 10 16 6 0 10 -4 10 -9z m4500 -21 c0 -5 -2 -10 -4
-10 -3 0 -8 5 -11 10 -3 6 -1 10 4 10 6 0 11 -4 11 -10z m0 -39 c0 -11 -4 -23
-10 -26 -6 -4 -10 5 -10 19 0 14 5 26 10 26 6 0 10 -9 10 -19z m-4500 -5 c0
-8 3 -21 6 -30 4 -11 1 -16 -10 -16 -19 0 -31 23 -22 45 7 19 26 20 26 1z
m487 -48 c-3 -8 -6 -5 -6 6 -1 11 2 17 5 13 3 -3 4 -12 1 -19z m-388 -28 c6 0
11 -5 11 -11 0 -5 -4 -7 -10 -4 -5 3 -10 1 -10 -4 0 -25 -18 -8 -22 21 -4 26
-3 28 7 15 7 -10 17 -17 24 -17z m4398 -122 c-13 -321 -46 -495 -132 -703 -21
-49 -48 -103 -60 -120 -13 -16 -33 -48 -45 -70 -12 -22 -44 -68 -71 -101 -27
-34 -49 -66 -49 -70 0 -15 -117 -124 -131 -124 -8 1 0 13 17 28 34 30 78 88
88 116 5 14 2 17 -10 12 -10 -4 -14 -2 -11 6 2 7 14 12 26 11 24 -3 65 51 77
102 4 17 14 35 22 41 9 7 13 20 9 33 -3 11 -1 19 3 16 12 -8 33 33 26 51 -3 8
1 26 10 40 9 13 12 24 8 24 -5 0 -2 6 7 13 9 7 18 23 22 37 3 14 12 45 21 70
25 73 112 361 124 410 6 25 16 104 22 175 13 138 15 155 26 155 4 0 4 -69 1
-152z m-4527 110 c0 -13 -23 -5 -28 10 -2 7 2 10 12 6 9 -3 16 -11 16 -16z
m515 -28 c-7 -21 -20 -19 -20 3 -1 12 17 29 23 22 2 -2 1 -13 -3 -25z m-581
-25 c-4 -8 -8 -15 -10 -15 -2 0 -4 7 -4 15 0 8 4 15 10 15 5 0 7 -7 4 -15z
m2553 -214 c0 -23 -6 -31 -25 -36 -33 -8 -37 -1 -22 35 17 40 47 41 47 1z
m2145 -46 c-2 -14 -6 -25 -8 -25 -2 0 -4 11 -4 25 0 14 4 25 9 25 4 0 6 -11 3
-25z m-2632 -12 c25 -32 22 -74 -7 -142 l-17 -39 -17 22 c-10 12 -20 39 -24
59 -4 20 -11 37 -16 37 -5 0 -14 11 -20 24 -28 62 57 94 101 39z m571 -7 c50
-34 128 -188 136 -269 6 -57 8 -60 75 -120 82 -74 107 -121 115 -219 3 -40 12
-86 21 -102 18 -37 37 -222 35 -343 -2 -85 5 -110 22 -83 8 13 51 13 74 0 10
-5 33 -12 52 -15 21 -3 44 -17 60 -36 25 -31 26 -31 91 -24 56 6 71 4 108 -15
30 -15 45 -19 53 -11 17 17 42 14 29 -2 -9 -10 0 -19 41 -41 29 -15 63 -33 77
-41 14 -8 35 -15 47 -15 11 0 54 -11 95 -25 40 -14 85 -25 101 -25 35 0 183
-51 245 -85 26 -14 70 -30 97 -35 28 -6 68 -15 90 -20 22 -4 41 -7 43 -5 2 2
-17 13 -42 25 -24 13 -47 31 -49 41 -3 11 -14 19 -25 19 -29 0 -52 10 -52 24
0 6 -17 19 -38 29 -20 9 -61 33 -91 52 -29 18 -79 42 -110 51 -71 22 -85 34
-40 34 39 0 107 -21 165 -51 45 -23 74 -25 74 -5 0 8 4 18 10 21 12 8 120 -21
178 -48 29 -13 46 -16 55 -9 8 7 16 5 26 -5 12 -13 11 -14 -9 -8 -15 5 -20 4
-16 -4 4 -6 14 -11 22 -11 8 0 17 -13 21 -30 6 -34 18 -46 28 -30 4 6 1 18 -6
26 -6 8 -9 18 -5 21 4 4 11 1 16 -7 5 -8 13 -15 17 -16 23 -2 64 -26 69 -39 3
-8 21 -17 40 -21 27 -5 34 -11 34 -30 0 -15 6 -24 15 -24 9 0 15 9 15 25 0 16
-6 25 -15 25 -8 0 -15 9 -15 20 0 10 -6 23 -13 27 -7 4 -20 20 -30 36 -10 15
-25 27 -35 27 -15 0 -15 2 -2 10 9 6 10 10 3 10 -7 0 -27 16 -46 35 -72 74
-249 142 -442 170 -17 3 -40 -2 -55 -12 -14 -9 -32 -18 -40 -19 -8 0 -42 -8
-75 -17 -59 -16 -83 -14 -55 3 8 6 22 10 31 10 9 0 24 12 34 26 l17 27 -58 -8
c-33 -4 -73 -15 -90 -26 -17 -10 -38 -19 -45 -18 -8 0 -1 6 15 13 25 12 26 14
9 18 -11 3 -51 -1 -89 -8 -103 -20 -116 -16 -49 15 77 36 175 51 345 53 143 2
146 2 305 -59 132 -49 186 -74 225 -104 44 -33 91 -49 146 -49 37 0 46 -5 71
-37 16 -21 44 -64 62 -96 21 -37 43 -62 60 -69 27 -10 105 -48 178 -86 36 -18
42 -25 34 -40 -8 -14 -3 -19 37 -32 37 -12 47 -20 46 -36 0 -20 6 -22 76 -27
47 -3 93 -13 118 -25 50 -24 65 -22 160 25 94 47 152 100 152 139 l-1 29 -17
-27 c-9 -16 -22 -28 -29 -28 -7 0 -13 -7 -13 -15 0 -15 -34 -38 -43 -29 -3 3
-3 22 0 41 8 49 -13 35 -27 -18 -12 -42 -28 -53 -118 -80 -32 -9 -45 -10 -54
-1 -7 7 -21 12 -31 12 -17 0 -17 2 4 19 18 15 21 22 12 32 -13 16 -38 82 -55
144 -7 21 -22 49 -35 61 -13 12 -23 24 -23 27 0 9 34 -5 42 -17 11 -17 20 0
13 24 -5 15 -12 19 -27 14 -17 -5 -19 -3 -13 14 5 17 -1 25 -27 38 -30 15 -78
58 -78 70 0 10 -74 69 -86 69 -7 0 -20 9 -28 20 -8 11 -18 17 -22 13 -3 -4
-18 2 -32 12 -13 11 -34 20 -44 20 -11 0 -22 8 -24 18 -4 15 -17 17 -86 16
-59 -1 -86 2 -96 13 -8 8 -27 17 -43 20 -15 3 -28 8 -27 12 3 29 -4 33 -59 27
-72 -6 -83 -8 -83 -13 0 -12 22 -43 31 -43 5 0 23 -10 39 -22 70 -51 5 -64
-69 -13 -27 19 -53 30 -56 25 -4 -6 -14 -5 -26 3 -16 10 -21 9 -29 -3 -5 -8
-12 -12 -15 -8 -10 10 36 67 72 89 17 11 48 44 68 74 20 30 41 55 46 55 30 0
239 233 239 266 0 8 7 17 15 21 9 3 23 19 31 35 20 38 30 30 90 -75 26 -45 67
-113 92 -150 29 -43 54 -98 69 -150 26 -91 43 -113 123 -164 30 -20 82 -63
115 -97 87 -88 204 -191 250 -222 44 -29 76 -60 120 -117 27 -37 29 -46 36
-175 4 -75 15 -159 23 -186 18 -56 21 -167 5 -183 -6 -6 -12 -32 -13 -59 -3
-52 -24 -132 -38 -148 -4 -6 -8 -18 -8 -27 0 -9 -7 -22 -15 -29 -8 -7 -17 -28
-20 -49 -3 -20 -11 -56 -16 -80 -5 -24 -8 -45 -6 -48 3 -2 19 27 37 64 31 67
32 68 49 47 10 -12 26 -56 36 -98 l18 -77 -24 -26 c-41 -45 -105 -67 -189 -65
-59 1 -80 6 -100 22 -14 11 -49 32 -78 46 -38 18 -52 30 -50 42 3 14 14 17 62
15 38 -1 56 2 54 9 -2 6 7 22 20 35 23 23 23 25 7 43 -13 15 -22 17 -36 10
-10 -6 -29 -10 -43 -10 -23 0 -25 3 -23 41 l2 41 -63 23 c-34 12 -65 19 -68
14 -3 -5 -24 6 -47 26 -22 19 -46 35 -53 35 -7 0 -22 10 -34 22 -11 12 -20 17
-20 12 0 -6 -1 -90 -2 -189 l-3 -178 37 -11 c20 -6 49 -22 64 -34 15 -14 34
-22 45 -19 11 3 17 1 14 -3 -3 -5 3 -14 14 -19 27 -15 31 -14 24 5 -4 12 4 11
39 -8 28 -14 41 -26 34 -30 -10 -7 15 -10 104 -13 41 -1 60 -11 60 -29 0 -24
-53 -36 -147 -32 -51 2 -93 0 -93 -4 0 -5 115 -50 143 -56 4 -1 10 -2 15 -3 4
-1 -1 -6 -10 -11 -32 -19 -165 -12 -193 10 -5 5 -35 15 -65 24 -65 19 -73 24
-89 53 -16 31 -14 43 10 43 11 0 17 4 14 10 -3 5 -18 8 -33 6 -15 -2 -21 -1
-14 1 6 2 12 8 12 13 0 5 -7 7 -16 3 -12 -4 -14 0 -9 20 4 14 4 31 0 37 -8 13
-18 93 -19 153 -1 20 -5 37 -10 37 -13 0 3 70 24 99 24 34 35 71 21 71 -6 0
-11 -9 -11 -20 0 -11 -2 -20 -4 -20 -2 0 -12 -3 -22 -7 -14 -5 -16 -2 -10 18
25 81 25 91 5 86 -10 -3 -19 0 -19 5 0 6 -8 17 -17 24 -14 10 -15 16 -6 22 9
6 7 12 -7 22 -11 8 -20 25 -20 37 0 13 -4 23 -10 23 -5 0 -10 8 -10 18 0 9 -5
24 -11 32 -11 16 -10 4 18 -125 9 -43 13 -74 17 -124 3 -27 10 -48 20 -53 20
-11 21 -28 2 -28 -7 0 -19 -7 -26 -15 -14 -17 -30 -11 -30 13 0 16 -27 91 -56
157 -16 36 -19 8 -3 -32 6 -15 11 -41 11 -57 -1 -16 4 -39 10 -50 7 -12 13
-37 15 -56 2 -19 5 -45 8 -57 4 -15 1 -21 -7 -18 -17 7 -38 53 -38 82 0 22
-36 84 -53 91 -4 2 -5 8 -1 13 3 5 0 9 -6 9 -7 0 -9 -9 -5 -22 3 -13 10 -39
14 -58 5 -19 18 -66 29 -105 11 -38 25 -94 31 -123 6 -29 27 -99 47 -155 20
-56 37 -111 38 -122 2 -41 -20 -21 -44 38 -23 57 -73 143 -101 176 -7 7 -17
29 -24 47 -6 19 -21 46 -34 60 -71 82 -220 362 -227 426 -3 35 -2 37 12 23 9
-9 14 -18 11 -21 -8 -8 33 -84 44 -84 14 0 11 16 -6 30 -12 10 -12 16 -4 26 9
11 -2 27 -50 76 -34 35 -85 93 -114 130 -28 37 -56 68 -61 68 -4 0 -38 31 -75
68 -82 84 -131 125 -198 164 -29 16 -53 36 -53 43 0 15 46 -7 163 -79 38 -22
87 -52 110 -65 23 -13 46 -30 50 -37 4 -8 15 -14 24 -14 12 0 14 7 10 35 -3
19 -2 37 3 40 13 8 30 65 19 65 -5 0 -9 -5 -9 -11 0 -7 -10 -27 -21 -46 l-22
-34 -32 34 c-18 19 -56 50 -86 69 -30 19 -76 49 -104 67 -27 17 -65 36 -85 42
-20 6 -58 31 -85 55 -26 24 -49 44 -51 44 -7 0 30 -78 62 -130 35 -57 43 -85
68 -236 20 -115 20 -120 2 -104 -14 11 -25 32 -71 133 -22 47 -31 41 -15 -10
18 -55 62 -129 115 -193 35 -42 44 -61 40 -80 -3 -14 -7 -64 -9 -111 -4 -75
-2 -90 17 -120 26 -42 47 -97 47 -126 0 -28 -72 -77 -100 -68 -28 9 -180 172
-180 194 0 11 -9 23 -20 26 -11 3 -20 13 -20 21 0 8 -7 17 -15 20 -8 4 -15 10
-15 15 0 6 -6 17 -12 25 -7 8 -18 20 -23 27 -6 7 -22 30 -36 52 -42 63 -140
158 -192 185 l-47 25 -25 -30 c-28 -35 -30 -44 -11 -59 8 -6 17 -22 21 -36 8
-25 7 -25 -19 4 -20 21 -30 26 -39 17 -8 -8 -3 -19 21 -44 17 -18 36 -47 43
-65 6 -17 15 -32 21 -32 9 0 9 22 -5 158 -3 28 -3 52 -1 52 2 0 12 -7 23 -17
17 -14 18 -18 4 -31 -13 -13 -9 -20 29 -61 24 -25 46 -48 49 -51 3 -3 20 -27
39 -55 18 -27 46 -62 62 -78 15 -15 28 -34 28 -42 0 -8 36 -51 80 -96 44 -44
80 -86 80 -92 0 -8 -4 -7 -12 1 -7 7 -19 12 -27 12 -8 0 -23 7 -33 17 -10 9
-21 14 -24 11 -8 -8 140 -151 219 -211 37 -29 63 -53 59 -55 -15 -5 -156 65
-182 90 -36 34 -116 88 -132 88 -7 0 -30 16 -51 35 -24 22 -43 32 -54 28 -10
-4 -14 -2 -10 4 4 6 -12 29 -35 50 -90 83 -90 83 -78 98 6 7 7 16 2 19 -5 3
-12 28 -16 56 -6 45 -9 50 -26 45 -15 -5 -24 1 -38 25 -49 90 -102 139 -102
95 0 -8 4 -15 8 -15 4 0 25 -33 46 -72 20 -40 45 -85 54 -100 22 -36 8 -47
-22 -19 -27 25 -41 57 -51 111 -11 64 -61 102 -84 63 -19 -33 -12 9 9 56 11
24 20 45 20 46 0 2 -12 5 -27 7 -46 5 -40 33 14 68 39 25 55 30 85 25 20 -3
40 0 43 5 4 6 11 8 16 5 5 -4 9 7 9 23 0 40 -29 64 -68 56 -32 -6 -41 -14
-105 -82 -48 -52 -72 -60 -106 -35 -32 25 -43 68 -14 59 15 -5 24 3 41 33 32
57 46 64 118 65 50 1 69 5 78 19 16 21 26 22 26 2 0 -8 -4 -15 -10 -15 -5 0
-10 -5 -10 -11 0 -8 4 -8 14 0 11 9 15 9 19 -1 2 -7 4 6 3 30 0 23 -1 42 -2
42 -1 0 -19 -7 -40 -16 -28 -12 -54 -14 -97 -9 -56 6 -61 4 -88 -21 -40 -38
-44 -27 -9 26 49 75 54 80 72 80 9 0 19 8 23 19 11 35 43 54 93 55 47 1 47 1
45 34 -3 70 -60 101 -187 101 -61 0 -94 5 -105 14 -9 8 -25 17 -36 20 -22 8
-25 11 56 -57 70 -60 57 -193 -33 -333 -39 -60 -66 -81 -88 -68 -5 3 -20 8
-32 10 -13 3 -24 9 -26 15 -2 5 -13 10 -25 10 -28 1 -113 43 -110 56 1 5 -3
14 -8 20 -9 11 -17 46 -23 107 -2 28 -23 50 -38 41 -16 -10 3 143 20 155 4 4
8 43 9 89 1 51 10 105 22 140 11 31 27 101 37 155 17 97 17 98 -3 118 -17 18
-102 43 -188 56 -16 2 -40 6 -51 8 -27 6 -106 70 -97 79 4 3 -8 1 -26 -5 -18
-6 -39 -22 -48 -35 -14 -22 -17 -23 -33 -9 -21 19 -40 19 -40 0 0 -9 -9 -26
-21 -38 -18 -19 -18 -22 -4 -25 15 -3 15 -5 -2 -17 -13 -10 -23 -11 -38 -2
-11 6 -23 10 -27 9 -11 -3 -30 27 -25 41 3 8 38 30 79 50 40 20 96 49 123 64
47 26 57 28 168 27 l118 0 -53 19 c-29 11 -58 27 -65 36 -14 19 -111 20 -183
2 -111 -28 -141 -38 -152 -53 -16 -19 -48 -31 -48 -17 0 7 -10 9 -25 5 -18 -5
-27 -1 -35 14 -10 18 -5 28 35 73 63 70 93 90 214 150 106 52 118 68 33 48
-114 -28 -220 -66 -253 -93 -20 -15 -42 -28 -48 -28 -6 0 -11 -5 -11 -11 0
-30 -86 19 -111 64 -20 35 30 87 204 214 41 30 200 93 235 93 23 0 143 -34
195 -55 9 -4 17 -3 17 3 0 5 -13 15 -28 21 -45 19 -89 61 -73 70 9 6 7 10 -8
14 -26 6 -67 -3 -161 -38 -41 -15 -96 -29 -122 -31 -54 -4 -79 13 -113 78 -18
35 -18 38 -2 55 35 39 172 102 253 117 111 20 125 19 165 -8z m-2498 -11 c-3
-9 -8 -14 -10 -11 -3 3 -2 9 2 15 9 16 15 13 8 -4z m4647 3 c0 -7 -9 -24 -20
-38 -11 -14 -20 -29 -20 -35 -1 -16 -38 -60 -45 -54 -3 4 6 29 20 57 14 27 25
57 25 66 0 9 8 16 20 16 11 0 20 -6 20 -12z m-386 -70 c-4 -18 -7 -43 -6 -56
4 -51 -65 -272 -84 -272 -7 0 -14 -6 -17 -12 -2 -7 -2 -4 0 7 3 11 9 47 14 80
5 32 19 80 31 105 13 25 23 47 24 50 0 3 4 28 8 55 10 65 13 75 26 75 8 0 9
-11 4 -32z m416 -131 c0 -7 -6 -33 -14 -58 -8 -24 -17 -55 -20 -69 -3 -14 -27
-48 -53 -77 -27 -28 -65 -70 -86 -94 -71 -79 -68 -6 3 76 28 32 150 217 150
226 0 5 5 9 10 9 6 0 10 -6 10 -13z m-90 -22 c-7 -8 -9 -15 -5 -15 5 0 1 -8
-7 -17 -8 -10 -21 -33 -29 -50 -14 -34 -29 -43 -29 -19 0 16 72 127 78 121 3
-3 -1 -11 -8 -20z m-4539 -78 c-8 -8 -11 -1 -11 24 0 46 14 60 18 19 2 -18 -1
-37 -7 -43z m4657 -40 c-2 -27 -10 -44 -25 -54 -25 -16 -24 -20 -3 75 12 52
16 59 23 40 4 -12 7 -40 5 -61z m1269 1 c-3 -8 -6 -5 -6 6 -1 11 2 17 5 13 3
-3 4 -12 1 -19z m-1331 -83 c-4 -14 -2 -34 3 -43 7 -14 4 -25 -16 -48 -14 -16
-33 -38 -42 -50 -9 -11 -36 -33 -61 -49 -53 -35 -124 -91 -199 -157 -103 -93
-88 -67 31 55 66 67 140 150 166 185 25 34 49 62 53 62 4 0 17 16 29 35 25 41
45 46 36 10z m-996 -121 c0 -9 -15 -31 -34 -48 -18 -18 -39 -43 -46 -56 -10
-21 -10 -23 1 -12 7 6 17 12 21 12 17 0 6 -25 -38 -87 -31 -44 -51 -63 -61
-59 -8 3 -19 6 -24 6 -18 0 -8 15 22 32 17 10 28 22 24 27 -3 6 5 19 17 30 12
12 18 21 13 21 -5 0 -19 -10 -32 -22 -28 -26 -30 -10 -3 34 22 37 119 138 132
138 4 0 8 -7 8 -16z m2344 -224 c-6 -23 -7 -24 -14 -5 -11 25 -12 138 -3 162
10 23 25 -122 17 -157z m-529 -40 c3 -5 -1 -10 -9 -10 -9 0 -16 5 -16 10 0 6
4 10 9 10 6 0 13 -4 16 -10z m522 -27 c-3 -10 -5 -4 -5 12 0 17 2 24 5 18 2
-7 2 -21 0 -30z m-2502 18 c7 -13 -32 -34 -47 -25 -7 5 -5 11 7 21 22 15 32
16 40 4z m2812 -63 c-3 -8 -6 -5 -6 6 -1 11 2 17 5 13 3 -3 4 -12 1 -19z
m-3973 -13 c-4 -8 -8 -15 -10 -15 -2 0 -4 7 -4 15 0 8 4 15 10 15 5 0 7 -7 4
-15z m3686 -35 c0 -11 -4 -20 -10 -20 -5 0 -10 9 -10 20 0 11 5 20 10 20 6 0
10 -9 10 -20z m-11595 -34 c13 -13 45 -35 71 -48 26 -12 60 -35 77 -50 16 -16
31 -28 34 -28 2 0 11 -7 19 -15 9 -8 11 -15 5 -15 -16 0 -46 18 -126 76 -39
28 -81 56 -93 63 -12 6 -22 18 -22 26 0 21 7 19 35 -9z m9525 -21 c-7 -8 -17
-15 -23 -15 -6 0 -2 7 9 15 25 19 30 19 14 0z m-8365 -56 c22 -6 87 -34 145
-62 87 -43 119 -65 184 -129 55 -55 104 -91 165 -124 47 -25 110 -69 139 -97
28 -28 52 -46 52 -40 0 15 -48 99 -65 113 -8 7 -12 16 -9 21 9 15 40 10 67
-11 14 -11 31 -20 39 -20 7 0 42 -23 77 -52 l64 -52 31 19 c139 81 212 98 328
75 47 -9 76 -23 120 -56 32 -25 81 -53 110 -63 120 -42 175 -76 303 -186 190
-163 287 -271 306 -339 5 -19 36 -63 69 -99 33 -36 60 -72 60 -80 0 -8 13 -29
30 -47 39 -42 39 -55 -2 -45 -18 5 -48 8 -66 7 -60 -1 -119 40 -220 154 -15
17 -44 41 -64 53 -21 12 -38 26 -38 31 0 8 -41 22 -48 15 -2 -2 4 -15 13 -29
18 -27 6 -36 -15 -11 -6 8 -22 17 -33 21 -12 4 -31 16 -43 28 -97 98 -214 196
-236 196 -8 0 -19 5 -25 11 -6 6 -26 12 -44 14 -19 3 -52 8 -74 14 -106 24
-105 24 -105 8 0 -20 34 -39 63 -35 17 2 21 -2 20 -17 -4 -35 20 -67 75 -98
30 -16 59 -38 65 -48 7 -11 16 -19 22 -19 5 -1 23 -11 38 -24 28 -22 28 -23 8
-29 -12 -3 -21 -1 -21 4 0 5 -7 9 -16 9 -17 0 -87 28 -179 70 -33 16 -75 31
-92 35 -28 6 -33 4 -33 -13 0 -11 8 -23 17 -26 10 -4 60 -35 113 -70 52 -34
122 -80 155 -101 51 -32 295 -265 295 -281 0 -3 -39 16 -87 42 -49 27 -114 61
-146 76 -31 16 -79 44 -105 62 -26 19 -72 44 -103 55 -56 21 -119 74 -101 85
6 3 33 -12 62 -35 28 -22 54 -39 56 -36 5 5 -141 127 -153 127 -3 0 4 -11 17
-25 31 -33 19 -32 -49 6 -31 17 -47 24 -37 15 11 -9 17 -18 14 -21 -8 -9 -58
35 -58 51 0 19 -90 59 -152 68 -27 4 -48 11 -48 15 0 13 47 41 79 47 16 4 43
20 60 36 l30 29 48 -21 c191 -87 318 -121 151 -42 -48 23 -90 42 -94 42 -21 0
-122 56 -139 77 -18 22 -31 26 -92 29 -51 3 -82 10 -109 26 l-37 22 7 -35 c4
-18 11 -60 15 -92 9 -67 -1 -78 -46 -54 -337 175 -465 250 -498 293 -14 19
-34 34 -44 34 -10 0 -24 15 -34 35 -9 19 -23 35 -31 35 -8 0 -46 29 -85 65
-52 47 -79 65 -99 65 -15 0 -38 7 -50 16 -28 19 -16 39 29 49 49 11 41 22 -21
29 -33 4 -60 12 -60 18 0 14 -57 3 -105 -22 -50 -26 -167 -20 -205 11 -14 10
-51 39 -83 64 -49 38 -55 45 -40 53 15 9 10 14 -30 33 -26 13 -47 26 -47 31 0
16 41 28 131 39 52 7 117 15 144 20 66 10 349 2 400 -12z m8761 -117 c-9 -8
-56 31 -56 46 0 11 8 8 30 -13 16 -16 28 -30 26 -33z m-969 -8 c-7 -7 -77 -23
-77 -18 0 7 43 23 64 23 11 1 17 -2 13 -5z m-8580 -54 c6 0 16 -7 23 -15 11
-13 8 -13 -17 -5 -15 6 -35 20 -42 33 -13 21 -13 22 6 5 11 -10 24 -18 30 -18z
m7148 1 c5 -22 10 -417 6 -468 -1 -7 -14 -13 -30 -13 -16 0 -37 -7 -45 -16
-10 -9 -24 -13 -36 -9 -22 7 -48 45 -30 45 5 0 10 7 10 15 0 8 -4 15 -10 15
-12 0 -31 -35 -23 -44 3 -3 -7 -6 -23 -7 -16 0 -23 -3 -16 -6 10 -4 8 -9 -7
-20 -12 -8 -21 -20 -21 -26 -1 -7 -9 -30 -20 -52 -11 -22 -19 -44 -20 -50 0
-5 -13 -44 -30 -85 -42 -107 -37 -53 6 66 20 54 42 117 48 139 7 22 15 47 19
55 3 8 15 38 26 65 10 28 38 92 60 143 23 51 41 99 41 107 0 16 37 129 52 158
13 26 36 20 43 -12z m1672 13 c-3 -3 -12 -4 -19 -1 -8 3 -5 6 6 6 11 1 17 -2
13 -5z m-84 -11 c-7 -2 -21 -2 -30 0 -10 3 -4 5 12 5 17 0 24 -2 18 -5z m1164
-39 c-3 -3 -12 -4 -19 -1 -8 3 -5 6 6 6 11 1 17 -2 13 -5z m-9802 -31 c24 -16
34 -28 26 -31 -7 -2 -16 0 -20 5 -3 5 -21 15 -38 22 -18 7 -30 17 -27 22 8 14
16 11 59 -18z m10055 -4 c0 -5 14 -15 30 -20 31 -11 38 -23 19 -35 -6 -3 -24
6 -40 22 -30 29 -37 44 -19 44 6 0 10 -5 10 -11z m-10232 -14 c15 -8 52 -26
82 -40 30 -13 62 -29 70 -34 8 -6 35 -19 60 -30 54 -23 98 -67 102 -101 3 -22
-1 -25 -30 -27 -20 -1 -43 7 -60 20 -15 12 -43 29 -62 38 -120 57 -167 83
-194 108 -11 11 -33 24 -48 30 -16 6 -28 17 -28 25 0 27 68 34 108 11z m10108
-6 c8 -14 -20 -10 -41 5 -18 13 -18 14 8 9 15 -3 30 -9 33 -14z m-9831 -47
c-7 -8 -35 7 -35 18 0 6 7 6 20 -2 10 -7 17 -14 15 -16z m10050 -1 c9 -15 -12
-22 -42 -14 l-28 7 25 7 c36 10 38 10 45 0z m-9954 -68 c13 -15 12 -15 -8 -4
-24 12 -29 21 -14 21 5 0 15 -7 22 -17z m65 -31 c44 -24 148 -96 152 -104 2
-5 8 -8 14 -8 12 0 265 -167 273 -180 4 -6 15 -10 26 -10 11 0 18 -4 14 -9
-10 -18 -99 28 -195 102 -27 20 -53 37 -58 37 -5 0 -16 7 -23 16 -7 9 -22 20
-34 25 -36 17 -68 37 -74 47 -3 5 -32 24 -63 41 -53 30 -91 62 -72 61 5 -1 23
-9 40 -18z m273 -33 c18 -6 38 -24 46 -40 17 -32 20 -75 6 -84 -14 -8 -60 14
-107 52 -23 18 -53 38 -68 44 -14 7 -26 16 -26 20 0 19 102 24 149 8z m-269
-169 c0 -5 -4 -10 -10 -10 -5 0 -10 5 -10 10 0 6 5 10 10 10 6 0 10 -4 10 -10z
m586 -51 c81 -43 203 -113 277 -162 23 -15 60 -36 82 -48 22 -11 54 -30 72
-42 17 -12 59 -37 92 -56 63 -35 79 -64 41 -74 -14 -3 -20 -14 -20 -31 0 -14
-2 -26 -5 -26 -3 0 -27 14 -55 31 -51 31 -63 49 -33 49 13 0 14 3 5 12 -9 9
-15 9 -24 0 -15 -15 -23 -15 -40 1 -7 7 -28 23 -46 36 -18 12 -30 26 -27 31 6
10 -24 22 -37 14 -5 -4 -23 3 -39 15 -15 11 -30 21 -33 21 -23 0 -377 232
-373 245 4 10 39 22 68 24 9 1 51 -18 95 -40z m-396 -61 c46 -27 49 -40 16
-73 -19 -19 -33 -24 -58 -21 -20 3 -40 -2 -50 -11 -9 -8 -38 -16 -65 -18 -26
-1 -57 -4 -68 -6 -12 -3 -19 1 -17 9 1 6 -7 12 -18 12 -17 0 -19 4 -14 28 10
40 26 53 101 78 87 29 125 29 173 2z m376 -65 c38 -25 19 -28 -21 -3 -46 28
-67 49 -60 61 4 5 17 -2 31 -16 14 -14 36 -33 50 -42z m6272 6 c18 -6 30 -15
27 -19 -5 -8 -65 16 -65 26 0 6 3 5 38 -7z m-6430 -70 c64 -39 131 -82 149
-95 17 -13 36 -24 42 -24 6 0 11 -11 11 -25 0 -16 -6 -25 -15 -25 -8 0 -15 -9
-15 -20 0 -15 -16 -28 -62 -49 -75 -35 -185 -51 -310 -45 -55 3 -88 0 -88 -6
0 -5 -18 -21 -40 -35 -31 -20 -56 -26 -113 -29 -58 -3 -86 -10 -146 -40 -41
-20 -75 -36 -76 -36 0 0 -2 15 -3 32 -2 18 -14 44 -27 58 -14 15 -25 30 -25
35 0 5 -9 18 -20 30 -12 13 -18 29 -14 38 9 24 51 21 65 -4 6 -12 14 -18 18
-13 8 12 58 34 76 34 7 0 20 -6 27 -14 8 -7 29 -17 48 -21 l34 -7 -18 27 c-10
15 -15 29 -12 32 3 4 1 12 -5 19 -21 26 22 61 136 110 119 50 176 81 188 100
16 27 39 44 58 44 11 0 73 -32 137 -71z m332 -51 c0 -12 -6 -9 -26 13 -19 22
-19 22 4 8 12 -8 22 -17 22 -21z m51 -35 c13 -16 12 -17 -3 -4 -10 7 -18 15
-18 17 0 8 8 3 21 -13z m594 -23 c8 -13 -5 -13 -25 0 -13 8 -13 10 2 10 9 0
20 -4 23 -10z m7465 -40 c0 -13 -1 -13 -10 0 -5 8 -10 22 -10 30 0 13 1 13 10
0 5 -8 10 -22 10 -30z m-1791 -4 c8 -9 17 -13 22 -10 5 3 23 -4 39 -16 16 -12
34 -19 39 -16 10 6 71 -58 71 -74 0 -14 -5 -13 -45 10 -20 11 -38 20 -40 20
-3 0 -5 -9 -5 -20 0 -11 6 -19 12 -17 7 1 14 -8 16 -20 2 -13 7 -23 11 -23 4
0 13 -16 20 -35 7 -19 19 -35 27 -35 12 0 13 8 8 35 -4 23 -2 35 5 35 6 0 11
-3 12 -7 0 -5 2 -18 3 -30 1 -12 16 -37 33 -57 17 -19 34 -43 36 -53 47 -167
47 -346 -1 -405 -15 -18 -37 -34 -49 -36 -25 -3 -30 7 -12 25 8 8 6 18 -6 36
-18 28 -80 46 -98 28 -19 -19 -22 -12 -19 37 2 27 2 62 0 78 -4 26 -5 25 -19
-21 -14 -50 -14 -50 -20 110 -3 88 -9 173 -14 189 -6 22 -5 28 6 24 8 -3 17
-21 20 -41 3 -21 9 -40 12 -44 21 -20 -9 140 -39 213 -34 81 -54 123 -64 129
-5 3 -10 11 -10 16 0 12 32 -4 49 -25z m2058 -64 c99 -146 170 -390 180 -618
4 -88 2 -133 -5 -138 -6 -3 -14 4 -17 15 -4 12 -14 38 -23 58 -19 47 -24 81
-22 165 1 63 0 68 -14 57 -13 -11 -16 -11 -16 1 0 8 7 23 15 34 19 26 19 36
-2 32 -20 -4 -43 47 -43 94 0 15 -4 30 -10 33 -5 3 -10 15 -10 27 0 11 -20 81
-45 156 -25 74 -45 136 -45 138 0 14 31 -15 57 -54z m-217 -114 c22 -97 94
-256 151 -333 17 -22 58 -83 92 -135 34 -52 70 -104 80 -115 43 -46 69 -87 77
-120 12 -52 -3 -50 -31 3 -13 26 -31 57 -39 68 -8 12 -22 32 -30 44 -8 13 -35
51 -60 84 -25 34 -57 79 -70 101 -13 22 -33 51 -46 65 -31 35 -132 236 -140
279 -4 20 -15 72 -25 115 -19 83 -15 123 8 68 7 -17 22 -73 33 -124z m-1099
120 c-1 -5 -1 -24 -1 -43 0 -30 -3 -35 -24 -35 -32 0 -76 17 -76 29 0 14 72
62 88 59 7 -2 13 -6 13 -10z m-551 -23 c0 -8 -2 -15 -4 -15 -2 0 -6 7 -10 15
-3 8 -1 15 4 15 6 0 10 -7 10 -15z m-4856 -140 c59 -58 140 -127 179 -154 86
-57 101 -74 93 -99 -4 -10 0 -32 9 -48 26 -50 16 -56 -23 -14 -44 45 -76 56
-43 14 12 -15 21 -33 21 -40 0 -8 4 -14 10 -14 5 0 17 -17 27 -37 9 -21 19
-41 21 -45 7 -15 -21 -8 -50 14 -29 20 -30 22 -13 35 18 12 18 14 -3 36 -12
13 -22 28 -22 34 0 6 -11 18 -25 27 -31 20 -32 10 -3 -21 38 -40 12 -36 -32 5
-62 60 -121 143 -115 163 4 10 -5 25 -22 40 -16 13 -34 44 -42 69 -7 24 -28
63 -47 86 -31 37 -40 54 -31 54 2 0 52 -47 111 -105z m5390 53 c20 -28 20 -75
1 -108 -22 -38 -19 -70 6 -70 14 0 19 -5 17 -17 -5 -26 -50 -28 -72 -4 -17 18
-16 21 15 76 l31 56 -25 36 c-14 20 -24 40 -21 45 9 15 33 8 48 -14z m-8056
-85 c-3 -35 -6 -38 -35 -41 -28 -3 -31 -1 -26 20 7 29 32 58 50 58 10 0 13
-10 11 -37z m8300 -196 c28 -89 52 -168 52 -175 0 -7 7 -26 15 -43 9 -16 13
-34 10 -40 -8 -12 -66 51 -62 66 2 5 -2 15 -9 22 -6 7 -15 41 -19 75 -6 55
-30 167 -51 236 -3 12 -2 22 2 22 5 0 33 -73 62 -163z m37 133 c9 -16 11 -30
6 -30 -11 0 -31 32 -31 49 0 19 9 12 25 -19z m146 -68 c-19 -6 -91 61 -91 85
0 12 14 3 50 -32 28 -28 46 -51 41 -53z m-6503 32 c24 -16 67 -92 58 -101 -12
-13 -136 86 -136 108 0 15 54 10 78 -7z m5688 -135 c4 -37 3 -97 -2 -135 -9
-69 -9 -69 -15 66 -4 74 -10 155 -13 180 l-6 45 15 -45 c8 -25 18 -75 21 -111z
m2284 84 c0 -10 -11 -23 -25 -30 -29 -13 -31 -6 -9 25 18 26 34 29 34 5z m333
-93 c4 -14 0 -20 -13 -20 -13 0 -16 6 -12 25 5 28 17 26 25 -5z m-333 -45 c0
-36 -4 -65 -10 -65 -5 0 -9 8 -8 18 4 49 -3 74 -22 79 -34 9 -22 33 17 33 22
0 23 -4 23 -65z m-58 -27 c-15 -15 -27 14 -17 40 6 15 8 15 18 -6 7 -16 7 -26
-1 -34z m-7605 -40 c35 -17 63 -35 63 -39 0 -4 -31 8 -70 27 -63 30 -83 44
-63 44 4 0 35 -14 70 -32z m4207 17 c-6 -16 -24 -21 -24 -7 0 11 11 22 21 22
5 0 6 -7 3 -15z m944 -120 c14 -2 22 1 22 11 0 16 36 19 45 4 3 -5 -3 -10 -14
-10 -14 0 -21 -6 -21 -20 0 -17 -3 -18 -26 -10 -21 9 -29 7 -40 -7 -7 -10 -14
-25 -14 -33 0 -8 -5 -22 -11 -30 -7 -11 -8 -3 -3 30 9 63 23 97 33 82 4 -7 17
-14 29 -17z m1572 -149 c0 -2 -8 -10 -17 -17 -16 -13 -17 -12 -4 4 13 16 21
21 21 13z m-60 -71 c-7 -9 -23 -21 -34 -27 -20 -11 -20 -10 -6 8 19 26 43 45
48 39 3 -2 -1 -12 -8 -20z m215 -33 c-6 -23 -8 -24 -16 -9 -7 11 -6 24 2 39
15 28 24 9 14 -30z m790 -137 c7 -158 3 -206 -9 -90 -10 107 -14 280 -6 265 4
-8 11 -87 15 -175z m-345 104 c0 -11 -4 -17 -10 -14 -5 3 -10 13 -10 21 0 8 5
14 10 14 6 0 10 -9 10 -21z m-456 -14 c-4 -8 -10 -12 -15 -9 -11 6 -2 24 11
24 5 0 7 -7 4 -15z m1406 -43 c0 -21 -6 -46 -12 -55 -16 -21 -78 -35 -78 -18
0 10 80 111 88 111 1 0 2 -17 2 -38z m-3507 -367 c-3 -9 -8 -14 -10 -11 -3 3
-2 9 2 15 9 16 15 13 8 -4z m-65 -72 c-17 -64 -18 -66 -24 -61 -7 8 17 98 26
98 5 0 4 -17 -2 -37z m46 -3 c-5 -28 -3 -40 6 -40 6 0 23 -9 37 -20 16 -13 34
-18 48 -14 13 3 26 0 30 -6 9 -15 -25 -52 -42 -46 -7 3 -20 3 -29 -1 -11 -4
-5 -13 27 -34 33 -21 47 -25 65 -19 27 11 37 -2 47 -57 6 -31 5 -33 -21 -33
-15 0 -61 13 -102 30 -41 16 -87 29 -102 30 -15 0 -29 4 -32 9 -13 21 51 241
70 241 2 0 1 -18 -2 -40z m251 -47 c-10 -28 -25 -123 -26 -173 -1 -63 -17 -23
-18 45 -1 52 26 145 42 145 5 0 6 -8 2 -17z m1 -289 c-6 -16 -8 -16 -16 -4 -6
8 -10 24 -10 35 0 18 1 18 16 3 10 -10 14 -23 10 -34z m-822 -410 c-5 -18 -1
-29 12 -40 18 -14 17 -15 -11 -9 -38 8 -37 6 -23 43 15 38 31 43 22 6z m-842
-72 c40 -26 98 -89 98 -105 0 -23 -26 -28 -64 -12 -43 18 -58 39 -22 29 51
-12 49 8 -5 57 -54 49 -57 64 -7 31z m999 -19 c13 -15 12 -15 -8 -4 -24 12
-29 21 -14 21 5 0 15 -7 22 -17z m89 -47 c0 -3 -4 -8 -10 -11 -5 -3 -10 -1
-10 4 0 6 5 11 10 11 6 0 10 -2 10 -4z m-930 -51 c13 -16 4 -39 -12 -29 -7 5
-9 1 -5 -9 8 -22 -6 -29 -28 -13 -18 13 -18 15 -2 40 20 30 29 32 47 11z m705
-54 c22 -11 64 -24 93 -31 48 -11 52 -14 52 -41 0 -22 -5 -29 -20 -29 -11 0
-20 5 -20 11 0 5 -4 7 -10 4 -5 -3 -10 -1 -10 4 0 6 7 11 15 11 8 0 15 5 15
10 0 6 -13 10 -29 10 -16 0 -37 3 -47 7 -12 4 -15 3 -10 -5 4 -7 16 -12 28
-12 13 0 18 -5 15 -14 -3 -8 9 -21 31 -33 35 -18 37 -21 36 -66 -3 -67 64
-237 112 -287 74 -77 69 -70 48 -69 -10 0 -54 6 -97 13 -66 11 -80 10 -84 -1
-3 -7 -12 -13 -20 -13 -11 0 -13 7 -8 28 5 24 1 30 -27 45 -68 35 -89 53 -109
92 -12 22 -28 52 -36 67 -27 52 -41 202 -26 291 6 37 7 39 37 33 17 -4 49 -15
71 -25z m203 -148 c3 -100 16 -165 47 -238 14 -31 14 -37 2 -27 -23 19 -67
127 -77 185 -8 54 -5 160 5 178 14 22 21 -6 23 -98z m-691 25 c-3 -8 -6 -5 -6
6 -1 11 2 17 5 13 3 -3 4 -12 1 -19z m-512 -298 c3 -5 2 -10 -4 -10 -5 0 -13
5 -16 10 -3 6 -2 10 4 10 5 0 13 -4 16 -10z m1425 -140 c0 -11 -7 -20 -15 -20
-8 0 -15 9 -15 20 0 11 7 20 15 20 8 0 15 -9 15 -20z m-435 -198 c-3 -26 -2
-41 1 -34 4 9 13 5 29 -14 17 -19 28 -24 44 -19 14 4 23 2 27 -8 6 -16 68 -32
85 -22 14 9 -11 37 -27 31 -7 -3 -16 -1 -19 4 -10 16 14 21 50 11 28 -8 37 -6
44 6 21 39 25 -69 5 -140 -5 -15 -14 -17 -72 -11 -37 4 -81 15 -99 25 -27 15
-33 16 -43 4 -16 -19 -30 -10 -30 18 0 36 -18 5 -23 -40 -4 -44 0 -52 20 -32
8 8 15 5 26 -11 8 -12 23 -20 33 -18 15 2 20 -4 22 -32 2 -19 8 -40 13 -47 7
-8 0 -16 -25 -28 -20 -10 -36 -21 -36 -25 0 -5 -8 -6 -19 -3 -10 3 -22 0 -26
-7 -5 -8 -10 -8 -20 0 -12 10 -18 0 -32 -49 -10 -34 -21 -61 -26 -61 -7 0 -6
7 18 110 20 85 43 237 50 325 3 44 8 90 11 102 11 39 24 14 19 -35z m276 -214
c-9 -32 -9 -31 -10 19 -1 28 2 60 7 70 11 29 15 -49 3 -89z m-49 -40 c7 -20
-12 -119 -26 -139 -12 -18 -14 -17 -32 17 -18 34 -18 36 -1 48 9 7 17 17 17
23 0 14 24 63 32 63 3 0 8 -5 10 -12z m-50 -210 c-7 -7 -10 -5 -7 8 5 29 6 30
12 16 3 -8 1 -18 -5 -24z m-6392 -583 c0 -15 -18 -30 -27 -22 -2 3 -2 15 2 26
7 23 25 19 25 -4z m-218 0 c0 -5 -5 -11 -11 -13 -6 -2 -11 4 -11 13 0 9 5 15
11 13 6 -2 11 -8 11 -13z"/>
<path d="M8568 14203 c7 -3 16 -2 19 1 4 3 -2 6 -13 5 -11 0 -14 -3 -6 -6z"/>
<path d="M8632 14203 c-16 -6 49 -38 99 -48 34 -6 34 -6 8 8 -14 8 -37 17 -52
21 -15 3 -27 11 -27 16 0 11 -7 11 -28 3z"/>
<path d="M8770 14133 c0 -8 17 -20 80 -57 l35 -20 -25 26 c-27 28 -90 63 -90
51z"/>
<path d="M8160 14051 c0 -4 11 -6 25 -3 14 2 25 6 25 8 0 2 -11 4 -25 4 -14 0
-25 -4 -25 -9z"/>
<path d="M8275 13970 c3 -5 8 -10 11 -10 2 0 4 5 4 10 0 6 -5 10 -11 10 -5 0
-7 -4 -4 -10z"/>
<path d="M8328 13933 c12 -2 30 -2 40 0 9 3 -1 5 -23 4 -22 0 -30 -2 -17 -4z"/>
<path d="M8980 13840 c0 -5 5 -10 11 -10 10 0 127 -78 160 -106 8 -8 22 -14
30 -14 26 0 -107 101 -166 126 -21 8 -35 10 -35 4z"/>
<path d="M8444 13716 c-15 -32 9 -44 29 -16 8 11 28 21 45 23 54 6 48 17 -9
17 -47 0 -55 -3 -65 -24z"/>
<path d="M8613 13730 c-27 -11 -29 -23 -8 -40 18 -15 40 -1 48 30 6 22 -5 24
-40 10z"/>
<path d="M8710 13726 c0 -9 7 -16 16 -16 17 0 14 22 -4 28 -7 2 -12 -3 -12
-12z"/>
<path d="M8197 13724 c-12 -12 4 -24 31 -24 26 1 26 1 8 15 -22 17 -30 18 -39
9z"/>
<path d="M9230 13650 c14 -11 30 -20 35 -20 6 0 -1 9 -15 20 -14 11 -29 20
-35 20 -5 0 1 -9 15 -20z"/>
<path d="M9307 13643 c-4 -3 -7 -11 -7 -17 0 -6 5 -5 12 2 6 6 9 14 7 17 -3 3
-9 2 -12 -2z"/>
<path d="M9530 11960 c0 -8 5 -22 10 -30 9 -13 10 -13 10 0 0 8 -5 22 -10 30
-9 13 -10 13 -10 0z"/>
<path d="M9761 11774 c0 -11 3 -14 6 -6 3 7 2 16 -1 19 -3 4 -6 -2 -5 -13z"/>
<path d="M9923 11403 c-7 -3 -13 -12 -13 -21 0 -15 2 -15 17 1 18 18 16 27 -4
20z"/>
<path d="M9925 10660 c3 -5 8 -10 11 -10 2 0 4 5 4 10 0 6 -5 10 -11 10 -5 0
-7 -4 -4 -10z"/>
<path d="M10026 10655 c-3 -8 -1 -15 4 -15 6 0 10 7 10 15 0 8 -2 15 -4 15 -2
0 -6 -7 -10 -15z"/>
<path d="M9825 10540 c11 -5 27 -9 35 -9 13 -1 13 0 0 9 -8 5 -24 9 -35 9
l-20 0 20 -9z"/>
<path d="M9515 10520 c-3 -5 -1 -10 4 -10 6 0 11 5 11 10 0 6 -2 10 -4 10 -3
0 -8 -4 -11 -10z"/>
<path d="M8107 12754 c-28 -9 -16 -37 25 -56 49 -23 52 -31 28 -70 -11 -18
-20 -49 -20 -68 0 -21 -14 -63 -35 -103 l-35 -67 24 0 c14 0 27 -4 30 -8 7
-12 -31 -51 -60 -62 -35 -14 -29 -28 14 -35 61 -10 68 -13 40 -14 -47 -2 -78
-22 -78 -50 0 -39 14 -53 55 -57 20 -2 49 -10 65 -17 26 -14 30 -13 50 8 22
23 22 76 0 83 -5 2 -10 8 -10 13 0 8 66 2 83 -8 4 -2 7 0 7 6 0 6 -9 15 -19
21 -18 9 -61 69 -61 84 0 3 7 6 15 6 8 0 15 -4 15 -8 0 -15 50 -32 95 -32 45
0 54 7 34 27 -7 7 -7 13 -1 17 6 3 18 -1 27 -10 9 -9 24 -14 35 -11 23 6 51
-25 79 -87 20 -46 78 -92 129 -102 30 -6 32 -5 32 23 0 17 -10 42 -24 58 -28
33 -47 70 -71 138 -23 66 -168 214 -226 232 -45 14 -77 55 -43 55 8 0 22 6 29
14 20 19 93 28 135 16 l35 -10 -25 20 c-14 11 -54 26 -90 34 -69 16 -253 28
-283 20z m367 -345 c25 -19 55 -69 98 -161 24 -52 3 -48 -23 5 -12 23 -44 72
-70 110 -51 69 -52 83 -5 46z"/>
<path d="M7950 9620 c0 -5 5 -10 10 -10 6 0 10 5 10 10 0 6 -4 10 -10 10 -5 0
-10 -4 -10 -10z"/>
<path d="M7976 9438 c-9 -34 -8 -38 9 -38 10 0 15 10 15 30 0 35 -15 40 -24 8z"/>
<path d="M10244 8208 c-52 -26 -74 -69 -74 -146 0 -63 24 -116 59 -127 23 -7
97 11 106 25 3 6 16 10 28 10 26 0 51 46 45 82 -4 22 -4 22 -18 -4 -15 -32
-31 -35 -54 -12 -21 21 -20 57 2 77 24 22 41 21 58 0 12 -16 13 -15 14 14 0
19 -9 43 -24 59 l-23 28 -34 -20 c-33 -19 -34 -22 -37 -88 -3 -58 0 -72 18
-91 23 -24 18 -35 -16 -35 -33 0 -64 45 -64 92 0 61 24 106 65 124 20 8 33 19
30 24 -9 15 -36 11 -81 -12z"/>
<path d="M11191 8030 c0 -8 6 -26 14 -40 8 -14 14 -19 14 -10 0 8 -6 26 -14
40 -8 14 -14 19 -14 10z"/>
<path d="M11228 7105 c-8 -8 3 -109 13 -119 5 -6 9 15 9 51 0 56 -8 81 -22 68z"/>
<path d="M10317 7047 c-24 -175 -21 -195 53 -316 27 -45 50 -87 50 -92 0 -5 4
-9 8 -9 15 0 12 68 -4 116 -9 27 -18 60 -20 74 -9 70 -25 135 -33 138 -6 2 -6
11 2 23 10 17 9 22 -5 33 -9 7 -20 24 -23 39 -11 43 -22 40 -28 -6z"/>
<path d="M9717 6946 c-3 -8 -2 -18 4 -22 16 -9 22 2 11 21 -8 15 -10 16 -15 1z"/>
<path d="M10450 6651 c0 -5 7 -12 16 -15 14 -5 15 -4 4 9 -14 17 -20 19 -20 6z"/>
<path d="M11310 6560 c0 -5 5 -10 11 -10 5 0 7 5 4 10 -3 6 -8 10 -11 10 -2 0
-4 -4 -4 -10z"/>
<path d="M11282 6511 c4 -13 18 -16 19 -4 0 4 -5 9 -11 12 -7 2 -11 -2 -8 -8z"/>
<path d="M10545 6481 c-3 -5 -1 -12 5 -16 5 -3 10 1 10 9 0 18 -6 21 -15 7z"/>
<path d="M11107 6163 c-4 -3 -7 -11 -7 -17 0 -6 5 -5 12 2 6 6 9 14 7 17 -3 3
-9 2 -12 -2z"/>
<path d="M7680 8352 c0 -12 100 -21 107 -9 2 4 -14 7 -36 7 -21 0 -46 3 -55 6
-9 3 -16 2 -16 -4z"/>
<path d="M7350 8295 c0 -9 6 -12 15 -9 8 4 15 10 15 15 0 5 -7 9 -15 9 -8 0
-15 -7 -15 -15z"/>
<path d="M7515 8290 c-3 -5 0 -10 7 -10 8 -1 7 -5 -5 -14 -13 -10 -15 -15 -5
-18 14 -5 37 19 38 40 0 14 -26 16 -35 2z"/>
<path d="M7325 8260 c-4 -6 12 -10 42 -9 36 0 43 3 28 9 -28 12 -63 12 -70 0z"/>
<path d="M7425 8260 c-3 -5 3 -10 15 -10 12 0 18 5 15 10 -3 6 -10 10 -15 10
-5 0 -12 -4 -15 -10z"/>
<path d="M7165 8240 c-3 -5 -1 -10 4 -10 6 0 11 5 11 10 0 6 -2 10 -4 10 -3 0
-8 -4 -11 -10z"/>
<path d="M7351 8093 c-1 -6 -4 -20 -7 -30 -5 -17 -5 -17 6 0 6 10 9 23 6 30
-3 9 -5 9 -5 0z"/>
<path d="M7412 8065 c0 -16 2 -22 5 -12 2 9 2 23 0 30 -3 6 -5 -1 -5 -18z"/>
<path d="M7211 8003 c-1 -6 -4 -20 -7 -30 -5 -17 -5 -17 6 0 6 10 9 23 6 30
-3 9 -5 9 -5 0z"/>
<path d="M7471 7974 c0 -11 3 -14 6 -6 3 7 2 16 -1 19 -3 4 -6 -2 -5 -13z"/>
<path d="M7277 7903 c-4 -3 -7 -13 -7 -21 0 -7 -10 -22 -22 -33 l-23 -18 23
-1 c14 0 22 -6 22 -17 0 -40 14 2 15 47 2 53 2 54 -8 43z"/>
<path d="M7175 7870 c-8 -12 20 -24 35 -15 5 3 10 10 10 16 0 12 -37 12 -45
-1z"/>
<path d="M9746 6236 c23 -7 46 -16 53 -20 6 -4 11 -3 11 3 0 6 -17 15 -37 20
-54 15 -76 12 -27 -3z"/>
<path d="M11675 5710 c3 -5 10 -10 16 -10 5 0 9 5 9 10 0 6 -7 10 -16 10 -8 0
-12 -4 -9 -10z"/>
<path d="M10050 5550 c0 -11 5 -20 10 -20 6 0 10 9 10 20 0 11 -4 20 -10 20
-5 0 -10 -9 -10 -20z"/>
<path d="M10167 5533 c-4 -3 -7 -17 -7 -29 0 -13 -10 -35 -23 -49 -19 -23 -26
-25 -50 -16 -15 6 -27 15 -27 21 0 5 -4 10 -10 10 -5 0 -10 -13 -10 -30 0 -23
4 -30 20 -30 11 0 38 -17 61 -37 40 -36 40 -36 33 -9 -7 29 15 55 49 56 9 0
17 5 17 10 0 6 9 10 20 10 11 0 20 5 20 10 0 6 6 10 14 10 11 0 8 11 -11 40
-22 33 -32 40 -58 40 -17 0 -35 -3 -38 -7z"/>
<path d="M10410 5405 c-21 -25 -1 -31 23 -7 17 18 18 22 5 22 -8 0 -21 -7 -28
-15z"/>
<path d="M10345 5370 c-19 -8 -19 -9 2 -9 12 -1 25 4 28 9 7 12 -2 12 -30 0z"/>
<path d="M11460 5205 c0 -8 -9 -15 -20 -15 -11 0 -20 -7 -20 -15 0 -9 9 -15
25 -15 16 0 25 -6 25 -16 0 -13 7 -15 43 -9 51 9 57 12 57 31 0 17 -41 19 -58
2 -9 -9 -12 -5 -12 20 0 25 -4 32 -20 32 -11 0 -20 -7 -20 -15z"/>
<path d="M11671 5164 c0 -11 3 -14 6 -6 3 7 2 16 -1 19 -3 4 -6 -2 -5 -13z"/>
<path d="M10436 5121 c-3 -4 8 -8 24 -7 17 1 30 4 30 9 0 10 -48 9 -54 -2z"/>
<path d="M11420 5126 c0 -2 7 -7 16 -10 8 -3 12 -2 9 4 -6 10 -25 14 -25 6z"/>
<path d="M10525 5102 c-15 -10 -13 -29 5 -44 12 -11 12 -11 1 4 -10 14 -9 17
8 23 12 3 21 11 21 16 0 11 -21 12 -35 1z"/>
<path d="M11488 5105 c-8 -9 3 -45 13 -45 5 0 9 6 9 13 0 17 -15 39 -22 32z"/>
<path d="M10568 5053 c6 -2 18 -2 25 0 6 3 1 5 -13 5 -14 0 -19 -2 -12 -5z"/>
<path d="M11480 4964 c0 -8 5 -12 10 -9 6 3 10 10 10 16 0 5 -4 9 -10 9 -5 0
-10 -7 -10 -16z"/>
<path d="M10537 4959 c7 -7 15 -10 18 -7 3 3 -2 9 -12 12 -14 6 -15 5 -6 -5z"/>
<path d="M12015 4942 c-10 -10 -5 -43 14 -85 23 -53 43 -122 48 -167 5 -47 40
-77 100 -85 99 -14 215 -35 226 -41 8 -5 8 -2 0 7 -7 7 -13 18 -13 24 0 5 4 3
10 -5 5 -8 12 -11 16 -7 4 4 0 15 -9 25 -10 10 -14 22 -10 25 3 4 -1 7 -9 7
-27 0 -41 25 -22 41 9 7 14 22 11 35 -3 19 1 23 27 26 20 2 30 8 28 17 -1 7 5
19 15 27 17 12 17 14 -5 29 -12 9 -21 24 -20 33 4 19 -35 31 -76 22 -48 -9
-105 0 -99 16 3 9 -2 14 -17 14 -12 0 -31 5 -43 12 -25 14 -164 38 -172 30z"/>
<path d="M11460 4894 c0 -8 5 -12 10 -9 6 3 10 10 10 16 0 5 -4 9 -10 9 -5 0
-10 -7 -10 -16z"/>
<path d="M12716 4735 c-3 -8 -1 -15 4 -15 6 0 10 7 10 15 0 8 -2 15 -4 15 -2
0 -6 -7 -10 -15z"/>
<path d="M11911 4735 c1 -19 18 -51 18 -35 0 8 -4 22 -9 30 -5 8 -9 11 -9 5z"/>
<path d="M11991 4694 c0 -11 3 -14 6 -6 3 7 2 16 -1 19 -3 4 -6 -2 -5 -13z"/>
<path d="M12425 4620 c-3 -5 1 -10 9 -10 9 0 16 5 16 10 0 6 -4 10 -9 10 -6 0
-13 -4 -16 -10z"/>
<path d="M10580 4572 c0 -19 19 -52 30 -52 15 0 12 12 -10 40 -11 14 -20 19
-20 12z"/>
<path d="M12067 4526 c-3 -8 1 -20 9 -26 11 -10 14 -9 14 8 0 25 -16 37 -23
18z"/>
<path d="M10630 4490 c13 -24 17 -25 17 -5 0 8 -6 16 -14 19 -11 4 -11 1 -3
-14z"/>
<path d="M12110 4500 c0 -5 5 -10 10 -10 6 0 10 5 10 10 0 6 -4 10 -10 10 -5
0 -10 -4 -10 -10z"/>
<path d="M10662 4440 c7 -10 14 -18 15 -16 6 6 -9 36 -18 36 -5 0 -4 -9 3 -20z"/>
<path d="M12241 3968 c-1 -9 -6 -18 -13 -20 -8 -3 -6 -7 5 -11 21 -8 27 2 16
28 -6 16 -8 16 -8 3z"/>
<path d="M12175 3960 c3 -5 11 -10 16 -10 6 0 7 5 4 10 -3 6 -11 10 -16 10 -6
0 -7 -4 -4 -10z"/>
<path d="M2256 5605 c-16 -12 -17 -15 -4 -15 8 0 21 7 28 15 16 19 1 19 -24 0z"/>
<path d="M3476 5214 c-3 -9 -12 -14 -21 -10 -13 5 -13 2 0 -18 14 -21 19 -22
41 -12 16 7 24 18 22 31 -4 25 -33 32 -42 9z"/>
<path d="M3511 5156 c-17 -20 2 -29 33 -15 23 11 29 9 51 -15 14 -15 25 -33
25 -40 0 -7 8 -20 18 -29 9 -8 30 -27 45 -41 39 -37 45 -32 9 8 -16 18 -45 59
-63 90 -31 51 -37 55 -70 56 -20 0 -42 -6 -48 -14z"/>
<path d="M3730 5026 c0 -2 19 -15 43 -29 45 -27 183 -51 162 -28 -6 6 -34 15
-62 20 -29 6 -68 17 -89 26 -36 15 -54 19 -54 11z"/>
<path d="M3993 4963 c9 -2 25 -2 35 0 9 3 1 5 -18 5 -19 0 -27 -2 -17 -5z"/>
<path d="M3280 4699 c0 -5 5 -7 10 -4 6 3 10 8 10 11 0 2 -4 4 -10 4 -5 0 -10
-5 -10 -11z"/>
<path d="M2397 4923 c-4 -3 -7 -13 -7 -22 1 -13 3 -13 11 2 11 19 8 33 -4 20z"/>
<path d="M2390 4870 c0 -5 5 -10 10 -10 6 0 10 5 10 10 0 6 -4 10 -10 10 -5 0
-10 -4 -10 -10z"/>
<path d="M2266 4493 c-11 -11 -6 -23 9 -23 8 0 15 4 15 9 0 13 -16 22 -24 14z"/>
<path d="M9450 4286 c0 -8 5 -18 10 -21 6 -3 10 3 10 14 0 12 -4 21 -10 21 -5
0 -10 -6 -10 -14z"/>
<path d="M9461 4214 c0 -11 3 -14 6 -6 3 7 2 16 -1 19 -3 4 -6 -2 -5 -13z"/>
<path d="M4800 4240 c0 -5 5 -10 10 -10 6 0 10 5 10 10 0 6 -4 10 -10 10 -5 0
-10 -4 -10 -10z"/>
<path d="M4850 4180 c0 -5 5 -10 10 -10 6 0 10 5 10 10 0 6 -4 10 -10 10 -5 0
-10 -4 -10 -10z"/>
<path d="M9095 3040 c-3 -5 1 -10 9 -10 9 0 16 5 16 10 0 6 -4 10 -9 10 -6 0
-13 -4 -16 -10z"/>
<path d="M8555 2090 c3 -5 13 -10 21 -10 8 0 12 5 9 10 -3 6 -13 10 -21 10 -8
0 -12 -4 -9 -10z"/>
<path d="M8500 2060 c0 -5 5 -10 11 -10 5 0 7 5 4 10 -3 6 -8 10 -11 10 -2 0
-4 -4 -4 -10z"/>
<path d="M8592 2028 c6 -16 55 -35 65 -25 10 10 -7 23 -40 31 -21 5 -28 3 -25
-6z"/>
<path d="M8498 2003 c-27 -7 -22 -23 7 -23 18 0 23 4 19 15 -4 8 -7 14 -8 14
0 -1 -9 -3 -18 -6z"/>
<path d="M8590 1966 c0 -2 9 -6 20 -9 11 -3 18 -1 14 4 -5 9 -34 13 -34 5z"/>
<path d="M8648 1953 c7 -3 16 -2 19 1 4 3 -2 6 -13 5 -11 0 -14 -3 -6 -6z"/>
</g>
</svg>
